<svg width="325" height="158" viewBox="0 0 325 158" fill="none" xmlns="http://www.w3.org/2000/svg">
<g style="mix-blend-mode:multiply" opacity="0.1">
<path d="M204.551 96.823C197.023 94.823 184.705 94.823 177.177 96.823L20.4191 135.078C12.8911 137.076 18.8372 142.381 26.3567 144.378L70.2718 157.017C77.7999 159.017 93.1486 157.601 100.772 156C170.48 146.223 238.998 122.873 246.774 116.375C254.663 109.781 249.198 108.503 241.67 106.501L204.551 96.823Z" fill="#001230"/>
</g>
<g style="mix-blend-mode:multiply" opacity="0.9">
<path d="M185.016 102.22C177.488 100.222 165.17 100.222 157.642 102.22L20.419 135.078C12.8909 137.076 22.8746 141.265 30.4027 143.272L63.6598 152.095C71.1878 154.093 79.2099 154.555 83.5825 154.261C87.9552 153.967 93.3839 153.057 103.427 149.607C118.947 144.276 146.263 136.593 157.366 133.48C170.244 129.868 180.784 128.803 191.626 126.018C209.201 121.503 217.143 117.968 219.556 116.354C221.969 114.741 222.883 112.291 215.355 110.293L185.016 102.22Z" fill="#001230"/>
</g>
<path d="M51.8015 78.1659L45.1938 83.2771C45.1938 83.2771 45.8766 79.5546 47.2232 78.1659C49.2462 76.0694 51.8015 78.1659 51.8015 78.1659Z" fill="#E9E9EA"/>
<path d="M172.524 103.037C170.083 112.07 173.51 120.812 180.177 122.574C186.844 124.337 194.23 118.463 196.671 109.438C199.112 100.413 195.685 91.6635 189.018 89.9009C182.351 88.1384 174.965 94.0142 172.524 103.037Z" fill="#001230"/>
<path d="M180.169 122.594L190.011 125.206L198.85 92.526L189.008 89.9134L180.169 122.594Z" fill="#001230"/>
<path d="M68.9974 130.568C66.5566 139.601 69.9834 148.341 76.6505 150.105C83.3176 151.87 90.7014 145.994 93.1444 136.971C95.5873 127.948 92.1584 119.196 85.4891 117.434C78.8199 115.671 71.4382 121.543 68.9974 130.568Z" fill="#001230"/>
<path d="M76.6428 150.121L86.485 152.733L95.3242 120.053L85.482 117.441L76.6428 150.121Z" fill="#001230"/>
<path d="M207.815 108.344L190.492 102.922L115.446 125.579L104.12 139.75L79.5408 135.793L81.9646 115.123L196.355 83.8801L213.657 95.258L207.815 108.344Z" fill="#001230"/>
<path d="M200.231 56.7316C177.429 49.444 131.86 39.3539 102.695 47.7151C72.95 56.2421 43.5504 84.7288 43.5504 84.7288C43.5504 84.7288 26.1425 93.634 17.5266 100.485C8.29783 107.837 8.40808 122.095 10.5075 129.866C12.1361 135.879 53.4513 145.278 62.9027 145.202C65.615 145.759 69.7925 145.742 73.845 145.691L75.7195 145.202C75.4138 140.933 75.6899 136.644 76.5402 132.448C78.6417 122.003 87.4697 115.012 94.7581 116.19C101.701 117.318 106.421 124.873 104.118 139.744L114.611 134.868C131.921 129.125 150.686 124.047 171.307 119.82L178.985 118.917C178.985 114.276 179.314 110.19 180.593 105.077C183.178 94.7621 191.891 88.4241 198.976 90.3064C205.656 92.0794 208.956 99.4868 207.813 108.335C210.807 106.81 212.488 105.022 213.419 102.323C215.092 97.4722 216.136 90.5585 215.89 88.0858C215.729 86.4703 215.442 84.8443 214.259 84.2666C211.704 76.9349 206.888 64.8176 200.231 56.7316Z" fill="#E9E9EA"/>
<path d="M146.649 60.6391C163.153 55.238 175.336 54.2401 197.939 56.3472L200.234 56.7253C177.393 49.4335 131.822 39.3581 102.698 47.7088C95.214 49.8537 87.7538 53.2632 80.7771 57.1623C80.3996 57.4039 80.02 57.6455 79.6426 57.8913C73.64 61.3498 67.8317 65.1291 62.2432 69.2124C57.7794 72.5022 53.9093 75.6282 50.8684 78.2017C48.4086 80.3024 46.0462 82.4032 43.756 84.5271L43.5439 84.7204C48.3025 92.5332 65.8482 98.7221 99.1774 99.4847C99.1858 99.5036 117.247 70.2691 146.649 60.6391Z" fill="#00123E"/>
<path d="M104.12 101.096C133.667 92.2896 163.308 83.8507 189.94 72.9266C190.567 72.7035 191.174 72.428 191.753 72.1031C193.424 71.0317 198.554 60.2841 198.554 60.2841C185.831 57.5762 164.163 57.4081 150.765 62.1223C117.332 73.8741 104.12 101.096 104.12 101.096Z" fill="#001230"/>
<path d="M153.237 58.5741C151.445 59.0846 150.033 59.5614 147.77 60.2736C133.376 55.0784 117.968 51.0301 101.62 48.0323L107.505 46.5618C122.618 48.9777 137.766 53.0889 153.237 58.5741Z" fill="#303A66"/>
<path d="M87.1834 53.8074L82.3888 56.2842C91.3588 61.3261 108.934 65.3449 129.743 68.8532C130.95 68.0465 132.39 67.2104 134.057 66.2503C114.821 62.5592 98.3482 58.5194 87.1834 53.8074Z" fill="#303A66"/>
<path d="M46.2264 84.9221C52.4143 92.0942 70.9376 96.0121 97.676 97.76C97.676 97.76 100.592 90.4682 79.651 85.7246C57.3044 80.6659 46.2264 84.9221 46.2264 84.9221Z" fill="#303A66"/>
<path d="M148.716 63.6747L150.898 85.9745L156.219 84.2477L153.547 62.1096C151.978 62.5634 150.377 63.0676 148.716 63.6747Z" fill="#303A66"/>
<path d="M185.517 73.9601L189.137 72.5001L184.999 59.2399L181.698 59.0046L185.517 73.9601Z" fill="#303A66"/>
<path d="M151.089 62.0718C152.086 69.7459 153.761 85.9976 153.761 85.9976C155.289 88.1617 155.968 90.8037 155.67 93.4281C154.9 100.655 153.914 113.608 154.584 118.553" stroke="#231F32" stroke-width="1.31" stroke-miterlimit="10"/>
<path d="M104.214 101.014C107.594 104.586 108.243 118.079 110.419 130.335L169.371 114.608C171.86 113.947 174.178 111.777 175.52 108.854L188.112 84.4411C189.518 81.3635 189.682 77.059 187.606 73.8742L183.328 58.7107" stroke="#231F32" stroke-width="1.31" stroke-miterlimit="10"/>
<path d="M99.0799 99.4575C99.0799 99.4575 98.8296 100.903 96.6285 102.094C94.1834 103.413 72.878 112.245 67.5532 114.715C60.8586 117.818 51.9034 119.951 46.0103 119.102C36.8515 117.785 23.1695 114.289 19.9272 112.684C16.39 110.932 13.805 106.705 14.2991 104.651" stroke="#231F32" stroke-width="1.31" stroke-miterlimit="10"/>
<path d="M214.03 84.2163C214.03 84.2163 209.53 87.1574 208.716 87.899C206.51 89.9262 203.775 93.0375 203.775 93.0375" stroke="#231F32" stroke-width="1.31" stroke-miterlimit="10"/>
<path d="M72.2991 112.619C72.2991 112.619 80.4039 114.869 82.3888 121.207" stroke="#231F32" stroke-width="1.31" stroke-miterlimit="10"/>
<path opacity="0.1" d="M54.9145 144.368C56.6682 144.181 47.5073 131.509 46.6442 130.587C44.6191 128.398 38.374 126.215 27.5484 123.673C18.2433 121.49 16.2924 122.434 15.3063 123.31C14.6702 123.881 10.446 130.473 11.5953 131.354C14.2694 133.402 20.4254 136.055 29.334 138.599C38.9847 141.356 52.8787 144.587 54.9145 144.368Z" fill="black"/>
<path opacity="0.1" d="M48.9642 142.055C50.3892 142.322 43.4167 138.706 42.7572 138.412C41.1965 137.715 36.2237 136.312 27.5463 134.068C20.0967 132.144 18.4829 131.967 17.6559 131.946C17.1151 131.931 14.1061 131.736 14.9119 132.257C16.6189 133.358 20.5887 135.091 27.7096 137.007C35.4137 139.083 47.308 141.748 48.9642 142.055Z" fill="black"/>
<path opacity="0.1" d="M107.286 104.627C149.533 92.3357 192.129 75.3194 193.855 74.6072C199.294 72.3656 199.131 65.9394 203.232 68.5464C205.777 70.1619 211.596 81.8969 203.775 85.0439C200.749 86.2623 188.392 84.588 183.678 93.0269C176.076 106.657 175.59 110.587 172.35 112.753C169.53 114.644 158.617 117.711 142.096 121.885C133.047 124.169 110.419 130.324 110.419 130.324C109.074 122.9 107.28 116.186 104.574 110.909C104.274 110.328 104.107 109.689 104.084 109.038C104.061 108.386 104.184 107.737 104.443 107.138C104.701 106.538 105.091 106.002 105.582 105.568C106.074 105.135 106.655 104.813 107.286 104.627Z" fill="black"/>
<path opacity="0.1" d="M74.0423 124.148C71.9997 127.895 70.7954 132.035 70.5114 136.284C70.4854 136.663 70.3786 137.032 70.1982 137.367C70.0178 137.702 69.7678 137.995 69.4647 138.228C69.1616 138.46 68.8123 138.626 68.4397 138.715C68.0671 138.804 67.6797 138.814 67.303 138.744C63.4436 138.045 60.1333 136.797 57.7604 134.629C57.4339 134.333 57.1753 133.971 57.002 133.568C56.8286 133.165 56.7447 132.73 56.7557 132.292C56.7668 131.854 56.8726 131.423 57.066 131.029C57.2595 130.635 57.5361 130.286 57.8771 130.007C62.1819 126.488 66.9955 123.932 72.1146 121.982C72.4106 121.872 72.7336 121.853 73.0405 121.929C73.3474 122.005 73.6238 122.171 73.833 122.406C74.0422 122.641 74.1742 122.934 74.2116 123.245C74.2489 123.556 74.19 123.871 74.0423 124.148Z" fill="black"/>
<path opacity="0.1" d="M208.627 96.0625C206.998 93.5416 206.809 91.4891 209.322 89.9808C211.835 88.4724 213.167 86.7918 213.25 89.6278C213.33 93.5343 212.435 97.3999 210.646 100.882C210.605 100.963 210.54 101.029 210.458 101.07C210.377 101.112 210.284 101.126 210.194 101.111C210.104 101.095 210.021 101.052 209.958 100.987C209.895 100.921 209.855 100.837 209.844 100.747C209.702 99.7263 209.524 97.4554 208.627 96.0625Z" fill="black"/>
<path d="M208.464 75.7857C209.978 78.9118 211.171 82.181 212.024 85.5438L214.261 84.2834C213.057 79.2793 210.444 72.729 209.365 72.04C208.461 71.4518 208.464 75.7857 208.464 75.7857Z" fill="#303A66"/>
<path d="M21.3903 131.286L36.845 135.389V128.946L21.3903 124.843V131.286Z" fill="#001230"/>
<path d="M20.4191 131.501L35.8717 135.604V129.16L20.4191 125.058V131.501Z" fill="white"/>
<path d="M88.2267 65.6411L99.8899 68.7356L104.318 64.7294L92.6545 61.6328L88.2267 65.6411Z" fill="#303A66"/>
<path d="M145.202 95.0898L153.189 92.1865L152.89 94.0835L144.768 97.094L145.202 95.0898Z" fill="#001230"/>
<path d="M145.554 94.6865L153.538 91.7832L153.242 93.6802L145.12 96.6906L145.554 94.6865Z" fill="#303A66"/>
<path d="M179.393 82.4558L187.285 79.313L187.046 81.2163L179.021 84.4725L179.393 82.4558Z" fill="#001230"/>
<path d="M179.732 82.0398L187.623 78.8992L187.383 80.8025L179.359 84.0566L179.732 82.0398Z" fill="#303A66"/>
<path opacity="0.1" d="M106.943 100.169C151.219 67.8678 195.371 64.3763 195.371 64.3763L196.875 61.1264C182.667 59.3323 167.539 57.7651 151.696 63.2923C119.043 74.6744 106.943 100.169 106.943 100.169Z" fill="white"/>
<path opacity="0.1" d="M108.722 101.504C108.722 101.504 108.894 101.084 110.696 102.296C112.662 103.615 119.785 105.069 121.59 104.354C124.12 103.357 124.313 100.724 123.375 99.7327C120.47 96.6845 118.252 96.7391 117.162 96.8022C116.072 96.8652 108.722 101.504 108.722 101.504Z" fill="black"/>
<path d="M105.866 100.632C105.866 100.632 111.345 94.8987 113.913 94.8504C115.911 94.8126 120.574 94.9974 121.653 97.6171C122.733 100.237 119.473 101.649 115.33 102.491C111.186 103.333 108.353 102.701 107.348 102.157C106.718 101.798 106.204 101.269 105.866 100.632Z" fill="#E9E9EA"/>
<path opacity="0.1" d="M119.247 95.069C119.247 95.069 119.605 97.9114 114.965 99.0143C112.556 99.5857 104.918 100.747 104.918 100.747L106.775 104.088L122.128 104.375L124.117 97.8294L121.31 94.0732L119.247 95.069Z" fill="black"/>
<path d="M13.964 104.314C13.1646 105.995 15.3487 110.724 18.9262 112.396C24.1237 114.825 36.932 117.833 46.1629 119.308C52.8766 120.379 67.0315 116.213 72.6044 112.619C71.7074 111.814 68.9358 111.814 66.7282 112.455C62.2559 113.98 52.5967 116.72 46.9581 115.913C37.2267 114.518 24.6793 111.606 20.3958 109.667C18.2243 108.684 15.0943 104.462 16.3667 101.487C15.582 102.098 14.3945 103.405 13.964 104.314Z" fill="#303A66"/>
<path opacity="0.1" d="M9.07179 124.398C8.26173 100.167 37.4494 93.8567 56.5177 93.4806C69.4193 79.8381 101.62 40.5514 147.406 45.0176L170.893 41.9169L144.683 39.001L90.6505 46.5638L0 109.797L9.07179 124.398Z" fill="white"/>
<path d="M46.9581 115.913C36.8027 114.325 28.1338 112.405 20.3958 109.667L19.3101 112.571C22.6309 114.251 35.5134 117.822 45.9424 119.293L46.9581 115.913Z" fill="#303A66"/>
<path opacity="0.1" d="M46.6802 116.823C36.7347 115.381 28.157 113.335 20.419 110.598L19.9037 112.05C24.6093 114.047 35.7275 117.062 46.1565 118.524L46.6802 116.823Z" fill="black"/>
<path d="M78.5802 133.139C76.1416 142.15 79.5642 150.889 86.2143 152.656C92.8645 154.422 100.246 148.551 102.683 139.538C105.119 130.526 101.699 121.791 95.0487 120.022C88.3985 118.253 81.0168 124.127 78.5802 133.139Z" fill="#303A66"/>
<path d="M81.6339 133.957C79.8144 140.679 82.3697 147.206 87.3404 148.528C92.311 149.849 97.816 145.463 99.6397 138.734C101.463 132.005 98.906 125.484 93.9354 124.165C88.9648 122.846 83.4533 127.222 81.6339 133.957Z" fill="#E9E9EA"/>
<path d="M96.041 135.79L98.3186 139.351C98.9442 140.328 98.0662 142.034 96.9847 141.948L93.0362 141.639C92.5654 141.603 92.0607 141.937 91.7639 142.479L89.2192 147.086C88.5236 148.347 87.0985 148.162 87.0604 146.803L86.8971 141.841C86.878 141.25 86.5663 140.809 86.1061 140.723L82.2595 140.009C81.1992 139.813 81.1992 137.992 82.2595 137.236L86.1061 134.48C86.3439 134.297 86.5382 134.064 86.6749 133.798C86.8116 133.532 86.8874 133.24 86.8971 132.942L87.0604 127.9C87.1049 126.515 88.5236 125.576 89.2192 126.469L91.7639 129.725C92.0671 130.114 92.5718 130.181 93.0362 129.893L96.9847 127.488C98.0662 126.828 98.9442 128.07 98.3186 129.379L96.041 134.15C95.7696 134.719 95.7696 135.366 96.041 135.79Z" fill="#242B52"/>
<path d="M88.6658 135.816C88.2692 137.286 88.8269 138.715 89.9147 139.003C91.0026 139.291 92.205 138.333 92.6037 136.862C93.0023 135.391 92.4425 133.963 91.3568 133.675C90.271 133.387 89.0645 134.345 88.6658 135.816Z" fill="#E9E9EA"/>
<path d="M206.253 111.956C208.69 102.944 205.268 94.206 198.609 92.4385C191.951 90.671 184.577 96.5435 182.14 105.555C179.702 114.567 183.124 123.305 189.783 125.072C196.441 126.84 203.815 120.967 206.253 111.956Z" fill="#303A66"/>
<path d="M185.203 106.371C183.384 113.094 185.939 119.621 190.909 120.94C195.88 122.259 201.385 117.877 203.209 111.148C205.033 104.42 202.473 97.8987 197.502 96.5794C192.532 95.2601 187.022 99.6423 185.203 106.371Z" fill="#E9E9EA"/>
<path d="M199.61 108.211L201.888 111.783C202.513 112.758 201.635 114.466 200.554 114.379L196.605 114.071C196.135 114.035 195.63 114.369 195.333 114.911L192.788 119.518C192.093 120.778 190.668 120.593 190.63 119.232L190.466 114.272C190.447 113.68 190.135 113.239 189.675 113.155L185.829 112.44C184.768 112.245 184.768 110.424 185.829 109.667L189.675 106.911C189.913 106.728 190.107 106.495 190.244 106.229C190.38 105.964 190.456 105.671 190.466 105.373L190.63 100.331C190.674 98.9491 192.093 98.0101 192.788 98.9029L195.333 102.159C195.636 102.548 196.141 102.613 196.605 102.327L200.554 99.9218C201.635 99.2621 202.513 100.504 201.888 101.812L199.61 106.583C199.339 107.138 199.339 107.787 199.61 108.211Z" fill="#242B52"/>
<path d="M192.235 108.237C191.838 109.707 192.396 111.136 193.484 111.424C194.572 111.711 195.774 110.753 196.173 109.283C196.571 107.812 196.011 106.384 194.926 106.096C193.84 105.808 192.633 106.766 192.235 108.237Z" fill="#E9E9EA"/>
<path d="M46.4174 117.673C36.3892 116.203 26.1786 113.789 19.9102 111.125" stroke="#231F32" stroke-width="1.31" stroke-miterlimit="10"/>
<path d="M197.299 76.9643L201.288 74.9664C201.442 74.899 201.61 74.8657 201.779 74.8689C201.948 74.872 202.114 74.9115 202.266 74.9847C202.418 75.0578 202.552 75.1629 202.658 75.2925C202.765 75.4221 202.842 75.5732 202.884 75.7353L203.872 80.6722C203.94 80.9328 203.913 81.2087 203.797 81.4519C203.681 81.6951 203.483 81.8904 203.236 82.0041L199.379 84.0397C199.227 84.1093 199.062 84.1456 198.895 84.1462C198.728 84.1469 198.562 84.1118 198.41 84.0434C198.258 83.9751 198.122 83.875 198.012 83.75C197.902 83.625 197.821 83.4781 197.774 83.3192L196.656 78.3445C196.577 78.0764 196.599 77.7889 196.717 77.5353C196.835 77.2816 197.042 77.0788 197.299 76.9643Z" fill="#001230"/>
<path d="M196.626 77.4097L197.687 74.6282C197.835 74.2417 198.149 74.5505 198.346 75.2732L199.3 79.8949C199.453 80.46 199.485 81.0965 199.373 81.4075L198.353 84.2141C198.211 84.607 197.901 84.3255 197.699 83.6217L196.696 78.9727C196.546 78.3928 196.512 77.7227 196.626 77.4097Z" fill="#E5E7EB"/>
<path d="M269.131 86.6321C269.131 89.9009 268.584 95.2453 267.295 99.4931C265.586 105.123 261.671 111.814 265.98 114.467C269.886 116.873 274.842 113.323 277.219 106.09" stroke="#5D6E81" stroke-width="13" stroke-linecap="round" stroke-linejoin="round"/>
<path opacity="0.1" d="M288.624 122.392H303.538L325 116.694L310.873 112.949H288.624V122.392Z" fill="black"/>
<path d="M268.597 113.314L288.452 108.043L308.307 113.314L288.452 118.585L268.597 113.314Z" fill="#43596D"/>
<path d="M277.728 110.539C271.805 112.111 267.004 108.287 267.004 101.999V87.1973L288.452 81.5042V96.3063C288.448 102.594 283.651 108.957 277.728 110.539Z" fill="#B4BDC5"/>
<path d="M273.033 110.644V95.842L294.479 101.535V116.337L273.033 110.644Z" fill="#B4BDC5"/>
<path d="M267.004 101.999V87.1973L288.452 92.8904V107.693L267.004 101.999Z" fill="#D0D2D3"/>
<path d="M267.004 87.1973L288.452 81.5042L309.897 87.1973L288.452 92.8904L267.004 87.1973Z" fill="#F1F2F2"/>
<path d="M288.452 122.392L268.597 117.121V113.314L288.452 118.585V122.392Z" fill="#444051"/>
<path d="M288.452 122.392L308.307 117.121V113.314L288.452 118.585V122.392Z" fill="#001230"/>
<path d="M299.176 116.232C293.255 117.804 288.454 113.98 288.454 107.693V92.8904L309.899 87.1973V101.999C309.897 108.287 305.096 114.659 299.176 116.232Z" fill="#D0D2D3"/>
<path d="M288.452 106.291L267.004 100.598V41.3225L288.452 47.0156V106.291Z" fill="#EFF0F1"/>
<path d="M288.452 106.291L309.897 100.598V41.3225L288.452 47.0156V106.291Z" fill="#D0D2D3"/>
<path d="M309.897 41.3225L288.452 35.6294L267.004 41.3225L288.452 47.0156L309.897 41.3225Z" fill="#7D8191"/>
<path d="M288.452 47.5933L267.004 41.9001V16.3567L288.452 22.0498V47.5933Z" fill="#EFF0F1"/>
<path d="M288.452 47.5933L309.897 41.9001V16.3567L288.452 22.0498V47.5933Z" fill="#D0D2D3"/>
<path d="M309.897 16.3567L288.452 10.6636L267.004 16.3567L288.452 22.0498L309.897 16.3567Z" fill="#F1F2F2"/>
<path d="M288.448 23.6947L267 29.3878V14.5857C267 8.29598 271.801 1.92431 277.724 0.352918C283.647 -1.21847 288.448 2.60496 288.448 8.89261V23.6947Z" fill="#E9E9EA"/>
<path d="M288.452 20.2789L267.004 14.5857L281.115 0L302.562 5.69313L288.452 20.2789Z" fill="#E9E9EA"/>
<path d="M309.897 29.388L288.448 35.0811V20.279C288.448 13.9892 293.248 7.61754 299.171 6.04616C305.092 4.47477 309.893 8.2961 309.893 14.5859L309.897 29.388Z" fill="#D0D2D3"/>
<path d="M267.004 29.3878V14.5857L288.452 20.2788V35.0809L267.004 29.3878Z" fill="#EFF0F1"/>
<path d="M280.629 27.9531L277.452 27.1107V20.3818L272.611 28.8144L275.79 29.6568V36.3835L280.629 27.9531Z" fill="#00C48B"/>
<path d="M303.309 28.8332L299.969 29.7198V22.6506L294.884 34.2092L298.223 33.3226V40.3918L303.309 28.8332Z" fill="#D0D2D3"/>
<path d="M285.827 81.1029L279.053 79.3046V69.0002L285.827 70.7985V81.1029Z" fill="#001230"/>
<path d="M279.053 69.0002V79.3046L279.844 79.0945V69.2103L279.053 69.0002Z" fill="#B4BDC5"/>
<path d="M285.827 81.1028L279.053 79.3046L279.844 79.0945L285.827 80.6827V81.1028Z" fill="#E6E7E8"/>
<path d="M276.437 78.6134L269.664 76.8151V66.5107L276.437 68.309V78.6134Z" fill="#001230"/>
<path d="M269.664 66.5107V76.8151L270.452 76.605V66.7208L269.664 66.5107Z" fill="#B4BDC5"/>
<path d="M276.437 78.6133L269.664 76.8151L270.452 76.605L276.437 78.1932V78.6133Z" fill="#E6E7E8"/>
<path d="M280.217 63.0342C280.769 65.0677 280.005 67.0404 278.493 67.4458C276.982 67.8513 275.325 66.5194 274.776 64.4858C274.227 62.4523 274.988 60.4796 276.5 60.0742C278.012 59.6687 279.668 61.0006 280.217 63.0342Z" fill="#B4BDC5"/>
<path d="M279.753 63.16C280.207 64.8406 279.569 66.4687 278.328 66.7985C277.088 67.1283 275.711 66.0339 275.257 64.3532C274.804 62.6726 275.442 61.0445 276.683 60.7147C277.923 60.3848 279.291 61.4793 279.753 63.16Z" fill="#B4BDC5"/>
<path d="M279.45 63.2377C279.846 64.7082 279.291 66.1158 278.211 66.4015C277.132 66.6872 275.938 65.7355 275.542 64.2755C275.145 62.8154 275.703 61.3974 276.782 61.1117C277.862 60.826 279.055 61.7776 279.45 63.2377Z" fill="#001230"/>
<path d="M269.131 86.6321C269.131 89.9009 268.584 95.2453 267.295 99.4931C265.586 105.123 261.671 111.814 265.98 114.467" stroke="#5D6E81" stroke-width="2" stroke-linecap="round" stroke-linejoin="round"/>
<path d="M285.814 61.0215L269.64 56.7275V38.6355L285.814 42.9295V61.0215Z" fill="#43596D"/>
<path d="M269.64 38.6355V56.7275L271.527 56.2275L276.458 40.4443L269.64 38.6355Z" fill="#B4BDC5"/>
<path d="M285.814 61.0215L269.64 56.7275L271.527 56.2275L285.814 60.0195V61.0215Z" fill="#9FA8B6"/>
<path d="M285.814 54.8661L274.148 51.7696L276.75 43.2593L285.826 45.6689L285.814 54.8661Z" fill="#00123E"/>
<path d="M274.496 53.2086L273.894 53.0489L274.074 52.488L274.679 52.6477L274.496 53.2086Z" fill="#001230"/>
<path d="M275.478 53.467L274.874 53.3073L275.056 52.7485L275.658 52.9061L275.478 53.467Z" fill="#001230"/>
<path d="M276.46 53.7255L275.856 53.568L276.036 53.0071L276.64 53.1646L276.46 53.7255Z" fill="#001230"/>
<path d="M277.442 53.986L276.837 53.8263L277.018 53.2654L277.622 53.425L277.442 53.986Z" fill="#001230"/>
<path d="M278.424 54.2442L277.819 54.0846L277.999 53.5237L278.604 53.6833L278.424 54.2442Z" fill="#001230"/>
<path d="M274.174 54.2087L273.572 54.049L273.752 53.4902L274.356 53.6478L274.174 54.2087Z" fill="#001230"/>
<path d="M275.156 54.467L274.553 54.3073L274.734 53.7485L275.336 53.9061L275.156 54.467Z" fill="#001230"/>
<path d="M276.138 54.7256L275.533 54.568L275.713 54.0071L276.318 54.1646L276.138 54.7256Z" fill="#001230"/>
<path d="M277.119 54.9859L276.515 54.8263L276.695 54.2654L277.3 54.425L277.119 54.9859Z" fill="#001230"/>
<path d="M278.101 55.2442L277.497 55.0846L277.677 54.5237L278.282 54.6833L278.101 55.2442Z" fill="#001230"/>
<path d="M273.854 55.2087L273.249 55.049L273.43 54.4902L274.034 54.6478L273.854 55.2087Z" fill="#001230"/>
<path d="M274.836 55.467L274.231 55.3073L274.411 54.7485L275.016 54.9061L274.836 55.467Z" fill="#001230"/>
<path d="M275.815 55.7253L275.213 55.5677L275.393 55.0068L275.996 55.1665L275.815 55.7253Z" fill="#001230"/>
<path d="M276.797 55.9859L276.193 55.8263L276.375 55.2654L276.977 55.425L276.797 55.9859Z" fill="#001230"/>
<path d="M277.779 56.2443L277.175 56.0846L277.355 55.5237L277.959 55.6833L277.779 56.2443Z" fill="#001230"/>
<path d="M273.531 56.2087L272.927 56.0511L273.107 55.4902L273.712 55.6478L273.531 56.2087Z" fill="#001230"/>
<path d="M274.513 56.467L273.909 56.3094L274.089 55.7485L274.694 55.9061L274.513 56.467Z" fill="#001230"/>
<path d="M275.493 56.7253L274.891 56.5677L275.071 56.0068L275.673 56.1665L275.493 56.7253Z" fill="#001230"/>
<path d="M276.475 56.9839L275.87 56.8263L276.053 56.2654L276.655 56.425L276.475 56.9839Z" fill="#001230"/>
<path d="M277.457 57.2442L276.852 57.0846L277.033 56.5237L277.637 56.6833L277.457 57.2442Z" fill="#001230"/>
<path d="M281.45 54.4942C281.484 54.5923 281.484 54.6987 281.452 54.7973C281.419 54.8958 281.355 54.9812 281.269 55.0404C281.236 55.0717 281.195 55.0948 281.151 55.1078C281.107 55.1207 281.06 55.1232 281.015 55.115C280.969 55.1068 280.927 55.0883 280.89 55.0607C280.853 55.0332 280.823 54.9974 280.803 54.9564C280.769 54.8583 280.769 54.7521 280.801 54.6536C280.834 54.5551 280.897 54.4697 280.983 54.4102C281.017 54.3793 281.057 54.3566 281.102 54.3439C281.146 54.3312 281.192 54.3289 281.237 54.337C281.283 54.3452 281.325 54.3636 281.362 54.3909C281.399 54.4182 281.429 54.4536 281.45 54.4942Z" fill="#FF2C5D"/>
<path d="M282.402 54.7569C282.436 54.8549 282.437 54.9613 282.404 55.0599C282.372 55.1584 282.307 55.2438 282.222 55.3031C282.188 55.3344 282.148 55.3576 282.104 55.3707C282.06 55.3838 282.014 55.3865 281.968 55.3786C281.923 55.3706 281.881 55.3522 281.844 55.3248C281.807 55.2975 281.777 55.2619 281.757 55.2211C281.722 55.1233 281.721 55.0169 281.753 54.9182C281.785 54.8195 281.849 54.734 281.935 54.6749C281.969 54.6435 282.009 54.6204 282.053 54.6073C282.097 54.5942 282.144 54.5915 282.189 54.5995C282.235 54.6074 282.278 54.6258 282.314 54.6532C282.351 54.6805 282.381 54.716 282.402 54.7569Z" fill="#00A88A"/>
<path d="M293.717 55.1602L304.632 52.2632V40.0535L293.717 42.9504V55.1602Z" fill="#001230"/>
<path d="M304.632 40.0535V52.2632L303.359 51.925V40.3917L304.632 40.0535Z" fill="#B4BDC5"/>
<path d="M293.717 55.1603L304.632 52.2633L303.359 51.925L293.717 54.4838V55.1603Z" fill="#E6E7E8"/>
<path d="M267.295 81.9326L270.966 82.1427L270.429 86.8296C270.06 87.8169 267.685 87.5354 267.479 86.4829L267.295 81.9326Z" fill="#242B52"/>
<path d="M275.147 69.9016C274.267 69.5487 271.754 68.8218 271.074 69.0424C269.96 69.3868 268.984 70.0714 268.287 70.9982C267.307 72.2944 265.742 74.3468 265.091 75.8573C264.695 76.7669 263.9 78.8425 264.629 79.4286C265.104 79.8152 267.127 81.1093 267.127 81.1093C267.127 81.1093 267.002 83.8907 267.352 84.2479C268.459 85.3886 270.745 84.668 270.745 84.668L271.988 78.4224C272.73 77.9291 273.447 77.3975 274.134 76.83C274.982 76.1073 275.569 75.101 275.682 73.6242C275.764 72.4499 276.029 70.2545 275.147 69.9016ZM267.513 78.977C267.513 78.977 266.608 78.498 266.699 77.8342C266.837 76.8006 267.759 75.3573 268.679 74.0275C269.364 73.0486 269.92 73.7208 269.92 73.7208L267.513 78.977Z" fill="#9FA8B6"/>
<g style="mix-blend-mode:multiply" opacity="0.1">
<path d="M276.165 71.874C276.165 71.874 272.047 75.9979 271.725 76.4558C271.402 76.9138 270.741 78.0482 270.741 79.0923C270.741 79.9662 270.064 85.6237 270.064 85.6237L271.08 85.4388L273.574 77.7394L276.165 74.7983V71.874Z" fill="#001231"/>
</g>
<g style="mix-blend-mode:multiply" opacity="0.1">
<path d="M264.033 78.9768C264.033 78.9768 265.866 79.3318 266.116 79.4243C266.366 79.5167 267.556 80.3402 267.959 80.6154C268.362 80.8906 269.231 81.6238 269.231 81.6238L266.593 81.3024L264.385 80.0797L264.033 78.9768Z" fill="#001231"/>
</g>
</svg>
