<svg width="332" height="225" viewBox="0 0 332 225" fill="none" xmlns="http://www.w3.org/2000/svg">
<g clip-path="url(#clip0_162_56165)">
<path d="M271.148 180.073H263.117V188.123H271.148V180.073Z" fill="white"/>
<path d="M271.148 172.043H263.117V180.073H271.148V172.043Z" fill="white"/>
<path d="M271.148 155.948H263.117V172.043H271.148V155.948Z" fill="white"/>
<path d="M271.148 147.918H263.117V155.949H271.148V147.918Z" fill="white"/>
<path d="M271.148 139.874H263.117V147.923H271.148V139.874Z" fill="white"/>
<path d="M271.148 123.813H263.117V139.873H271.148V123.813Z" fill="white"/>
<path d="M271.148 107.718H263.117V123.813H271.148V107.718Z" fill="white"/>
<path d="M271.148 91.6433H263.117V107.718H271.148V91.6433Z" fill="white"/>
<path d="M271.148 75.5488H263.117V91.6432H271.148V75.5488Z" fill="white"/>
<path d="M271.148 67.5186H263.117V75.5489H271.148V67.5186Z" fill="white"/>
<path d="M271.148 59.4883H263.117V67.5186H271.148V59.4883Z" fill="white"/>
<path d="M271.148 51.4387H263.117V59.4883H271.148V51.4387Z" fill="white"/>
<path d="M271.148 43.4082H263.117V51.4386H271.148V43.4082Z" fill="white"/>
<path d="M271.148 35.3828H263.117V43.4132H271.148V35.3828Z" fill="white"/>
<path d="M271.148 27.314H263.117V35.3779H271.148V27.314Z" fill="white"/>
<path d="M271.148 19.2837H263.117V27.314H271.148V19.2837Z" fill="white"/>
<path d="M271.148 11.2581H263.117V19.2884H271.148V11.2581Z" fill="white"/>
<path d="M263.117 180.073H255.087V188.123H263.117V180.073Z" fill="white"/>
<path d="M263.117 172.043H255.087V180.073H263.117V172.043Z" fill="#DEDEDE"/>
<path d="M263.117 155.948H255.087V172.043H263.117V155.948Z" fill="#DEDEDE"/>
<path d="M263.117 147.918H255.087V155.949H263.117V147.918Z" fill="white"/>
<path d="M263.117 139.874H255.087V147.923H263.117V139.874Z" fill="#DEDEDE"/>
<path d="M263.117 123.813H255.087V139.873H263.117V123.813Z" fill="#DEDEDE"/>
<path d="M263.117 107.718H255.087V123.813H263.117V107.718Z" fill="#DEDEDE"/>
<path d="M263.117 91.6433H255.087V107.718H263.117V91.6433Z" fill="#DEDEDE"/>
<path d="M263.117 75.5488H255.087V91.6432H263.117V75.5488Z" fill="#DEDEDE"/>
<path d="M263.117 67.5186H255.087V75.5489H263.117V67.5186Z" fill="#DEDEDE"/>
<path d="M263.117 59.4883H255.087V67.5186H263.117V59.4883Z" fill="white"/>
<path d="M263.117 51.4387H255.087V59.4883H263.117V51.4387Z" fill="#DEDEDE"/>
<path d="M263.117 43.4082H255.087V51.4386H263.117V43.4082Z" fill="#DEDEDE"/>
<path d="M263.117 35.3828H255.087V43.4132H263.117V35.3828Z" fill="#DEDEDE"/>
<path d="M263.117 27.314H255.087V35.3779H263.117V27.314Z" fill="#DEDEDE"/>
<path d="M263.117 19.2837H255.087V27.314H263.117V19.2837Z" fill="#DEDEDE"/>
<path d="M263.117 11.2581H255.087V19.2884H263.117V11.2581Z" fill="white"/>
<path d="M255.087 180.073H247.004V188.123H255.087V180.073Z" fill="white"/>
<path d="M255.087 172.043H247.004V180.073H255.087V172.043Z" fill="white"/>
<path d="M255.087 155.948H247.004V172.043H255.087V155.948Z" fill="white"/>
<path d="M255.087 147.918H247.004V155.949H255.087V147.918Z" fill="#DEDEDE"/>
<path d="M255.087 139.874H247.004V147.923H255.087V139.874Z" fill="white"/>
<path d="M255.087 123.813H247.004V139.873H255.087V123.813Z" fill="white"/>
<path d="M255.087 107.718H247.004V123.813H255.087V107.718Z" fill="#DEDEDE"/>
<path d="M255.087 91.6433H247.004V107.718H255.087V91.6433Z" fill="#DEDEDE"/>
<path d="M255.087 75.5488H247.004V91.6432H255.087V75.5488Z" fill="#DEDEDE"/>
<path d="M255.087 67.5186H247.004V75.5489H255.087V67.5186Z" fill="white"/>
<path d="M255.087 59.4883H247.004V67.5186H255.087V59.4883Z" fill="white"/>
<path d="M255.087 51.4387H247.004V59.4883H255.087V51.4387Z" fill="#DEDEDE"/>
<path d="M255.087 43.4082H247.004V51.4386H255.087V43.4082Z" fill="white"/>
<path d="M255.087 35.3828H247.004V43.4132H255.087V35.3828Z" fill="white"/>
<path d="M255.087 27.314H247.004V35.3779H255.087V27.314Z" fill="white"/>
<path d="M255.087 19.2837H247.004V27.314H255.087V19.2837Z" fill="#DEDEDE"/>
<path d="M255.087 11.2581H247.004V19.2884H255.087V11.2581Z" fill="white"/>
<path d="M247.004 180.073H238.973V188.123H247.004V180.073Z" fill="white"/>
<path d="M247.004 172.043H238.973V180.073H247.004V172.043Z" fill="#DEDEDE"/>
<path d="M247.004 155.948H238.973V172.043H247.004V155.948Z" fill="white"/>
<path d="M247.004 147.918H238.973V155.949H247.004V147.918Z" fill="white"/>
<path d="M247.004 139.874H238.973V147.923H247.004V139.874Z" fill="#DEDEDE"/>
<path d="M247.004 123.813H238.973V139.873H247.004V123.813Z" fill="white"/>
<path d="M247.004 107.718H238.973V123.813H247.004V107.718Z" fill="#DEDEDE"/>
<path d="M247.004 91.6433H238.973V107.718H247.004V91.6433Z" fill="#DEDEDE"/>
<path d="M247.004 75.5488H238.973V91.6432H247.004V75.5488Z" fill="#DEDEDE"/>
<path d="M247.004 67.5186H238.973V75.5489H247.004V67.5186Z" fill="white"/>
<path d="M247.004 59.4883H238.973V67.5186H247.004V59.4883Z" fill="white"/>
<path d="M247.004 51.4387H238.973V59.4883H247.004V51.4387Z" fill="#DEDEDE"/>
<path d="M247.004 43.4082H238.973V51.4386H247.004V43.4082Z" fill="white"/>
<path d="M247.004 35.3828H238.973V43.4132H247.004V35.3828Z" fill="#DEDEDE"/>
<path d="M247.004 27.314H238.973V35.3779H247.004V27.314Z" fill="white"/>
<path d="M247.004 19.2837H238.973V27.314H247.004V19.2837Z" fill="#DEDEDE"/>
<path d="M247.004 11.2581H238.973V19.2884H247.004V11.2581Z" fill="white"/>
<path d="M238.978 180.073H230.948V188.123H238.978V180.073Z" fill="white"/>
<path d="M238.978 172.043H230.948V180.073H238.978V172.043Z" fill="#DEDEDE"/>
<path d="M238.978 155.948H230.948V172.043H238.978V155.948Z" fill="white"/>
<path d="M238.978 147.918H230.948V155.949H238.978V147.918Z" fill="white"/>
<path d="M238.978 139.874H230.948V147.923H238.978V139.874Z" fill="white"/>
<path d="M238.978 123.813H230.948V139.873H238.978V123.813Z" fill="white"/>
<path d="M238.978 107.718H230.948V123.813H238.978V107.718Z" fill="white"/>
<path d="M238.978 91.6433H230.948V107.718H238.978V91.6433Z" fill="white"/>
<path d="M238.978 75.5488H230.948V91.6432H238.978V75.5488Z" fill="#DEDEDE"/>
<path d="M238.978 67.5186H230.948V75.5489H238.978V67.5186Z" fill="white"/>
<path d="M238.978 59.4883H230.948V67.5186H238.978V59.4883Z" fill="white"/>
<path d="M238.978 51.4387H230.948V59.4883H238.978V51.4387Z" fill="#DEDEDE"/>
<path d="M238.978 43.4082H230.948V51.4386H238.978V43.4082Z" fill="white"/>
<path d="M238.978 35.3828H230.948V43.4132H238.978V35.3828Z" fill="white"/>
<path d="M238.978 27.314H230.948V35.3779H238.978V27.314Z" fill="white"/>
<path d="M238.978 19.2837H230.948V27.314H238.978V19.2837Z" fill="#DEDEDE"/>
<path d="M238.978 11.2581H230.948V19.2884H238.978V11.2581Z" fill="white"/>
<path d="M230.948 180.073H222.917V188.123H230.948V180.073Z" fill="white"/>
<path d="M230.948 172.043H222.917V180.073H230.948V172.043Z" fill="#DEDEDE"/>
<path d="M230.948 155.948H222.917V172.043H230.948V155.948Z" fill="white"/>
<path d="M230.948 147.918H222.917V155.949H230.948V147.918Z" fill="white"/>
<path d="M230.948 139.874H222.917V147.923H230.948V139.874Z" fill="white"/>
<path d="M230.948 123.813H222.917V139.873H230.948V123.813Z" fill="white"/>
<path d="M230.948 107.718H222.917V123.813H230.948V107.718Z" fill="white"/>
<path d="M230.948 91.6433H222.917V107.718H230.948V91.6433Z" fill="#DEDEDE"/>
<path d="M230.948 75.5488H222.917V91.6432H230.948V75.5488Z" fill="#DEDEDE"/>
<path d="M230.948 67.5186H222.917V75.5489H230.948V67.5186Z" fill="#DEDEDE"/>
<path d="M230.948 59.4883H222.917V67.5186H230.948V59.4883Z" fill="white"/>
<path d="M230.948 51.4387H222.917V59.4883H230.948V51.4387Z" fill="#DEDEDE"/>
<path d="M230.948 43.4082H222.917V51.4386H230.948V43.4082Z" fill="#DEDEDE"/>
<path d="M230.948 35.3828H222.917V43.4132H230.948V35.3828Z" fill="#DEDEDE"/>
<path d="M230.948 27.314H222.917V35.3779H230.948V27.314Z" fill="#DEDEDE"/>
<path d="M230.948 19.2837H222.917V27.314H230.948V19.2837Z" fill="#DEDEDE"/>
<path d="M230.948 11.2581H222.917V19.2884H230.948V11.2581Z" fill="white"/>
<path d="M222.918 180.073H214.887V188.123H222.918V180.073Z" fill="white"/>
<path d="M222.918 172.043H214.887V180.073H222.918V172.043Z" fill="#DEDEDE"/>
<path d="M222.918 155.948H214.887V172.043H222.918V155.948Z" fill="white"/>
<path d="M222.918 147.918H214.887V155.949H222.918V147.918Z" fill="white"/>
<path d="M222.918 139.874H214.887V147.923H222.918V139.874Z" fill="white"/>
<path d="M222.918 123.813H214.887V139.873H222.918V123.813Z" fill="#DEDEDE"/>
<path d="M222.918 107.718H214.887V123.813H222.918V107.718Z" fill="white"/>
<path d="M222.918 91.6433H214.887V107.718H222.918V91.6433Z" fill="white"/>
<path d="M222.918 75.5488H214.887V91.6432H222.918V75.5488Z" fill="white"/>
<path d="M222.918 67.5186H214.887V75.5489H222.918V67.5186Z" fill="white"/>
<path d="M222.918 59.4883H214.887V67.5186H222.918V59.4883Z" fill="white"/>
<path d="M222.918 51.4387H214.887V59.4883H222.918V51.4387Z" fill="white"/>
<path d="M222.918 43.4082H214.887V51.4386H222.918V43.4082Z" fill="white"/>
<path d="M222.918 35.3828H214.887V43.4132H222.918V35.3828Z" fill="white"/>
<path d="M222.918 27.314H214.887V35.3779H222.918V27.314Z" fill="white"/>
<path d="M222.918 19.2837H214.887V27.314H222.918V19.2837Z" fill="white"/>
<path d="M222.918 11.2581H214.887V19.2884H222.918V11.2581Z" fill="white"/>
<path d="M214.887 180.073H206.857V188.123H214.887V180.073Z" fill="white"/>
<path d="M214.887 172.043H206.857V180.073H214.887V172.043Z" fill="#DEDEDE"/>
<path d="M214.887 155.948H206.857V172.043H214.887V155.948Z" fill="white"/>
<path d="M214.887 147.918H206.857V155.949H214.887V147.918Z" fill="white"/>
<path d="M214.887 139.874H206.857V147.923H214.887V139.874Z" fill="#DEDEDE"/>
<path d="M214.887 123.813H206.857V139.873H214.887V123.813Z" fill="#DEDEDE"/>
<path d="M214.887 107.718H206.857V123.813H214.887V107.718Z" fill="#DEDEDE"/>
<path d="M214.887 91.6433H206.857V107.718H214.887V91.6433Z" fill="#DEDEDE"/>
<path d="M214.887 75.5488H206.857V91.6432H214.887V75.5488Z" fill="white"/>
<path d="M214.887 67.5186H206.857V75.5489H214.887V67.5186Z" fill="#DEDEDE"/>
<path d="M214.887 59.4883H206.857V67.5186H214.887V59.4883Z" fill="white"/>
<path d="M214.887 51.4387H206.857V59.4883H214.887V51.4387Z" fill="white"/>
<path d="M214.887 43.4082H206.857V51.4386H214.887V43.4082Z" fill="#DEDEDE"/>
<path d="M214.887 35.3828H206.857V43.4132H214.887V35.3828Z" fill="white"/>
<path d="M214.887 27.314H206.857V35.3779H214.887V27.314Z" fill="white"/>
<path d="M214.887 19.2837H206.857V27.314H214.887V19.2837Z" fill="#DEDEDE"/>
<path d="M214.887 11.2581H206.857V19.2884H214.887V11.2581Z" fill="white"/>
<path d="M206.857 180.073H198.774V188.123H206.857V180.073Z" fill="white"/>
<path d="M206.857 172.043H198.774V180.073H206.857V172.043Z" fill="white"/>
<path d="M206.857 155.948H198.774V172.043H206.857V155.948Z" fill="white"/>
<path d="M206.857 147.918H198.774V155.949H206.857V147.918Z" fill="white"/>
<path d="M206.857 139.874H198.774V147.923H206.857V139.874Z" fill="#DEDEDE"/>
<path d="M206.857 123.813H198.774V139.873H206.857V123.813Z" fill="white"/>
<path d="M206.857 107.718H198.774V123.813H206.857V107.718Z" fill="#DEDEDE"/>
<path d="M206.857 91.6433H198.774V107.718H206.857V91.6433Z" fill="white"/>
<path d="M206.857 75.5488H198.774V91.6432H206.857V75.5488Z" fill="white"/>
<path d="M206.857 67.5186H198.774V75.5489H206.857V67.5186Z" fill="#DEDEDE"/>
<path d="M206.857 59.4883H198.774V67.5186H206.857V59.4883Z" fill="#DEDEDE"/>
<path d="M206.857 51.4387H198.774V59.4883H206.857V51.4387Z" fill="white"/>
<path d="M206.857 43.4082H198.774V51.4386H206.857V43.4082Z" fill="white"/>
<path d="M206.857 35.3828H198.774V43.4132H206.857V35.3828Z" fill="#DEDEDE"/>
<path d="M206.857 27.314H198.774V35.3779H206.857V27.314Z" fill="#DEDEDE"/>
<path d="M206.857 19.2837H198.774V27.314H206.857V19.2837Z" fill="#DEDEDE"/>
<path d="M206.857 11.2581H198.774V19.2884H206.857V11.2581Z" fill="white"/>
<path d="M198.774 180.073H190.743V188.123H198.774V180.073Z" fill="white"/>
<path d="M198.774 172.043H190.743V180.073H198.774V172.043Z" fill="#DEDEDE"/>
<path d="M198.774 155.948H190.743V172.043H198.774V155.948Z" fill="white"/>
<path d="M198.774 147.918H190.743V155.949H198.774V147.918Z" fill="white"/>
<path d="M198.774 139.874H190.743V147.923H198.774V139.874Z" fill="white"/>
<path d="M198.774 123.813H190.743V139.873H198.774V123.813Z" fill="white"/>
<path d="M198.774 107.718H190.743V123.813H198.774V107.718Z" fill="white"/>
<path d="M198.774 91.6433H190.743V107.718H198.774V91.6433Z" fill="#DEDEDE"/>
<path d="M198.774 75.5488H190.743V91.6432H198.774V75.5488Z" fill="white"/>
<path d="M198.774 67.5186H190.743V75.5489H198.774V67.5186Z" fill="#DEDEDE"/>
<path d="M198.774 59.4883H190.743V67.5186H198.774V59.4883Z" fill="white"/>
<path d="M198.774 51.4387H190.743V59.4883H198.774V51.4387Z" fill="#DEDEDE"/>
<path d="M198.774 43.4082H190.743V51.4386H198.774V43.4082Z" fill="white"/>
<path d="M198.774 35.3828H190.743V43.4132H198.774V35.3828Z" fill="#DEDEDE"/>
<path d="M198.774 27.314H190.743V35.3779H198.774V27.314Z" fill="white"/>
<path d="M198.774 19.2837H190.743V27.314H198.774V19.2837Z" fill="#DEDEDE"/>
<path d="M198.774 11.2581H190.743V19.2884H198.774V11.2581Z" fill="white"/>
<path d="M190.743 180.073H182.713V188.123H190.743V180.073Z" fill="white"/>
<path d="M190.743 172.043H182.713V180.073H190.743V172.043Z" fill="white"/>
<path d="M190.743 155.948H182.713V172.043H190.743V155.948Z" fill="#DEDEDE"/>
<path d="M190.743 147.918H182.713V155.949H190.743V147.918Z" fill="#DEDEDE"/>
<path d="M190.743 139.874H182.713V147.923H190.743V139.874Z" fill="#DEDEDE"/>
<path d="M190.743 123.813H182.713V139.873H190.743V123.813Z" fill="white"/>
<path d="M190.743 107.718H182.713V123.813H190.743V107.718Z" fill="white"/>
<path d="M190.743 91.6433H182.713V107.718H190.743V91.6433Z" fill="white"/>
<path d="M190.743 75.5488H182.713V91.6432H190.743V75.5488Z" fill="white"/>
<path d="M190.743 67.5186H182.713V75.5489H190.743V67.5186Z" fill="white"/>
<path d="M190.743 59.4883H182.713V67.5186H190.743V59.4883Z" fill="white"/>
<path d="M190.743 51.4387H182.713V59.4883H190.743V51.4387Z" fill="white"/>
<path d="M190.743 43.4082H182.713V51.4386H190.743V43.4082Z" fill="white"/>
<path d="M190.743 35.3828H182.713V43.4132H190.743V35.3828Z" fill="white"/>
<path d="M190.743 27.314H182.713V35.3779H190.743V27.314Z" fill="white"/>
<path d="M190.743 19.2837H182.713V27.314H190.743V19.2837Z" fill="#DEDEDE"/>
<path d="M190.743 11.2581H182.713V19.2884H190.743V11.2581Z" fill="white"/>
<path d="M182.713 180.073H174.683V188.123H182.713V180.073Z" fill="white"/>
<path d="M182.713 172.043H174.683V180.073H182.713V172.043Z" fill="#DEDEDE"/>
<path d="M182.713 155.948H174.683V172.043H182.713V155.948Z" fill="white"/>
<path d="M182.713 147.918H174.683V155.949H182.713V147.918Z" fill="white"/>
<path d="M182.713 139.874H174.683V147.923H182.713V139.874Z" fill="white"/>
<path d="M182.713 123.813H174.683V139.873H182.713V123.813Z" fill="white"/>
<path d="M182.713 107.718H174.683V123.813H182.713V107.718Z" fill="white"/>
<path d="M182.713 91.6433H174.683V107.718H182.713V91.6433Z" fill="white"/>
<path d="M182.713 75.5488H174.683V91.6432H182.713V75.5488Z" fill="white"/>
<path d="M182.713 67.5186H174.683V75.5489H182.713V67.5186Z" fill="white"/>
<path d="M182.713 59.4883H174.683V67.5186H182.713V59.4883Z" fill="#DEDEDE"/>
<path d="M182.713 51.4387H174.683V59.4883H182.713V51.4387Z" fill="#DEDEDE"/>
<path d="M182.713 43.4082H174.683V51.4386H182.713V43.4082Z" fill="white"/>
<path d="M182.713 35.3828H174.683V43.4132H182.713V35.3828Z" fill="white"/>
<path d="M182.713 27.314H174.683V35.3779H182.713V27.314Z" fill="#DEDEDE"/>
<path d="M182.713 19.2837H174.683V27.314H182.713V19.2837Z" fill="white"/>
<path d="M182.713 11.2581H174.683V19.2884H182.713V11.2581Z" fill="white"/>
<path d="M174.687 180.073H166.657V188.123H174.687V180.073Z" fill="white"/>
<path d="M174.687 172.043H166.657V180.073H174.687V172.043Z" fill="#DEDEDE"/>
<path d="M174.687 155.948H166.657V172.043H174.687V155.948Z" fill="white"/>
<path d="M174.687 147.918H166.657V155.949H174.687V147.918Z" fill="white"/>
<path d="M174.687 139.874H166.657V147.923H174.687V139.874Z" fill="#DEDEDE"/>
<path d="M174.687 123.813H166.657V139.873H174.687V123.813Z" fill="white"/>
<path d="M174.687 107.718H166.657V123.813H174.687V107.718Z" fill="white"/>
<path d="M174.687 91.6433H166.657V107.718H174.687V91.6433Z" fill="#DEDEDE"/>
<path d="M174.687 75.5488H166.657V91.6432H174.687V75.5488Z" fill="white"/>
<path d="M174.687 67.5186H166.657V75.5489H174.687V67.5186Z" fill="#DEDEDE"/>
<path d="M174.687 59.4883H166.657V67.5186H174.687V59.4883Z" fill="#DEDEDE"/>
<path d="M174.687 51.4387H166.657V59.4883H174.687V51.4387Z" fill="#DEDEDE"/>
<path d="M174.687 43.4082H166.657V51.4386H174.687V43.4082Z" fill="#DEDEDE"/>
<path d="M174.687 35.3828H166.657V43.4132H174.687V35.3828Z" fill="#DEDEDE"/>
<path d="M174.687 27.314H166.657V35.3779H174.687V27.314Z" fill="#DEDEDE"/>
<path d="M174.687 19.2837H166.657V27.314H174.687V19.2837Z" fill="#DEDEDE"/>
<path d="M174.687 11.2581H166.657V19.2884H174.687V11.2581Z" fill="white"/>
<path d="M166.657 180.073H142.513V188.123H166.657V180.073Z" fill="white"/>
<path d="M166.657 172.043H142.513V180.073H166.657V172.043Z" fill="white"/>
<path d="M166.657 155.948H142.513V172.043H166.657V155.948Z" fill="white"/>
<path d="M166.657 147.918H142.513V155.949H166.657V147.918Z" fill="white"/>
<path d="M166.657 139.874H142.513V147.923H166.657V139.874Z" fill="#DEDEDE"/>
<path d="M166.657 123.813H142.513V139.873H166.657V123.813Z" fill="#DEDEDE"/>
<path d="M166.657 107.718H142.513V123.813H166.657V107.718Z" fill="#DEDEDE"/>
<path d="M166.657 91.6433H142.513V107.718H166.657V91.6433Z" fill="#DEDEDE"/>
<path d="M166.657 75.5488H142.513V91.6432H166.657V75.5488Z" fill="white"/>
<path d="M166.657 67.5186H142.513V75.5489H166.657V67.5186Z" fill="#DEDEDE"/>
<path d="M166.657 59.4883H142.513V67.5186H166.657V59.4883Z" fill="white"/>
<path d="M166.657 51.4387H142.513V59.4883H166.657V51.4387Z" fill="#DEDEDE"/>
<path d="M166.657 43.4082H142.513V51.4386H166.657V43.4082Z" fill="white"/>
<path d="M166.657 35.3828H142.513V43.4132H166.657V35.3828Z" fill="white"/>
<path d="M166.657 27.314H142.513V35.3779H166.657V27.314Z" fill="#DEDEDE"/>
<path d="M166.657 19.2837H142.513V27.314H166.657V19.2837Z" fill="white"/>
<path d="M166.657 11.2581H142.513V19.2884H166.657V11.2581Z" fill="white"/>
<path d="M142.513 180.073H134.483V188.123H142.513V180.073Z" fill="white"/>
<path d="M142.513 172.043H134.483V180.073H142.513V172.043Z" fill="#DEDEDE"/>
<path d="M142.513 155.948H134.483V172.043H142.513V155.948Z" fill="#DEDEDE"/>
<path d="M142.513 147.918H134.483V155.949H142.513V147.918Z" fill="#DEDEDE"/>
<path d="M142.513 139.874H134.483V147.923H142.513V139.874Z" fill="#DEDEDE"/>
<path d="M142.513 123.813H134.483V139.873H142.513V123.813Z" fill="white"/>
<path d="M142.513 107.718H134.483V123.813H142.513V107.718Z" fill="white"/>
<path d="M142.513 91.6433H134.483V107.718H142.513V91.6433Z" fill="white"/>
<path d="M142.513 75.5488H134.483V91.6432H142.513V75.5488Z" fill="white"/>
<path d="M142.513 67.5186H134.483V75.5489H142.513V67.5186Z" fill="#DEDEDE"/>
<path d="M142.513 59.4883H134.483V67.5186H142.513V59.4883Z" fill="white"/>
<path d="M142.513 51.4387H134.483V59.4883H142.513V51.4387Z" fill="#DEDEDE"/>
<path d="M142.513 43.4082H134.483V51.4386H142.513V43.4082Z" fill="#DEDEDE"/>
<path d="M142.513 35.3828H134.483V43.4132H142.513V35.3828Z" fill="#DEDEDE"/>
<path d="M142.513 27.314H134.483V35.3779H142.513V27.314Z" fill="#DEDEDE"/>
<path d="M142.513 19.2837H134.483V27.314H142.513V19.2837Z" fill="#DEDEDE"/>
<path d="M142.513 11.2581H134.483V19.2884H142.513V11.2581Z" fill="white"/>
<path d="M134.483 180.073H126.452V188.123H134.483V180.073Z" fill="white"/>
<path d="M134.483 172.043H126.452V180.073H134.483V172.043Z" fill="#DEDEDE"/>
<path d="M134.483 155.948H126.452V172.043H134.483V155.948Z" fill="white"/>
<path d="M134.483 147.918H126.452V155.949H134.483V147.918Z" fill="white"/>
<path d="M134.483 139.874H126.452V147.923H134.483V139.874Z" fill="#DEDEDE"/>
<path d="M134.483 123.813H126.452V139.873H134.483V123.813Z" fill="white"/>
<path d="M134.483 107.718H126.452V123.813H134.483V107.718Z" fill="white"/>
<path d="M134.483 91.6433H126.452V107.718H134.483V91.6433Z" fill="#DEDEDE"/>
<path d="M134.483 75.5488H126.452V91.6432H134.483V75.5488Z" fill="white"/>
<path d="M134.483 67.5186H126.452V75.5489H134.483V67.5186Z" fill="#DEDEDE"/>
<path d="M134.483 59.4883H126.452V67.5186H134.483V59.4883Z" fill="white"/>
<path d="M134.483 51.4387H126.452V59.4883H134.483V51.4387Z" fill="#DEDEDE"/>
<path d="M134.483 43.4082H126.452V51.4386H134.483V43.4082Z" fill="white"/>
<path d="M134.483 35.3828H126.452V43.4132H134.483V35.3828Z" fill="white"/>
<path d="M134.483 27.314H126.452V35.3779H134.483V27.314Z" fill="white"/>
<path d="M134.483 19.2837H126.452V27.314H134.483V19.2837Z" fill="#DEDEDE"/>
<path d="M134.483 11.2581H126.452V19.2884H134.483V11.2581Z" fill="white"/>
<path d="M126.452 180.073H118.566V188.123H126.452V180.073Z" fill="white"/>
<path d="M126.452 172.043H118.566V180.073H126.452V172.043Z" fill="#DEDEDE"/>
<path d="M126.452 155.948H118.566V172.043H126.452V155.948Z" fill="white"/>
<path d="M126.452 147.918H118.566V155.949H126.452V147.918Z" fill="white"/>
<path d="M126.452 139.874H118.566V147.923H126.452V139.874Z" fill="#DEDEDE"/>
<path d="M126.452 123.813H118.566V139.873H126.452V123.813Z" fill="#DEDEDE"/>
<path d="M126.452 107.718H118.566V123.813H126.452V107.718Z" fill="white"/>
<path d="M126.452 91.6433H118.566V107.718H126.452V91.6433Z" fill="#DEDEDE"/>
<path d="M126.452 75.5488H118.566V91.6432H126.452V75.5488Z" fill="white"/>
<path d="M126.452 67.5186H118.566V75.5489H126.452V67.5186Z" fill="white"/>
<path d="M126.452 59.4883H118.566V67.5186H126.452V59.4883Z" fill="white"/>
<path d="M126.452 51.4387H118.566V59.4883H126.452V51.4387Z" fill="#DEDEDE"/>
<path d="M126.452 43.4082H118.566V51.4386H126.452V43.4082Z" fill="white"/>
<path d="M126.452 35.3828H118.566V43.4132H126.452V35.3828Z" fill="#DEDEDE"/>
<path d="M126.452 27.314H118.566V35.3779H126.452V27.314Z" fill="white"/>
<path d="M126.452 19.2837H118.566V27.314H126.452V19.2837Z" fill="#DEDEDE"/>
<path d="M126.452 11.2581V19.2836H118.566V11.6999V11.2581H126.452Z" fill="white"/>
<path d="M118.561 180.073H110.339V188.123H118.561V180.073Z" fill="white"/>
<path d="M118.561 172.043H110.339V180.073H118.561V172.043Z" fill="#DEDEDE"/>
<path d="M118.561 155.948H110.339V172.043H118.561V155.948Z" fill="white"/>
<path d="M118.561 147.918H110.339V155.949H118.561V147.918Z" fill="white"/>
<path d="M118.561 139.874H110.339V147.923H118.561V139.874Z" fill="#DEDEDE"/>
<path d="M118.561 123.813H110.339V139.873H118.561V123.813Z" fill="white"/>
<path d="M118.561 107.718H110.339V123.813H118.561V107.718Z" fill="#DEDEDE"/>
<path d="M118.561 91.6433H110.339V107.718H118.561V91.6433Z" fill="#DEDEDE"/>
<path d="M118.561 75.5488H110.339V91.6432H118.561V75.5488Z" fill="#DEDEDE"/>
<path d="M118.561 67.5186H110.339V75.5489H118.561V67.5186Z" fill="#DEDEDE"/>
<path d="M118.561 59.4883H110.339V67.5186H118.561V59.4883Z" fill="white"/>
<path d="M118.561 51.4387H110.339V59.4883H118.561V51.4387Z" fill="#DEDEDE"/>
<path d="M118.561 43.4082H110.339V51.4386H118.561V43.4082Z" fill="white"/>
<path d="M118.561 35.3828H110.339V43.4132H118.561V35.3828Z" fill="white"/>
<path d="M118.561 27.314H110.339V35.3779H118.561V27.314Z" fill="white"/>
<path d="M118.561 19.2837H110.339V27.314H118.561V19.2837Z" fill="#DEDEDE"/>
<path d="M118.566 11.6999V19.2836H110.339V11.2581H118.566V11.6999Z" fill="white"/>
<path d="M110.344 180.073H102.313V188.123H110.344V180.073Z" fill="white"/>
<path d="M110.344 172.043H102.313V180.073H110.344V172.043Z" fill="#DEDEDE"/>
<path d="M110.344 155.948H102.313V172.043H110.344V155.948Z" fill="#DEDEDE"/>
<path d="M110.344 147.918H102.313V155.949H110.344V147.918Z" fill="#DEDEDE"/>
<path d="M110.344 139.874H102.313V147.923H110.344V139.874Z" fill="#DEDEDE"/>
<path d="M110.344 123.813H102.313V139.873H110.344V123.813Z" fill="#DEDEDE"/>
<path d="M110.344 107.718H102.313V123.813H110.344V107.718Z" fill="white"/>
<path d="M110.344 91.6433H102.313V107.718H110.344V91.6433Z" fill="#DEDEDE"/>
<path d="M110.344 75.5488H102.313V91.6432H110.344V75.5488Z" fill="#DEDEDE"/>
<path d="M110.344 67.5186H102.313V75.5489H110.344V67.5186Z" fill="#DEDEDE"/>
<path d="M110.344 59.4883H102.313V67.5186H110.344V59.4883Z" fill="white"/>
<path d="M110.344 51.4387H102.313V59.4883H110.344V51.4387Z" fill="#DEDEDE"/>
<path d="M110.344 43.4082H102.313V51.4386H110.344V43.4082Z" fill="#DEDEDE"/>
<path d="M110.344 35.3828H102.313V43.4132H110.344V35.3828Z" fill="#DEDEDE"/>
<path d="M110.344 27.314H102.313V35.3779H110.344V27.314Z" fill="#DEDEDE"/>
<path d="M110.344 19.2837H102.313V27.314H110.344V19.2837Z" fill="#DEDEDE"/>
<path d="M110.344 11.2581H102.313V19.2884H110.344V11.2581Z" fill="white"/>
<path d="M102.313 180.073H94.283V188.123H102.313V180.073Z" fill="white"/>
<path d="M102.313 172.043H94.283V180.073H102.313V172.043Z" fill="white"/>
<path d="M102.313 155.948H94.283V172.043H102.313V155.948Z" fill="white"/>
<path d="M102.313 147.918H94.283V155.949H102.313V147.918Z" fill="white"/>
<path d="M102.313 139.874H94.283V147.923H102.313V139.874Z" fill="white"/>
<path d="M102.313 123.813H94.283V139.873H102.313V123.813Z" fill="white"/>
<path d="M102.313 107.718H94.283V123.813H102.313V107.718Z" fill="white"/>
<path d="M102.313 91.6433H94.283V107.718H102.313V91.6433Z" fill="white"/>
<path d="M102.313 75.5488H94.283V91.6432H102.313V75.5488Z" fill="white"/>
<path d="M102.313 67.5186H94.283V75.5489H102.313V67.5186Z" fill="white"/>
<path d="M102.313 59.4883H94.283V67.5186H102.313V59.4883Z" fill="white"/>
<path d="M102.313 51.4387H94.283V59.4883H102.313V51.4387Z" fill="white"/>
<path d="M102.313 43.4082H94.283V51.4386H102.313V43.4082Z" fill="white"/>
<path d="M102.313 35.3828H94.283V43.4132H102.313V35.3828Z" fill="white"/>
<path d="M102.313 27.314H94.283V35.3779H102.313V27.314Z" fill="white"/>
<path d="M102.313 19.2837H94.283V27.314H102.313V19.2837Z" fill="white"/>
<path d="M102.313 11.2581H94.283V19.2884H102.313V11.2581Z" fill="white"/>
<path d="M126.865 155.459H117.567V164.757H126.865V155.459Z" fill="#DEDEDE"/>
<path d="M220.415 147.952H144.91V156.381H220.415V147.952Z" fill="#DEDEDE"/>
<path d="M220.415 163.676H144.91V172.105H220.415V163.676Z" fill="#DEDEDE"/>
<path d="M182.689 123.577H139.142V131.2H182.689V123.577Z" fill="white"/>
<path d="M245.457 83.9443H201.91V91.5664H245.457V83.9443Z" fill="white"/>
<path d="M194.638 156.275H170.687V172.605H194.638V156.275Z" fill="#DEDEDE"/>
<path d="M186.522 57.0146H178.803V80.8848H186.522V57.0146Z" fill="#DEDEDE"/>
<path d="M118.105 131.656H109.998V139.763H118.105V131.656Z" fill="white"/>
<path d="M110.171 92.1523H102.289V100.034H110.171V92.1523Z" fill="white"/>
<path d="M126.453 91.6433H118.571V99.5248H126.453V91.6433Z" fill="white"/>
<path d="M150.491 75.3184H142.609V83.1998H150.491V75.3184Z" fill="#DEDEDE"/>
<path d="M150.15 107.992H142.268V115.874H150.15V107.992Z" fill="white"/>
<path d="M190.887 124.101H183.006V131.982H190.887V124.101Z" fill="#DEDEDE"/>
<path d="M238.901 123.616H231.02V131.497H238.901V123.616Z" fill="#DEDEDE"/>
<path d="M239.041 147.875H231.159V155.756H239.041V147.875Z" fill="#DEDEDE"/>
<path d="M246.807 164.502H238.925V172.384H246.807V164.502Z" fill="#DEDEDE"/>
<path d="M97.4769 7.30521H50.6204C48.6032 7.30521 46.9702 5.67224 46.9702 3.65504C46.9702 1.63785 48.6032 0.00488281 50.6204 0.00488281H97.4769C99.4941 0.00488281 101.127 1.63785 101.127 3.65504C101.127 5.66744 99.4941 7.30521 97.4769 7.30521Z" fill="#DEDEDE"/>
<path d="M325.679 7.85745H278.823C276.806 7.85745 275.173 6.22449 275.173 4.20729C275.173 2.1901 276.806 0.557129 278.823 0.557129H325.679C327.696 0.557129 329.329 2.1901 329.329 4.20729C329.329 6.22449 327.692 7.85745 325.679 7.85745Z" fill="#DEDEDE"/>
<path d="M241.629 7.3389H120.838C118.821 7.3389 117.188 5.70593 117.188 3.68874C117.188 1.67154 118.821 0.0385742 120.838 0.0385742H241.629C243.647 0.0385742 245.28 1.67154 245.28 3.68874C245.284 5.70113 243.647 7.3389 241.629 7.3389Z" fill="#DEDEDE"/>
<path d="M97.4769 202.598H50.6204C48.6032 202.598 46.9702 200.965 46.9702 198.948C46.9702 196.931 48.6032 195.298 50.6204 195.298H97.4769C99.4941 195.298 101.127 196.931 101.127 198.948C101.127 200.961 99.4941 202.598 97.4769 202.598Z" fill="#DEDEDE"/>
<path d="M325.679 202.598H278.823C276.806 202.598 275.173 200.965 275.173 198.948C275.173 196.931 276.806 195.298 278.823 195.298H325.679C327.696 195.298 329.329 196.931 329.329 198.948C329.329 200.961 327.692 202.598 325.679 202.598Z" fill="#DEDEDE"/>
<path d="M241.629 202.598H120.838C118.821 202.598 117.188 200.965 117.188 198.948C117.188 196.931 118.821 195.298 120.838 195.298H241.629C243.647 195.298 245.28 196.931 245.28 198.948C245.284 200.961 243.647 202.598 241.629 202.598Z" fill="#DEDEDE"/>
<path d="M327.519 214.634H50.6204C48.6032 214.634 46.9702 213.001 46.9702 210.984C46.9702 208.967 48.6032 207.334 50.6204 207.334H327.514C329.531 207.334 331.164 208.967 331.164 210.984C331.169 212.997 329.536 214.634 327.519 214.634Z" fill="#DEDEDE"/>
<path d="M128.739 84.1796L84.5574 114.241L84.3557 114.38L81.474 116.339L79.0102 124.149V124.154L69.3132 154.868C69.3132 154.868 63.8236 157.514 56.139 161.246C56.0429 161.294 55.9421 161.342 55.8412 161.39C41.0437 168.58 18.379 179.641 10.8962 183.618C9.41214 184.405 8.52361 184.914 8.41315 185.059C8.43236 184.79 8.35071 182.945 8.20662 180.083C7.52462 166.644 5.44019 130.791 5.44019 130.791C10.7473 128.294 15.7375 124.735 20.3242 120.628C32.9461 109.327 42.5229 93.8525 47.3258 84.7751C47.9934 83.512 48.7474 82.3017 49.5783 81.1586L49.5831 81.1538C53.5887 75.6113 59.3761 71.5385 66.0377 69.6462L104.254 58.7773L106.799 61.4189L128.739 84.1796Z" fill="#E07B51"/>
<path d="M111.496 52.4807C111.496 52.4807 35.9381 80.2411 58.1224 110.24C80.3067 140.238 93.0535 104.03 131.443 76.2404C137.73 71.6921 111.496 52.4807 111.496 52.4807Z" fill="#B56442"/>
<path d="M103.855 72.9792C103.855 72.9792 90.8442 85.2169 88.366 89.4002C88.366 89.4002 98.1253 81.6532 104.941 79.3334C111.756 77.0088 103.855 72.9792 103.855 72.9792Z" fill="#9C5639"/>
<path d="M104.633 89.698L91.6174 98.2182L103.082 94.5008L104.633 89.698Z" fill="#9C5639"/>
<path d="M252.474 140.032H110.329C104.576 140.032 99.9121 135.368 99.9121 129.614V65.0978C99.9121 59.344 104.576 54.6804 110.329 54.6804H252.474C258.228 54.6804 262.892 59.344 262.892 65.0978V129.619C262.892 135.368 258.228 140.032 252.474 140.032Z" fill="#1E0B02"/>
<path d="M260.01 65.0977V129.614C260.01 133.769 256.629 137.15 252.474 137.15H110.329C106.175 137.15 102.794 133.769 102.794 129.614V65.0977C102.794 60.9432 106.175 57.562 110.329 57.562H252.474C256.629 57.562 260.01 60.9432 260.01 65.0977Z" fill="#0096DB"/>
<path d="M210.699 122.521H208.178V125.047H210.699V122.521Z" fill="white"/>
<path d="M210.699 120.004H208.178V122.525H210.699V120.004Z" fill="white"/>
<path d="M210.699 114.951H208.178V120.004H210.699V114.951Z" fill="white"/>
<path d="M210.699 112.43H208.178V114.951H210.699V112.43Z" fill="white"/>
<path d="M210.699 109.908H208.178V112.435H210.699V109.908Z" fill="white"/>
<path d="M210.699 104.865H208.178V109.904H210.699V104.865Z" fill="white"/>
<path d="M210.699 99.8176H208.178V104.87H210.699V99.8176Z" fill="white"/>
<path d="M210.699 94.7698H208.178V99.8176H210.699V94.7698Z" fill="white"/>
<path d="M210.699 89.7173H208.178V94.7699H210.699V89.7173Z" fill="white"/>
<path d="M210.699 87.2007H208.178V89.7222H210.699V87.2007Z" fill="white"/>
<path d="M210.699 84.6792H208.178V87.2007H210.699V84.6792Z" fill="white"/>
<path d="M210.699 82.1528H208.178V84.6791H210.699V82.1528Z" fill="white"/>
<path d="M210.699 79.6313H208.178V82.1528H210.699V79.6313Z" fill="white"/>
<path d="M210.699 77.1145H208.178V79.636H210.699V77.1145Z" fill="white"/>
<path d="M210.699 74.5835H208.178V77.1146H210.699V74.5835Z" fill="white"/>
<path d="M210.699 72.062H208.178V74.5835H210.699V72.062Z" fill="white"/>
<path d="M210.699 69.5405H208.178V72.062H210.699V69.5405Z" fill="white"/>
<path d="M208.178 122.521H205.656V125.047H208.178V122.521Z" fill="white"/>
<path d="M208.178 120.004H205.656V122.525H208.178V120.004Z" fill="#1E0B02"/>
<path d="M208.178 114.951H205.656V120.004H208.178V114.951Z" fill="#1E0B02"/>
<path d="M208.178 112.43H205.656V114.951H208.178V112.43Z" fill="white"/>
<path d="M208.178 109.908H205.656V112.435H208.178V109.908Z" fill="#1E0B02"/>
<path d="M208.178 104.865H205.656V109.904H208.178V104.865Z" fill="#1E0B02"/>
<path d="M208.178 99.8176H205.656V104.87H208.178V99.8176Z" fill="#1E0B02"/>
<path d="M208.178 94.7698H205.656V99.8176H208.178V94.7698Z" fill="#1E0B02"/>
<path d="M208.178 89.7173H205.656V94.7699H208.178V89.7173Z" fill="#1E0B02"/>
<path d="M208.178 87.2007H205.656V89.7222H208.178V87.2007Z" fill="#1E0B02"/>
<path d="M208.178 84.6792H205.656V87.2007H208.178V84.6792Z" fill="white"/>
<path d="M208.178 82.1528H205.656V84.6791H208.178V82.1528Z" fill="#1E0B02"/>
<path d="M208.178 79.6313H205.656V82.1528H208.178V79.6313Z" fill="#1E0B02"/>
<path d="M208.178 77.1145H205.656V79.636H208.178V77.1145Z" fill="#1E0B02"/>
<path d="M208.178 74.5835H205.656V77.1146H208.178V74.5835Z" fill="#1E0B02"/>
<path d="M208.178 72.062H205.656V74.5835H208.178V72.062Z" fill="#1E0B02"/>
<path d="M208.178 69.5405H205.656V72.062H208.178V69.5405Z" fill="white"/>
<path d="M205.656 122.521H203.12V125.047H205.656V122.521Z" fill="white"/>
<path d="M205.656 120.004H203.12V122.525H205.656V120.004Z" fill="white"/>
<path d="M205.656 114.951H203.12V120.004H205.656V114.951Z" fill="white"/>
<path d="M205.656 112.43H203.12V114.951H205.656V112.43Z" fill="#1E0B02"/>
<path d="M205.656 109.908H203.12V112.435H205.656V109.908Z" fill="white"/>
<path d="M205.656 104.865H203.12V109.904H205.656V104.865Z" fill="white"/>
<path d="M205.656 99.8176H203.12V104.87H205.656V99.8176Z" fill="#1E0B02"/>
<path d="M205.656 94.7698H203.12V99.8176H205.656V94.7698Z" fill="#1E0B02"/>
<path d="M205.656 89.7173H203.12V94.7699H205.656V89.7173Z" fill="#1E0B02"/>
<path d="M205.656 87.2007H203.12V89.7222H205.656V87.2007Z" fill="white"/>
<path d="M205.656 84.6792H203.12V87.2007H205.656V84.6792Z" fill="white"/>
<path d="M205.656 82.1528H203.12V84.6791H205.656V82.1528Z" fill="#1E0B02"/>
<path d="M205.656 79.6313H203.12V82.1528H205.656V79.6313Z" fill="white"/>
<path d="M205.656 77.1145H203.12V79.636H205.656V77.1145Z" fill="white"/>
<path d="M205.656 74.5835H203.12V77.1146H205.656V74.5835Z" fill="white"/>
<path d="M205.656 72.062H203.12V74.5835H205.656V72.062Z" fill="#1E0B02"/>
<path d="M205.656 69.5405H203.12V72.062H205.656V69.5405Z" fill="white"/>
<path d="M203.12 122.521H200.599V125.047H203.12V122.521Z" fill="white"/>
<path d="M203.12 120.004H200.599V122.525H203.12V120.004Z" fill="#1E0B02"/>
<path d="M203.12 114.951H200.599V120.004H203.12V114.951Z" fill="white"/>
<path d="M203.12 112.43H200.599V114.951H203.12V112.43Z" fill="white"/>
<path d="M203.12 109.908H200.599V112.435H203.12V109.908Z" fill="#1E0B02"/>
<path d="M203.12 104.865H200.599V109.904H203.12V104.865Z" fill="white"/>
<path d="M203.12 99.8176H200.599V104.87H203.12V99.8176Z" fill="#1E0B02"/>
<path d="M203.12 94.7698H200.599V99.8176H203.12V94.7698Z" fill="#1E0B02"/>
<path d="M203.12 89.7173H200.599V94.7699H203.12V89.7173Z" fill="#1E0B02"/>
<path d="M203.12 87.2007H200.599V89.7222H203.12V87.2007Z" fill="white"/>
<path d="M203.12 84.6792H200.599V87.2007H203.12V84.6792Z" fill="white"/>
<path d="M203.12 82.1528H200.599V84.6791H203.12V82.1528Z" fill="#1E0B02"/>
<path d="M203.12 79.6313H200.599V82.1528H203.12V79.6313Z" fill="white"/>
<path d="M203.12 77.1145H200.599V79.636H203.12V77.1145Z" fill="#1E0B02"/>
<path d="M203.12 74.5835H200.599V77.1146H203.12V74.5835Z" fill="white"/>
<path d="M203.12 72.062H200.599V74.5835H203.12V72.062Z" fill="#1E0B02"/>
<path d="M203.12 69.5405H200.599V72.062H203.12V69.5405Z" fill="white"/>
<path d="M200.599 122.521H198.077V125.047H200.599V122.521Z" fill="white"/>
<path d="M200.599 120.004H198.077V122.525H200.599V120.004Z" fill="#1E0B02"/>
<path d="M200.599 114.951H198.077V120.004H200.599V114.951Z" fill="white"/>
<path d="M200.599 112.43H198.077V114.951H200.599V112.43Z" fill="white"/>
<path d="M200.599 109.908H198.077V112.435H200.599V109.908Z" fill="white"/>
<path d="M200.599 104.865H198.077V109.904H200.599V104.865Z" fill="white"/>
<path d="M200.599 99.8176H198.077V104.87H200.599V99.8176Z" fill="white"/>
<path d="M200.599 94.7698H198.077V99.8176H200.599V94.7698Z" fill="white"/>
<path d="M200.599 89.7173H198.077V94.7699H200.599V89.7173Z" fill="#1E0B02"/>
<path d="M200.599 87.2007H198.077V89.7222H200.599V87.2007Z" fill="white"/>
<path d="M200.599 84.6792H198.077V87.2007H200.599V84.6792Z" fill="white"/>
<path d="M200.599 82.1528H198.077V84.6791H200.599V82.1528Z" fill="#1E0B02"/>
<path d="M200.599 79.6313H198.077V82.1528H200.599V79.6313Z" fill="white"/>
<path d="M200.599 77.1145H198.077V79.636H200.599V77.1145Z" fill="white"/>
<path d="M200.599 74.5835H198.077V77.1146H200.599V74.5835Z" fill="white"/>
<path d="M200.599 72.062H198.077V74.5835H200.599V72.062Z" fill="#1E0B02"/>
<path d="M200.599 69.5405H198.077V72.062H200.599V69.5405Z" fill="white"/>
<path d="M198.082 122.521H195.561V125.047H198.082V122.521Z" fill="white"/>
<path d="M198.082 120.004H195.561V122.525H198.082V120.004Z" fill="#1E0B02"/>
<path d="M198.082 114.951H195.561V120.004H198.082V114.951Z" fill="white"/>
<path d="M198.082 112.43H195.561V114.951H198.082V112.43Z" fill="white"/>
<path d="M198.082 109.908H195.561V112.435H198.082V109.908Z" fill="white"/>
<path d="M198.082 104.865H195.561V109.904H198.082V104.865Z" fill="white"/>
<path d="M198.082 99.8176H195.561V104.87H198.082V99.8176Z" fill="white"/>
<path d="M198.082 94.7698H195.561V99.8176H198.082V94.7698Z" fill="#1E0B02"/>
<path d="M198.082 89.7173H195.561V94.7699H198.082V89.7173Z" fill="#1E0B02"/>
<path d="M198.082 87.2007H195.561V89.7222H198.082V87.2007Z" fill="#1E0B02"/>
<path d="M198.082 84.6792H195.561V87.2007H198.082V84.6792Z" fill="white"/>
<path d="M198.082 82.1528H195.561V84.6791H198.082V82.1528Z" fill="#1E0B02"/>
<path d="M198.082 79.6313H195.561V82.1528H198.082V79.6313Z" fill="#1E0B02"/>
<path d="M198.082 77.1145H195.561V79.636H198.082V77.1145Z" fill="#1E0B02"/>
<path d="M198.082 74.5835H195.561V77.1146H198.082V74.5835Z" fill="#1E0B02"/>
<path d="M198.082 72.062H195.561V74.5835H198.082V72.062Z" fill="#1E0B02"/>
<path d="M198.082 69.5405H195.561V72.062H198.082V69.5405Z" fill="white"/>
<path d="M195.561 122.521H193.039V125.047H195.561V122.521Z" fill="white"/>
<path d="M195.561 120.004H193.039V122.525H195.561V120.004Z" fill="#1E0B02"/>
<path d="M195.561 114.951H193.039V120.004H195.561V114.951Z" fill="white"/>
<path d="M195.561 112.43H193.039V114.951H195.561V112.43Z" fill="white"/>
<path d="M195.561 109.908H193.039V112.435H195.561V109.908Z" fill="white"/>
<path d="M195.561 104.865H193.039V109.904H195.561V104.865Z" fill="#1E0B02"/>
<path d="M195.561 99.8176H193.039V104.87H195.561V99.8176Z" fill="white"/>
<path d="M195.561 94.7698H193.039V99.8176H195.561V94.7698Z" fill="white"/>
<path d="M195.561 89.7173H193.039V94.7699H195.561V89.7173Z" fill="white"/>
<path d="M195.561 87.2007H193.039V89.7222H195.561V87.2007Z" fill="white"/>
<path d="M195.561 84.6792H193.039V87.2007H195.561V84.6792Z" fill="white"/>
<path d="M195.561 82.1528H193.039V84.6791H195.561V82.1528Z" fill="white"/>
<path d="M195.561 79.6313H193.039V82.1528H195.561V79.6313Z" fill="white"/>
<path d="M195.561 77.1145H193.039V79.636H195.561V77.1145Z" fill="white"/>
<path d="M195.561 74.5835H193.039V77.1146H195.561V74.5835Z" fill="white"/>
<path d="M195.561 72.062H193.039V74.5835H195.561V72.062Z" fill="white"/>
<path d="M195.561 69.5405H193.039V72.062H195.561V69.5405Z" fill="white"/>
<path d="M193.039 122.521H190.518V125.047H193.039V122.521Z" fill="white"/>
<path d="M193.039 120.004H190.518V122.525H193.039V120.004Z" fill="#1E0B02"/>
<path d="M193.039 114.951H190.518V120.004H193.039V114.951Z" fill="white"/>
<path d="M193.039 112.43H190.518V114.951H193.039V112.43Z" fill="white"/>
<path d="M193.039 109.908H190.518V112.435H193.039V109.908Z" fill="#1E0B02"/>
<path d="M193.039 104.865H190.518V109.904H193.039V104.865Z" fill="#1E0B02"/>
<path d="M193.039 99.8176H190.518V104.87H193.039V99.8176Z" fill="#1E0B02"/>
<path d="M193.039 94.7698H190.518V99.8176H193.039V94.7698Z" fill="#1E0B02"/>
<path d="M193.039 89.7173H190.518V94.7699H193.039V89.7173Z" fill="white"/>
<path d="M193.039 87.2007H190.518V89.7222H193.039V87.2007Z" fill="#1E0B02"/>
<path d="M193.039 84.6792H190.518V87.2007H193.039V84.6792Z" fill="white"/>
<path d="M193.039 82.1528H190.518V84.6791H193.039V82.1528Z" fill="white"/>
<path d="M193.039 79.6313H190.518V82.1528H193.039V79.6313Z" fill="#1E0B02"/>
<path d="M193.039 77.1145H190.518V79.636H193.039V77.1145Z" fill="white"/>
<path d="M193.039 74.5835H190.518V77.1146H193.039V74.5835Z" fill="white"/>
<path d="M193.039 72.062H190.518V74.5835H193.039V72.062Z" fill="#1E0B02"/>
<path d="M193.039 69.5405H190.518V72.062H193.039V69.5405Z" fill="white"/>
<path d="M190.518 122.521H187.982V125.047H190.518V122.521Z" fill="white"/>
<path d="M190.518 120.004H187.982V122.525H190.518V120.004Z" fill="white"/>
<path d="M190.518 114.951H187.982V120.004H190.518V114.951Z" fill="white"/>
<path d="M190.518 112.43H187.982V114.951H190.518V112.43Z" fill="white"/>
<path d="M190.518 109.908H187.982V112.435H190.518V109.908Z" fill="#1E0B02"/>
<path d="M190.518 104.865H187.982V109.904H190.518V104.865Z" fill="white"/>
<path d="M190.518 99.8176H187.982V104.87H190.518V99.8176Z" fill="#1E0B02"/>
<path d="M190.518 94.7698H187.982V99.8176H190.518V94.7698Z" fill="white"/>
<path d="M190.518 89.7173H187.982V94.7699H190.518V89.7173Z" fill="white"/>
<path d="M190.518 87.2007H187.982V89.7222H190.518V87.2007Z" fill="#1E0B02"/>
<path d="M190.518 84.6792H187.982V87.2007H190.518V84.6792Z" fill="#1E0B02"/>
<path d="M190.518 82.1528H187.982V84.6791H190.518V82.1528Z" fill="white"/>
<path d="M190.518 79.6313H187.982V82.1528H190.518V79.6313Z" fill="white"/>
<path d="M190.518 77.1145H187.982V79.636H190.518V77.1145Z" fill="#1E0B02"/>
<path d="M190.518 74.5835H187.982V77.1146H190.518V74.5835Z" fill="#1E0B02"/>
<path d="M190.518 72.062H187.982V74.5835H190.518V72.062Z" fill="#1E0B02"/>
<path d="M190.518 69.5405H187.982V72.062H190.518V69.5405Z" fill="white"/>
<path d="M187.982 122.521H185.46V125.047H187.982V122.521Z" fill="white"/>
<path d="M187.982 120.004H185.46V122.525H187.982V120.004Z" fill="#1E0B02"/>
<path d="M187.982 114.951H185.46V120.004H187.982V114.951Z" fill="white"/>
<path d="M187.982 112.43H185.46V114.951H187.982V112.43Z" fill="white"/>
<path d="M187.982 109.908H185.46V112.435H187.982V109.908Z" fill="white"/>
<path d="M187.982 104.865H185.46V109.904H187.982V104.865Z" fill="white"/>
<path d="M187.982 99.8176H185.46V104.87H187.982V99.8176Z" fill="white"/>
<path d="M187.982 94.7698H185.46V99.8176H187.982V94.7698Z" fill="#1E0B02"/>
<path d="M187.982 89.7173H185.46V94.7699H187.982V89.7173Z" fill="white"/>
<path d="M187.982 87.2007H185.46V89.7222H187.982V87.2007Z" fill="#1E0B02"/>
<path d="M187.982 84.6792H185.46V87.2007H187.982V84.6792Z" fill="white"/>
<path d="M187.982 82.1528H185.46V84.6791H187.982V82.1528Z" fill="#1E0B02"/>
<path d="M187.982 79.6313H185.46V82.1528H187.982V79.6313Z" fill="white"/>
<path d="M187.982 77.1145H185.46V79.636H187.982V77.1145Z" fill="#1E0B02"/>
<path d="M187.982 74.5835H185.46V77.1146H187.982V74.5835Z" fill="white"/>
<path d="M187.982 72.062H185.46V74.5835H187.982V72.062Z" fill="#1E0B02"/>
<path d="M187.982 69.5405H185.46V72.062H187.982V69.5405Z" fill="white"/>
<path d="M185.465 122.521H182.944V125.047H185.465V122.521Z" fill="white"/>
<path d="M185.465 120.004H182.944V122.525H185.465V120.004Z" fill="white"/>
<path d="M185.465 114.951H182.944V120.004H185.465V114.951Z" fill="#1E0B02"/>
<path d="M185.465 112.43H182.944V114.951H185.465V112.43Z" fill="#1E0B02"/>
<path d="M185.465 109.908H182.944V112.435H185.465V109.908Z" fill="#1E0B02"/>
<path d="M185.465 104.865H182.944V109.904H185.465V104.865Z" fill="white"/>
<path d="M185.465 99.8176H182.944V104.87H185.465V99.8176Z" fill="white"/>
<path d="M185.465 94.7698H182.944V99.8176H185.465V94.7698Z" fill="white"/>
<path d="M185.465 89.7173H182.944V94.7699H185.465V89.7173Z" fill="white"/>
<path d="M185.465 87.2007H182.944V89.7222H185.465V87.2007Z" fill="white"/>
<path d="M185.465 84.6792H182.944V87.2007H185.465V84.6792Z" fill="white"/>
<path d="M185.465 82.1528H182.944V84.6791H185.465V82.1528Z" fill="white"/>
<path d="M185.465 79.6313H182.944V82.1528H185.465V79.6313Z" fill="white"/>
<path d="M185.465 77.1145H182.944V79.636H185.465V77.1145Z" fill="white"/>
<path d="M185.465 74.5835H182.944V77.1146H185.465V74.5835Z" fill="white"/>
<path d="M185.465 72.062H182.944V74.5835H185.465V72.062Z" fill="#1E0B02"/>
<path d="M185.465 69.5405H182.944V72.062H185.465V69.5405Z" fill="white"/>
<path d="M182.944 122.521H180.422V125.047H182.944V122.521Z" fill="white"/>
<path d="M182.944 120.004H180.422V122.525H182.944V120.004Z" fill="#1E0B02"/>
<path d="M182.944 114.951H180.422V120.004H182.944V114.951Z" fill="white"/>
<path d="M182.944 112.43H180.422V114.951H182.944V112.43Z" fill="white"/>
<path d="M182.944 109.908H180.422V112.435H182.944V109.908Z" fill="white"/>
<path d="M182.944 104.865H180.422V109.904H182.944V104.865Z" fill="white"/>
<path d="M182.944 99.8176H180.422V104.87H182.944V99.8176Z" fill="white"/>
<path d="M182.944 94.7698H180.422V99.8176H182.944V94.7698Z" fill="white"/>
<path d="M182.944 89.7173H180.422V94.7699H182.944V89.7173Z" fill="white"/>
<path d="M182.944 87.2007H180.422V89.7222H182.944V87.2007Z" fill="white"/>
<path d="M182.944 84.6792H180.422V87.2007H182.944V84.6792Z" fill="#1E0B02"/>
<path d="M182.944 82.1528H180.422V84.6791H182.944V82.1528Z" fill="#1E0B02"/>
<path d="M182.944 79.6313H180.422V82.1528H182.944V79.6313Z" fill="white"/>
<path d="M182.944 77.1145H180.422V79.636H182.944V77.1145Z" fill="white"/>
<path d="M182.944 74.5835H180.422V77.1146H182.944V74.5835Z" fill="#1E0B02"/>
<path d="M182.944 72.062H180.422V74.5835H182.944V72.062Z" fill="white"/>
<path d="M182.944 69.5405H180.422V72.062H182.944V69.5405Z" fill="white"/>
<path d="M180.422 122.521H177.901V125.047H180.422V122.521Z" fill="white"/>
<path d="M180.422 120.004H177.901V122.525H180.422V120.004Z" fill="#1E0B02"/>
<path d="M180.422 114.951H177.901V120.004H180.422V114.951Z" fill="white"/>
<path d="M180.422 112.43H177.901V114.951H180.422V112.43Z" fill="white"/>
<path d="M180.422 109.908H177.901V112.435H180.422V109.908Z" fill="#1E0B02"/>
<path d="M180.422 104.865H177.901V109.904H180.422V104.865Z" fill="white"/>
<path d="M180.422 99.8176H177.901V104.87H180.422V99.8176Z" fill="white"/>
<path d="M180.422 94.7698H177.901V99.8176H180.422V94.7698Z" fill="#1E0B02"/>
<path d="M180.422 89.7173H177.901V94.7699H180.422V89.7173Z" fill="white"/>
<path d="M180.422 87.2007H177.901V89.7222H180.422V87.2007Z" fill="#1E0B02"/>
<path d="M180.422 84.6792H177.901V87.2007H180.422V84.6792Z" fill="#1E0B02"/>
<path d="M180.422 82.1528H177.901V84.6791H180.422V82.1528Z" fill="#1E0B02"/>
<path d="M180.422 79.6313H177.901V82.1528H180.422V79.6313Z" fill="#1E0B02"/>
<path d="M180.422 77.1145H177.901V79.636H180.422V77.1145Z" fill="#1E0B02"/>
<path d="M180.422 74.5835H177.901V77.1146H180.422V74.5835Z" fill="#1E0B02"/>
<path d="M180.422 72.062H177.901V74.5835H180.422V72.062Z" fill="#1E0B02"/>
<path d="M180.422 69.5405H177.901V72.062H180.422V69.5405Z" fill="white"/>
<path d="M177.906 122.521H170.327V125.047H177.906V122.521Z" fill="white"/>
<path d="M177.906 120.004H170.327V122.525H177.906V120.004Z" fill="white"/>
<path d="M177.906 114.951H170.327V120.004H177.906V114.951Z" fill="white"/>
<path d="M177.906 112.43H170.327V114.951H177.906V112.43Z" fill="white"/>
<path d="M177.906 109.908H170.327V112.435H177.906V109.908Z" fill="#1E0B02"/>
<path d="M177.906 104.865H170.327V109.904H177.906V104.865Z" fill="#1E0B02"/>
<path d="M177.906 99.8176H170.327V104.87H177.906V99.8176Z" fill="#1E0B02"/>
<path d="M177.906 94.7698H170.327V99.8176H177.906V94.7698Z" fill="#1E0B02"/>
<path d="M177.906 89.7173H170.327V94.7699H177.906V89.7173Z" fill="white"/>
<path d="M177.906 87.2007H170.327V89.7222H177.906V87.2007Z" fill="#1E0B02"/>
<path d="M177.906 84.6792H170.327V87.2007H177.906V84.6792Z" fill="white"/>
<path d="M177.906 82.1528H170.327V84.6791H177.906V82.1528Z" fill="#1E0B02"/>
<path d="M177.906 79.6313H170.327V82.1528H177.906V79.6313Z" fill="white"/>
<path d="M177.906 77.1145H170.327V79.636H177.906V77.1145Z" fill="white"/>
<path d="M177.906 74.5835H170.327V77.1146H177.906V74.5835Z" fill="#1E0B02"/>
<path d="M177.906 72.062H170.327V74.5835H177.906V72.062Z" fill="white"/>
<path d="M177.906 69.5405H170.327V72.062H177.906V69.5405Z" fill="white"/>
<path d="M170.327 122.521H167.805V125.047H170.327V122.521Z" fill="white"/>
<path d="M170.327 120.004H167.805V122.525H170.327V120.004Z" fill="#1E0B02"/>
<path d="M170.327 114.951H167.805V120.004H170.327V114.951Z" fill="#1E0B02"/>
<path d="M170.327 112.43H167.805V114.951H170.327V112.43Z" fill="#1E0B02"/>
<path d="M170.327 109.908H167.805V112.435H170.327V109.908Z" fill="#1E0B02"/>
<path d="M170.327 104.865H167.805V109.904H170.327V104.865Z" fill="white"/>
<path d="M170.327 99.8176H167.805V104.87H170.327V99.8176Z" fill="white"/>
<path d="M170.327 94.7698H167.805V99.8176H170.327V94.7698Z" fill="white"/>
<path d="M170.327 89.7173H167.805V94.7699H170.327V89.7173Z" fill="white"/>
<path d="M170.327 87.2007H167.805V89.7222H170.327V87.2007Z" fill="#1E0B02"/>
<path d="M170.327 84.6792H167.805V87.2007H170.327V84.6792Z" fill="white"/>
<path d="M170.327 82.1528H167.805V84.6791H170.327V82.1528Z" fill="#1E0B02"/>
<path d="M170.327 79.6313H167.805V82.1528H170.327V79.6313Z" fill="#1E0B02"/>
<path d="M170.327 77.1145H167.805V79.636H170.327V77.1145Z" fill="#1E0B02"/>
<path d="M170.327 74.5835H167.805V77.1146H170.327V74.5835Z" fill="#1E0B02"/>
<path d="M170.327 72.062H167.805V74.5835H170.327V72.062Z" fill="#1E0B02"/>
<path d="M170.327 69.5405H167.805V72.062H170.327V69.5405Z" fill="white"/>
<path d="M167.805 122.521H165.284V125.047H167.805V122.521Z" fill="white"/>
<path d="M167.805 120.004H165.284V122.525H167.805V120.004Z" fill="#1E0B02"/>
<path d="M167.805 114.951H165.284V120.004H167.805V114.951Z" fill="white"/>
<path d="M167.805 112.43H165.284V114.951H167.805V112.43Z" fill="white"/>
<path d="M167.805 109.908H165.284V112.435H167.805V109.908Z" fill="#1E0B02"/>
<path d="M167.805 104.865H165.284V109.904H167.805V104.865Z" fill="white"/>
<path d="M167.805 99.8176H165.284V104.87H167.805V99.8176Z" fill="white"/>
<path d="M167.805 94.7698H165.284V99.8176H167.805V94.7698Z" fill="#1E0B02"/>
<path d="M167.805 89.7173H165.284V94.7699H167.805V89.7173Z" fill="white"/>
<path d="M167.805 87.2007H165.284V89.7222H167.805V87.2007Z" fill="#1E0B02"/>
<path d="M167.805 84.6792H165.284V87.2007H167.805V84.6792Z" fill="white"/>
<path d="M167.805 82.1528H165.284V84.6791H167.805V82.1528Z" fill="#1E0B02"/>
<path d="M167.805 79.6313H165.284V82.1528H167.805V79.6313Z" fill="white"/>
<path d="M167.805 77.1145H165.284V79.636H167.805V77.1145Z" fill="white"/>
<path d="M167.805 74.5835H165.284V77.1146H167.805V74.5835Z" fill="white"/>
<path d="M167.805 72.062H165.284V74.5835H167.805V72.062Z" fill="#1E0B02"/>
<path d="M167.805 69.5405H165.284V72.062H167.805V69.5405Z" fill="white"/>
<path d="M165.284 122.521H162.81V125.047H165.284V122.521Z" fill="white"/>
<path d="M165.284 120.004H162.81V122.525H165.284V120.004Z" fill="#1E0B02"/>
<path d="M165.284 114.951H162.81V120.004H165.284V114.951Z" fill="white"/>
<path d="M165.284 112.43H162.81V114.951H165.284V112.43Z" fill="white"/>
<path d="M165.284 109.908H162.81V112.435H165.284V109.908Z" fill="#1E0B02"/>
<path d="M165.284 104.865H162.81V109.904H165.284V104.865Z" fill="#1E0B02"/>
<path d="M165.284 99.8176H162.81V104.87H165.284V99.8176Z" fill="white"/>
<path d="M165.284 94.7698H162.81V99.8176H165.284V94.7698Z" fill="#1E0B02"/>
<path d="M165.284 89.7173H162.81V94.7699H165.284V89.7173Z" fill="white"/>
<path d="M165.284 87.2007H162.81V89.7222H165.284V87.2007Z" fill="white"/>
<path d="M165.284 84.6792H162.81V87.2007H165.284V84.6792Z" fill="white"/>
<path d="M165.284 82.1528H162.81V84.6791H165.284V82.1528Z" fill="#1E0B02"/>
<path d="M165.284 79.6313H162.81V82.1528H165.284V79.6313Z" fill="white"/>
<path d="M165.284 77.1145H162.81V79.636H165.284V77.1145Z" fill="#1E0B02"/>
<path d="M165.284 74.5835H162.81V77.1146H165.284V74.5835Z" fill="white"/>
<path d="M165.284 72.062H162.81V74.5835H165.284V72.062Z" fill="#1E0B02"/>
<path d="M165.284 69.5405V72.062H162.81V69.6798V69.5405H165.284Z" fill="white"/>
<path d="M162.81 122.521H160.231V125.047H162.81V122.521Z" fill="white"/>
<path d="M162.81 120.004H160.231V122.525H162.81V120.004Z" fill="#1E0B02"/>
<path d="M162.81 114.951H160.231V120.004H162.81V114.951Z" fill="white"/>
<path d="M162.81 112.43H160.231V114.951H162.81V112.43Z" fill="white"/>
<path d="M162.81 109.908H160.231V112.435H162.81V109.908Z" fill="#1E0B02"/>
<path d="M162.81 104.865H160.231V109.904H162.81V104.865Z" fill="white"/>
<path d="M162.81 99.8176H160.231V104.87H162.81V99.8176Z" fill="#1E0B02"/>
<path d="M162.81 94.7698H160.231V99.8176H162.81V94.7698Z" fill="#1E0B02"/>
<path d="M162.81 89.7173H160.231V94.7699H162.81V89.7173Z" fill="#1E0B02"/>
<path d="M162.81 87.2007H160.231V89.7222H162.81V87.2007Z" fill="#1E0B02"/>
<path d="M162.81 84.6792H160.231V87.2007H162.81V84.6792Z" fill="white"/>
<path d="M162.81 82.1528H160.231V84.6791H162.81V82.1528Z" fill="#1E0B02"/>
<path d="M162.81 79.6313H160.231V82.1528H162.81V79.6313Z" fill="white"/>
<path d="M162.81 77.1145H160.231V79.636H162.81V77.1145Z" fill="white"/>
<path d="M162.81 74.5835H160.231V77.1146H162.81V74.5835Z" fill="white"/>
<path d="M162.81 72.062H160.231V74.5835H162.81V72.062Z" fill="#1E0B02"/>
<path d="M162.81 69.6798V72.062H160.231V69.5405H162.81V69.6798Z" fill="white"/>
<path d="M160.231 122.521H157.709V125.047H160.231V122.521Z" fill="white"/>
<path d="M160.231 120.004H157.709V122.525H160.231V120.004Z" fill="#1E0B02"/>
<path d="M160.231 114.951H157.709V120.004H160.231V114.951Z" fill="#1E0B02"/>
<path d="M160.231 112.43H157.709V114.951H160.231V112.43Z" fill="#1E0B02"/>
<path d="M160.231 109.908H157.709V112.435H160.231V109.908Z" fill="#1E0B02"/>
<path d="M160.231 104.865H157.709V109.904H160.231V104.865Z" fill="#1E0B02"/>
<path d="M160.231 99.8176H157.709V104.87H160.231V99.8176Z" fill="white"/>
<path d="M160.231 94.7698H157.709V99.8176H160.231V94.7698Z" fill="#1E0B02"/>
<path d="M160.231 89.7173H157.709V94.7699H160.231V89.7173Z" fill="#1E0B02"/>
<path d="M160.231 87.2007H157.709V89.7222H160.231V87.2007Z" fill="#1E0B02"/>
<path d="M160.231 84.6792H157.709V87.2007H160.231V84.6792Z" fill="white"/>
<path d="M160.231 82.1528H157.709V84.6791H160.231V82.1528Z" fill="#1E0B02"/>
<path d="M160.231 79.6313H157.709V82.1528H160.231V79.6313Z" fill="#1E0B02"/>
<path d="M160.231 77.1145H157.709V79.636H160.231V77.1145Z" fill="#1E0B02"/>
<path d="M160.231 74.5835H157.709V77.1146H160.231V74.5835Z" fill="#1E0B02"/>
<path d="M160.231 72.062H157.709V74.5835H160.231V72.062Z" fill="#1E0B02"/>
<path d="M160.231 69.5405H157.709V72.062H160.231V69.5405Z" fill="white"/>
<path d="M157.709 122.521H155.188V125.047H157.709V122.521Z" fill="white"/>
<path d="M157.709 120.004H155.188V122.525H157.709V120.004Z" fill="white"/>
<path d="M157.709 114.951H155.188V120.004H157.709V114.951Z" fill="white"/>
<path d="M157.709 112.43H155.188V114.951H157.709V112.43Z" fill="white"/>
<path d="M157.709 109.908H155.188V112.435H157.709V109.908Z" fill="white"/>
<path d="M157.709 104.865H155.188V109.904H157.709V104.865Z" fill="white"/>
<path d="M157.709 99.8176H155.188V104.87H157.709V99.8176Z" fill="white"/>
<path d="M157.709 94.7698H155.188V99.8176H157.709V94.7698Z" fill="white"/>
<path d="M157.709 89.7173H155.188V94.7699H157.709V89.7173Z" fill="white"/>
<path d="M157.709 87.2007H155.188V89.7222H157.709V87.2007Z" fill="white"/>
<path d="M157.709 84.6792H155.188V87.2007H157.709V84.6792Z" fill="white"/>
<path d="M157.709 82.1528H155.188V84.6791H157.709V82.1528Z" fill="white"/>
<path d="M157.709 79.6313H155.188V82.1528H157.709V79.6313Z" fill="white"/>
<path d="M157.709 77.1145H155.188V79.636H157.709V77.1145Z" fill="white"/>
<path d="M157.709 74.5835H155.188V77.1146H157.709V74.5835Z" fill="white"/>
<path d="M157.709 72.062H155.188V74.5835H157.709V72.062Z" fill="white"/>
<path d="M157.709 69.5405H155.188V72.062H157.709V69.5405Z" fill="white"/>
<path d="M148.776 74.7467V62.8164H160.342" stroke="#1E0B02" stroke-width="5.184" stroke-miterlimit="10"/>
<path d="M217.558 74.5114V62.5859H205.512" stroke="#1E0B02" stroke-width="5.184" stroke-miterlimit="10"/>
<path d="M148.536 119.788L148.776 131.713H160.582" stroke="#1E0B02" stroke-width="5.184" stroke-miterlimit="10"/>
<path d="M217.318 120.018L217.558 131.949H205.752" stroke="#1E0B02" stroke-width="5.184" stroke-miterlimit="10"/>
<path d="M165.413 114.798H162.498V117.713H165.413V114.798Z" fill="#1E0B02"/>
<path d="M194.773 112.444H171.076V115.091H194.773V112.444Z" fill="#1E0B02"/>
<path d="M194.773 117.377H171.076V120.023H194.773V117.377Z" fill="#1E0B02"/>
<path d="M182.939 104.793H169.27V107.185H182.939V104.793Z" fill="white"/>
<path d="M190.585 94.7649H176.916V97.1567H190.585V94.7649Z" fill="white"/>
<path d="M190.643 102.454H176.974V104.846H190.643V102.454Z" fill="#1E0B02"/>
<path d="M186.685 115.052H179.169V120.177H186.685V115.052Z" fill="#1E0B02"/>
<path d="M184.135 83.9009H181.714V91.3933H184.135V83.9009Z" fill="#1E0B02"/>
<path d="M162.666 107.329H160.121V109.875H162.666V107.329Z" fill="white"/>
<path d="M160.173 94.9331H157.7V97.4066H160.173V94.9331Z" fill="white"/>
<path d="M165.284 94.7698H162.81V97.2432H165.284V94.7698Z" fill="white"/>
<path d="M172.829 89.6453H170.355V92.1187H172.829V89.6453Z" fill="#1E0B02"/>
<path d="M172.723 99.9041H170.25V102.378H172.723V99.9041Z" fill="white"/>
<path d="M185.508 104.957H183.035V107.43H185.508V104.957Z" fill="#1E0B02"/>
<path d="M200.575 104.803H198.102V107.276H200.575V104.803Z" fill="#1E0B02"/>
<path d="M200.618 112.42H198.145V114.894H200.618V112.42Z" fill="#1E0B02"/>
<path d="M203.058 117.636H200.584V120.11H203.058V117.636Z" fill="#1E0B02"/>
<path d="M254.914 103.593C255.62 103.593 256.197 103.021 256.197 102.31V90.6825C256.197 89.9765 255.625 89.4001 254.914 89.4001C254.208 89.4001 253.632 89.9717 253.632 90.6825V102.31C253.632 103.021 254.203 103.593 254.914 103.593Z" fill="#1E0B02"/>
<path d="M260.01 107.718V129.614C260.01 133.769 256.629 137.15 252.474 137.15H110.329C106.175 137.15 102.794 133.769 102.794 129.614V107.718H260.01Z" fill="#0096DB"/>
<path d="M260.048 106.849H102.784V109.894H260.048V106.849Z" fill="#91F700"/>
<path d="M179.601 75.6592H173.107V82.1526H179.601V75.6592Z" fill="#1E0B02"/>
<path d="M8.40356 193.569C8.40356 193.565 8.40356 193.555 8.41327 193.54C8.41327 193.574 8.40842 193.584 8.40356 193.569Z" fill="#E07B51"/>
<path d="M142.115 55.9388C140.52 57.3364 138.532 58.1433 134.728 58.1433C124.723 58.1529 118.585 58.4843 118.585 58.4843C118.585 58.4843 101.319 62.6435 101.089 63.095C89.9701 84.8519 73.6981 83.1661 86.5457 120.484C89.2977 128.462 29.315 122.545 28.8779 123.03L49.3092 81.7204C51.0911 77.6812 56.5375 72.7247 60.2597 70.3473C77.2089 59.5073 87.9625 48.7873 94.552 45.0843C94.9747 44.849 95.3829 44.6377 95.7719 44.4648C96.3099 44.215 96.8142 44.0277 97.2896 43.9028C97.525 43.8404 97.7507 43.7972 97.9716 43.7683C98.1205 43.7491 98.2646 43.7347 98.4039 43.7299L117.298 43.0287H117.356C117.596 43.0191 117.841 43.0191 118.081 43.0239C118.686 43.0287 119.291 43.0767 119.892 43.1632C120.247 43.2112 120.603 43.2785 120.958 43.3553C121.342 43.4418 121.727 43.5426 122.106 43.6579L131.755 45.4974L141.452 47.3417C141.476 47.3513 141.5 47.3561 141.524 47.3705C144.775 48.4415 144.708 53.667 142.115 55.9388Z" fill="#E07B51"/>
<path d="M141.524 47.3704C141.442 47.8603 141.183 48.5087 140.41 48.8209C139.07 49.354 131.443 47.0774 131.443 47.0774L131.755 45.4973L141.452 47.3416C141.476 47.3512 141.5 47.356 141.524 47.3704Z" fill="#EB9A78"/>
<path d="M147.95 149.633L128.484 159.142C125.569 160.564 122.308 161.092 119.095 160.66C110.536 159.502 91.9825 157.725 75.8402 161.159C69.1882 162.576 62.6852 162.61 56.8449 161.577C56.5087 161.52 56.1725 161.457 55.8411 161.39C50.5196 160.324 45.7792 158.369 42.0282 155.766C36.7498 152.111 33.4167 147.183 33.1429 141.67C32.8307 135.44 43.128 129.297 54.602 124.418C67.5073 118.928 81.9014 115.028 84.3556 114.38C84.4469 114.356 84.5237 114.337 84.5814 114.322C84.6726 114.298 84.7206 114.284 84.7206 114.284C84.7206 114.284 94.6385 137.957 117.375 139.58C117.375 139.58 139.19 131.925 148.935 138.884L150.385 141.228C152.22 144.201 151.086 148.101 147.95 149.633Z" fill="#E07B51"/>
<path d="M136.524 154.666L133.441 146.991C132.989 145.867 133.402 144.59 134.425 143.941C137.014 142.299 141.985 139.7 145.755 141.088C151.086 143.053 148.109 149.051 148.109 149.051L136.524 154.666Z" fill="#EB9A78"/>
<path d="M76.3301 92.0226C76.4309 90.966 68.2517 118.602 88.8751 128.808C88.8751 128.808 73.9959 116.474 76.3301 92.0226Z" fill="#B56442"/>
<path d="M122.86 148.254L127.519 156.875C127.519 156.87 127.01 150.612 122.86 148.254Z" fill="#B56442"/>
<path d="M120.454 149.786L122.265 159.272C122.265 159.272 123.24 153.994 120.454 149.786Z" fill="#B56442"/>
<path d="M97.3617 48.091C96.0937 47.164 95.186 46.0642 94.552 45.0844C94.9747 44.8491 95.3829 44.6377 95.7719 44.4648L97.3617 48.091Z" fill="#B56442"/>
<path d="M120.958 43.3552C120.492 45.8335 119.551 47.6682 119.551 47.6682L119.892 43.1631C120.247 43.2111 120.603 43.2784 120.958 43.3552Z" fill="#B56442"/>
<path d="M97.9622 46.016L97.2898 43.9028C97.5251 43.8404 97.7509 43.7971 97.9718 43.7683C97.9766 44.8586 97.9622 46.016 97.9622 46.016Z" fill="#B56442"/>
<path d="M118.11 45.2572C117.855 44.8874 117.538 43.8884 117.298 43.0287H117.356C117.596 43.0191 117.841 43.0191 118.081 43.0239L118.11 45.2572Z" fill="#B56442"/>
<path d="M56.8642 161.529C56.8642 161.529 56.8594 161.544 56.845 161.577C56.5088 161.52 56.1726 161.457 55.8412 161.39C41.0437 168.58 18.379 179.641 10.8962 183.617C9.99808 182.532 9.09515 181.355 8.20662 180.083C7.52462 166.644 5.44019 130.791 5.44019 130.791C10.7473 128.294 15.7375 124.735 20.3242 120.628C20.2522 130.642 22.4182 142.832 26.0348 150.857C33.6137 167.696 45.5872 158.335 48.8915 158.993C53.0556 159.824 55.0344 160.766 56.1438 161.246C56.5905 161.443 56.8642 161.529 56.8642 161.529Z" fill="#B56442"/>
<path d="M-2.65266 118.712L10.5936 116.968C15.8623 115.268 18.6672 116.354 18.792 121.887C19.7286 163.82 34.2524 172.254 34.2524 172.254C35.0449 175.813 33.7049 179.506 30.8184 181.735L-11 203.698L-2.65266 118.712Z" fill="#209B97"/>
</g>
<defs>
<clipPath id="clip0_162_56165">
<rect width="342.169" height="224.115" fill="white" transform="translate(-11)"/>
</clipPath>
</defs>
</svg>
