<svg width="307" height="221" viewBox="0 0 307 221" fill="none" xmlns="http://www.w3.org/2000/svg">
<g style="mix-blend-mode:multiply" opacity="0.1">
<path d="M193.222 162.823C186.111 160.922 174.475 160.922 167.364 162.823L19.2882 199.203C12.1771 201.102 17.7939 206.147 24.897 208.047L66.3798 220.065C73.4909 221.967 87.9896 220.621 95.1909 219.098C161.038 209.801 225.761 187.596 233.107 181.417C240.558 175.146 235.396 173.931 228.285 172.027L193.222 162.823Z" fill="#001230"/>
</g>
<g style="mix-blend-mode:multiply" opacity="0.9">
<path d="M174.769 167.956C167.658 166.056 156.022 166.056 148.911 167.956L19.2882 199.203C12.1771 201.102 21.6078 205.086 28.719 206.994L60.1341 215.384C67.2452 217.284 74.823 217.724 78.9535 217.444C83.0839 217.164 88.2119 216.299 97.6988 213.019C112.36 207.949 138.162 200.643 148.65 197.682C160.815 194.248 170.771 193.235 181.013 190.586C197.615 186.293 205.117 182.931 207.396 181.397C209.676 179.862 210.539 177.533 203.428 175.633L174.769 167.956Z" fill="#001230"/>
</g>
<path d="M48.9325 145.081L42.6908 149.942C42.6908 149.942 43.3358 146.402 44.6078 145.081C46.5187 143.087 48.9325 145.081 48.9325 145.081Z" fill="#E9E9EA"/>
<path d="M162.969 168.733C160.663 177.323 163.9 185.636 170.198 187.312C176.496 188.988 183.473 183.402 185.778 174.82C188.084 166.237 184.847 157.917 178.549 156.241C172.251 154.564 165.274 160.152 162.969 168.733Z" fill="#001230"/>
<path d="M170.19 187.33L179.487 189.814L187.837 158.737L178.54 156.252L170.19 187.33Z" fill="#001230"/>
<path d="M65.176 194.913C62.8704 203.504 66.1074 211.814 72.4053 213.493C78.7031 215.171 85.678 209.583 87.9856 201.003C90.2932 192.422 87.0542 184.099 80.7543 182.423C74.4545 180.747 67.4816 186.331 65.176 194.913Z" fill="#001230"/>
<path d="M72.398 213.507L81.6951 215.992L90.0447 184.914L80.7476 182.43L72.398 213.507Z" fill="#001230"/>
<path d="M196.305 173.777L179.941 168.621L109.053 190.167L98.3538 203.646L75.1355 199.882L77.4251 180.226L185.48 150.515L201.824 161.335L196.305 173.777Z" fill="#001230"/>
<path d="M189.142 124.698C167.602 117.768 124.557 108.173 97.0077 116.124C68.9097 124.233 41.1384 151.322 41.1384 151.322C41.1384 151.322 24.6946 159.791 16.5559 166.305C7.83826 173.298 7.9424 186.856 9.9255 194.246C11.4639 199.964 50.4909 208.902 59.4189 208.83C61.9809 209.359 65.9271 209.343 69.7551 209.295L71.5258 208.83C71.2371 204.771 71.4978 200.691 72.3011 196.701C74.2862 186.769 82.6252 180.12 89.51 181.241C96.0683 182.313 100.527 189.497 98.3518 203.64L108.263 199.003C124.615 193.541 142.341 188.712 161.819 184.693L169.072 183.834C169.072 179.421 169.383 175.535 170.591 170.673C173.033 160.864 181.263 154.836 187.956 156.626C194.266 158.312 197.383 165.357 196.303 173.771C199.131 172.321 200.72 170.621 201.599 168.054C203.18 163.441 204.165 156.866 203.933 154.515C203.781 152.978 203.51 151.432 202.392 150.883C199.979 143.911 195.43 132.388 189.142 124.698Z" fill="#E9E9EA"/>
<path d="M138.527 128.414C154.117 123.278 165.625 122.329 186.976 124.332L189.144 124.692C167.568 117.758 124.521 108.177 97.0097 116.118C89.9407 118.157 82.8936 121.4 76.3033 125.108C75.9468 125.337 75.5882 125.567 75.2316 125.801C69.5615 129.09 64.0749 132.684 58.796 136.567C54.5794 139.695 50.9236 142.668 48.0511 145.115C45.7275 147.113 43.496 149.111 41.3326 151.13L41.1323 151.314C45.6274 158.744 62.2013 164.629 93.6845 165.354C93.6925 165.372 110.753 137.572 138.527 128.414Z" fill="#00123E"/>
<path d="M98.3538 166.887C126.263 158.512 154.263 150.487 179.421 140.099C180.013 139.887 180.586 139.625 181.133 139.316C182.712 138.297 187.557 128.076 187.557 128.076C175.538 125.501 155.07 125.341 142.415 129.824C110.833 141 98.3538 166.887 98.3538 166.887Z" fill="#001230"/>
<path d="M144.75 126.45C143.058 126.936 141.724 127.389 139.586 128.066C125.989 123.126 111.434 119.276 95.9921 116.425L101.551 115.027C115.827 117.324 130.135 121.234 144.75 126.45Z" fill="#303A66"/>
<path d="M82.3547 121.917L77.8257 124.273C86.2989 129.067 102.901 132.889 122.558 136.225C123.697 135.458 125.058 134.663 126.632 133.75C108.462 130.24 92.9012 126.398 82.3547 121.917Z" fill="#303A66"/>
<path d="M43.6663 151.506C49.5114 158.326 67.0088 162.052 92.2663 163.714C92.2663 163.714 95.0206 156.78 75.2396 152.269C54.1306 147.459 43.6663 151.506 43.6663 151.506Z" fill="#303A66"/>
<path d="M140.48 131.301L142.541 152.507L147.567 150.865L145.043 129.812C143.56 130.244 142.048 130.723 140.48 131.301Z" fill="#303A66"/>
<path d="M175.242 141.08L178.661 139.693L174.753 127.083L171.634 126.858L175.242 141.08Z" fill="#303A66"/>
<path d="M142.721 129.776C143.663 137.074 145.245 152.529 145.245 152.529C146.688 154.587 147.329 157.099 147.048 159.595C146.321 166.467 145.389 178.785 146.022 183.488" stroke="#231F32" stroke-width="1.31" stroke-miterlimit="10"/>
<path d="M98.4419 166.809C101.635 170.205 102.248 183.036 104.303 194.691L159.99 179.736C162.342 179.107 164.531 177.043 165.799 174.264L177.694 151.048C179.022 148.122 179.176 144.028 177.215 141L173.175 126.58" stroke="#231F32" stroke-width="1.31" stroke-miterlimit="10"/>
<path d="M93.5924 165.328C93.5924 165.328 93.356 166.703 91.2767 167.836C88.9671 169.09 68.8417 177.489 63.8118 179.838C57.4879 182.789 49.0288 184.817 43.462 184.009C34.8105 182.757 21.8863 179.433 18.8235 177.906C15.4823 176.24 13.0405 172.221 13.5072 170.267" stroke="#231F32" stroke-width="1.31" stroke-miterlimit="10"/>
<path d="M202.176 150.835C202.176 150.835 197.925 153.632 197.156 154.337C195.073 156.265 192.489 159.223 192.489 159.223" stroke="#231F32" stroke-width="1.31" stroke-miterlimit="10"/>
<path d="M68.2948 177.844C68.2948 177.844 75.9508 179.984 77.8257 186.011" stroke="#231F32" stroke-width="1.31" stroke-miterlimit="10"/>
<path opacity="0.1" d="M51.8731 208.036C53.5297 207.859 44.8762 195.808 44.0609 194.931C42.1479 192.85 36.2487 190.774 26.0227 188.357C17.233 186.281 15.3901 187.178 14.4587 188.011C13.8577 188.554 9.86749 194.823 10.9532 195.66C13.4791 197.608 19.2942 200.131 27.7094 202.551C36.8256 205.172 49.9501 208.244 51.8731 208.036Z" fill="black"/>
<path opacity="0.1" d="M46.2523 205.837C47.5984 206.091 41.0121 202.653 40.3891 202.373C38.9148 201.71 34.2175 200.375 26.0206 198.242C18.9836 196.412 17.4592 196.244 16.678 196.224C16.1672 196.21 13.3248 196.024 14.086 196.519C15.6985 197.566 19.4484 199.214 26.1749 201.036C33.4523 203.01 44.6878 205.545 46.2523 205.837Z" fill="black"/>
<path opacity="0.1" d="M101.344 170.245C141.251 158.556 181.488 142.374 183.118 141.697C188.256 139.565 188.102 133.454 191.976 135.933C194.38 137.47 199.876 148.629 192.489 151.622C189.63 152.781 177.958 151.188 173.505 159.213C166.324 172.175 165.865 175.913 162.804 177.972C160.14 179.77 149.832 182.687 134.226 186.656C125.678 188.828 104.303 194.681 104.303 194.681C103.033 187.621 101.338 181.237 98.7824 176.218C98.499 175.666 98.3408 175.059 98.3193 174.439C98.2978 173.819 98.4135 173.202 98.658 172.632C98.9026 172.062 99.2701 171.552 99.7344 171.14C100.199 170.727 100.748 170.422 101.344 170.245Z" fill="black"/>
<path opacity="0.1" d="M69.9414 188.808C68.0119 192.372 66.8743 196.308 66.6061 200.349C66.5815 200.709 66.4806 201.06 66.3102 201.379C66.1398 201.698 65.9036 201.977 65.6173 202.198C65.331 202.419 65.0011 202.577 64.6491 202.661C64.2972 202.746 63.9312 202.755 63.5754 202.689C59.9297 202.023 56.8028 200.837 54.5613 198.775C54.2529 198.494 54.0086 198.15 53.8448 197.766C53.6811 197.383 53.6018 196.969 53.6122 196.552C53.6227 196.136 53.7226 195.726 53.9054 195.351C54.0881 194.977 54.3494 194.645 54.6715 194.38C58.7379 191.034 63.2849 188.602 68.1205 186.748C68.4001 186.643 68.7051 186.626 68.9951 186.698C69.285 186.77 69.5461 186.928 69.7437 187.152C69.9413 187.375 70.066 187.653 70.1013 187.949C70.1366 188.245 70.0809 188.545 69.9414 188.808Z" fill="black"/>
<path opacity="0.1" d="M197.072 162.1C195.534 159.703 195.355 157.751 197.729 156.317C200.103 154.882 201.361 153.284 201.439 155.981C201.515 159.696 200.67 163.372 198.979 166.683C198.941 166.76 198.879 166.823 198.802 166.862C198.725 166.902 198.638 166.915 198.553 166.901C198.468 166.886 198.389 166.845 198.33 166.783C198.27 166.72 198.232 166.641 198.222 166.555C198.088 165.584 197.919 163.425 197.072 162.1Z" fill="black"/>
<path d="M196.918 142.818C198.348 145.791 199.475 148.9 200.281 152.097L202.394 150.899C201.257 146.14 198.789 139.911 197.769 139.256C196.916 138.696 196.918 142.818 196.918 142.818Z" fill="#303A66"/>
<path d="M20.2056 195.597L34.8044 199.498V193.369L20.2056 189.469V195.597Z" fill="#001230"/>
<path d="M19.2882 195.8L33.885 199.702V193.573L19.2882 189.673V195.8Z" fill="white"/>
<path d="M83.3403 133.169L94.3576 136.113L98.5401 132.304L87.5229 129.359L83.3403 133.169Z" fill="#303A66"/>
<path d="M137.16 161.175L144.704 158.414L144.422 160.218L136.75 163.081L137.16 161.175Z" fill="#001230"/>
<path d="M137.493 160.792L145.035 158.031L144.754 159.833L137.082 162.696L137.493 160.792Z" fill="#303A66"/>
<path d="M169.457 149.159L176.913 146.17L176.686 147.982L169.106 151.076L169.457 149.159Z" fill="#001230"/>
<path d="M169.777 148.765L177.231 145.776L177.005 147.588L169.425 150.683L169.777 148.765Z" fill="#303A66"/>
<path opacity="0.1" d="M101.02 166.006C142.843 135.288 184.551 131.968 184.551 131.968L185.971 128.877C172.55 127.171 158.26 125.681 143.294 130.937C112.45 141.761 101.02 166.006 101.02 166.006Z" fill="white"/>
<path opacity="0.1" d="M102.701 167.274C102.701 167.274 102.863 166.875 104.565 168.027C106.422 169.282 113.151 170.664 114.856 169.985C117.245 169.036 117.428 166.533 116.542 165.59C113.798 162.691 111.703 162.743 110.673 162.803C109.643 162.863 102.701 167.274 102.701 167.274Z" fill="black"/>
<path d="M100.002 166.445C100.002 166.445 105.178 160.993 107.604 160.947C109.491 160.911 113.896 161.087 114.916 163.578C115.935 166.07 112.856 167.412 108.942 168.213C105.028 169.014 102.352 168.413 101.403 167.896C100.807 167.554 100.322 167.051 100.002 166.445Z" fill="#E9E9EA"/>
<path opacity="0.1" d="M112.642 161.155C112.642 161.155 112.981 163.858 108.598 164.907C106.322 165.45 99.1069 166.555 99.1069 166.555L100.862 169.732L115.364 170.005L117.243 163.78L114.591 160.208L112.642 161.155Z" fill="black"/>
<path d="M13.1906 169.947C12.4354 171.546 14.4986 176.042 17.8779 177.633C22.7876 179.942 34.8865 182.803 43.6061 184.205C49.9481 185.224 63.3189 181.263 68.5832 177.844C67.7359 177.079 65.1178 177.079 63.0325 177.689C58.8079 179.139 49.6836 181.744 44.3573 180.977C35.1649 179.65 23.3125 176.882 19.2661 175.038C17.2149 174.103 14.2583 170.087 15.4602 167.258C14.719 167.84 13.5973 169.082 13.1906 169.947Z" fill="#303A66"/>
<path opacity="0.1" d="M8.56936 189.046C7.80416 166.004 35.3753 160.002 53.3875 159.645C65.5745 146.671 95.9921 109.311 139.242 113.558L161.428 110.61L136.67 107.837L85.6299 115.029L0 175.161L8.56936 189.046Z" fill="white"/>
<path d="M44.3573 180.977C34.7643 179.467 26.5755 177.641 19.2661 175.038L18.2405 177.798C21.3774 179.397 33.5464 182.793 43.3978 184.191L44.3573 180.977Z" fill="#303A66"/>
<path opacity="0.1" d="M44.0949 181.842C34.7003 180.471 26.5976 178.526 19.2882 175.923L18.8014 177.303C23.2463 179.203 33.7488 182.07 43.6002 183.46L44.0949 181.842Z" fill="black"/>
<path d="M74.2281 197.358C71.9245 205.927 75.1575 214.238 81.4394 215.918C87.7212 217.598 94.6941 212.014 96.9957 203.444C99.2973 194.873 96.0663 186.567 89.7844 184.884C83.5026 183.202 76.5297 188.788 74.2281 197.358Z" fill="#303A66"/>
<path d="M77.1126 198.136C75.3939 204.528 77.8077 210.735 82.5031 211.992C87.1984 213.249 92.3985 209.077 94.1212 202.678C95.8439 196.28 93.4282 190.079 88.7328 188.824C84.0375 187.569 78.8313 191.731 77.1126 198.136Z" fill="#E9E9EA"/>
<path d="M90.7219 199.88L92.8733 203.266C93.4642 204.195 92.6349 205.817 91.6133 205.735L87.8834 205.441C87.4388 205.407 86.962 205.725 86.6816 206.24L84.2778 210.622C83.6208 211.82 82.2746 211.644 82.2386 210.352L82.0843 205.633C82.0663 205.072 81.7719 204.652 81.3372 204.57L77.7036 203.891C76.702 203.705 76.702 201.973 77.7036 201.254L81.3372 198.633C81.5618 198.459 81.7453 198.238 81.8744 197.985C82.0036 197.732 82.0752 197.454 82.0843 197.171L82.2386 192.376C82.2807 191.059 83.6208 190.167 84.2778 191.016L86.6816 194.112C86.968 194.482 87.4448 194.546 87.8834 194.272L91.6133 191.984C92.6349 191.357 93.4642 192.538 92.8733 193.782L90.7219 198.319C90.4655 198.861 90.4655 199.476 90.7219 199.88Z" fill="#242B52"/>
<path d="M83.755 199.904C83.3804 201.302 83.9072 202.661 84.9348 202.934C85.9624 203.208 87.0982 202.297 87.4748 200.899C87.8514 199.5 87.3226 198.142 86.297 197.868C85.2714 197.594 84.1316 198.505 83.755 199.904Z" fill="#E9E9EA"/>
<path d="M194.829 177.212C197.132 168.642 193.899 160.333 187.609 158.652C181.32 156.971 174.354 162.555 172.052 171.125C169.75 179.695 172.982 188.004 179.272 189.685C185.562 191.366 192.527 185.781 194.829 177.212Z" fill="#303A66"/>
<path d="M174.946 171.903C173.227 178.296 175.641 184.503 180.336 185.758C185.031 187.012 190.231 182.845 191.954 176.446C193.677 170.047 191.259 163.846 186.564 162.592C181.868 161.337 176.664 165.504 174.946 171.903Z" fill="#E9E9EA"/>
<path d="M188.555 173.653L190.706 177.049C191.297 177.976 190.468 179.6 189.446 179.519L185.716 179.225C185.272 179.191 184.795 179.509 184.514 180.024L182.111 184.405C181.454 185.604 180.108 185.428 180.072 184.133L179.917 179.417C179.899 178.853 179.605 178.434 179.17 178.354L175.536 177.675C174.535 177.489 174.535 175.757 175.536 175.038L179.17 172.416C179.395 172.242 179.578 172.021 179.707 171.768C179.836 171.516 179.908 171.238 179.917 170.954L180.072 166.159C180.114 164.845 181.454 163.952 182.111 164.801L184.514 167.898C184.801 168.267 185.278 168.329 185.716 168.057L189.446 165.77C190.468 165.143 191.297 166.323 190.706 167.568L188.555 172.105C188.298 172.632 188.298 173.25 188.555 173.653Z" fill="#242B52"/>
<path d="M181.588 173.677C181.213 175.075 181.74 176.434 182.768 176.708C183.795 176.981 184.931 176.07 185.308 174.672C185.684 173.274 185.155 171.915 184.13 171.641C183.104 171.368 181.964 172.279 181.588 173.677Z" fill="#E9E9EA"/>
<path d="M43.8466 182.651C34.3738 181.253 24.7288 178.957 18.8075 176.424" stroke="#231F32" stroke-width="1.31" stroke-miterlimit="10"/>
<path d="M186.371 143.938L190.139 142.039C190.285 141.974 190.444 141.943 190.603 141.946C190.763 141.949 190.92 141.986 191.063 142.056C191.207 142.125 191.333 142.225 191.434 142.349C191.535 142.472 191.608 142.616 191.648 142.77L192.581 147.464C192.645 147.712 192.62 147.975 192.51 148.206C192.4 148.437 192.213 148.623 191.98 148.731L188.336 150.667C188.193 150.733 188.037 150.768 187.879 150.768C187.721 150.769 187.565 150.735 187.421 150.67C187.277 150.605 187.149 150.51 187.045 150.391C186.942 150.272 186.865 150.133 186.82 149.982L185.764 145.251C185.69 144.996 185.71 144.723 185.822 144.481C185.933 144.24 186.128 144.047 186.371 143.938Z" fill="#001230"/>
<path d="M185.736 144.362L186.738 141.717C186.878 141.349 187.175 141.643 187.361 142.33L188.262 146.725C188.407 147.263 188.437 147.868 188.331 148.164L187.367 150.833C187.233 151.206 186.94 150.939 186.75 150.269L185.803 145.848C185.66 145.297 185.628 144.66 185.736 144.362Z" fill="#E5E7EB"/>
<path d="M254.225 153.132C254.225 156.241 253.709 161.323 252.491 165.362C250.876 170.716 247.178 177.079 251.249 179.602C254.938 181.89 259.62 178.514 261.865 171.635" stroke="#5D6E81" stroke-width="13" stroke-linecap="round" stroke-linejoin="round"/>
<path opacity="0.1" d="M272.638 187.138H286.726L307 181.72L293.655 178.156H272.638V187.138Z" fill="black"/>
<path d="M253.721 178.504L272.476 173.491L291.231 178.504L272.476 183.516L253.721 178.504Z" fill="#43596D"/>
<path d="M262.346 175.867C256.751 177.361 252.216 173.725 252.216 167.746V153.67L272.476 148.256V162.332C272.472 168.311 267.941 174.362 262.346 175.867Z" fill="#B4BDC5"/>
<path d="M257.911 175.967V161.89L278.169 167.304V181.379L257.911 175.967Z" fill="#B4BDC5"/>
<path d="M252.216 167.744V153.67L272.476 159.084V173.158L252.216 167.744Z" fill="#D0D2D3"/>
<path d="M252.216 153.67L272.476 148.256L292.734 153.67L272.476 159.083L252.216 153.67Z" fill="#F1F2F2"/>
<path d="M272.476 187.138L253.721 182.126V178.504L272.476 183.516V187.138Z" fill="#444051"/>
<path d="M272.476 187.138L291.231 182.126V178.504L272.476 183.516V187.138Z" fill="#001230"/>
<path d="M282.606 181.281C277.013 182.775 272.478 179.139 272.478 173.16V159.084L292.736 153.67V167.746C292.734 173.725 288.199 179.784 282.606 181.281Z" fill="#D0D2D3"/>
<path d="M272.476 171.827L252.216 166.413V110.044L272.476 115.458V171.827Z" fill="#EFF0F1"/>
<path d="M272.476 171.827L292.734 166.413V110.044L272.476 115.458V171.827Z" fill="#D0D2D3"/>
<path d="M292.734 110.045L272.476 104.631L252.216 110.045L272.476 115.458L292.734 110.045Z" fill="#7D8191"/>
<path d="M272.476 116.006L252.216 110.594V86.3032L272.476 91.7171V116.006Z" fill="#EFF0F1"/>
<path d="M272.476 116.006L292.734 110.594V86.3032L272.476 91.7171V116.006Z" fill="#D0D2D3"/>
<path d="M292.734 86.3031L272.476 80.8892L252.216 86.3031L272.476 91.717L292.734 86.3031Z" fill="#F1F2F2"/>
<path d="M272.472 93.2812L252.212 98.6952V84.619C252.212 78.6377 256.748 72.5785 262.342 71.0841C267.937 69.5898 272.472 73.2257 272.472 79.205V93.2812Z" fill="#E9E9EA"/>
<path d="M272.476 90.0329L252.216 84.619L265.545 70.7485L285.805 76.1625L272.476 90.0329Z" fill="#E9E9EA"/>
<path d="M292.734 98.6952L272.472 104.109V90.0329C272.472 84.0516 277.007 77.9924 282.602 76.4981C288.194 75.0038 292.73 78.6377 292.73 84.619L292.734 98.6952Z" fill="#D0D2D3"/>
<path d="M252.216 98.6933V84.6191L272.476 90.0331V104.109L252.216 98.6933Z" fill="#EFF0F1"/>
<path d="M265.087 97.3308L262.086 96.5297V90.1309L257.513 98.1479L260.515 98.951V105.348L265.087 97.3308Z" fill="#00C48B"/>
<path d="M286.51 98.1677L283.355 99.0108V92.2883L278.552 103.278L281.706 102.435V109.157L286.51 98.1677Z" fill="#D0D2D3"/>
<path d="M269.996 147.874L263.598 146.164V136.365L269.996 138.075V147.874Z" fill="#001230"/>
<path d="M263.598 136.365V146.164L264.345 145.964V136.565L263.598 136.365Z" fill="#B4BDC5"/>
<path d="M269.996 147.874L263.598 146.164L264.345 145.964L269.996 147.474V147.874Z" fill="#E6E7E8"/>
<path d="M261.126 145.507L254.728 143.797V133.998L261.126 135.708V145.507Z" fill="#001230"/>
<path d="M254.728 133.998V143.797L255.473 143.597V134.197L254.728 133.998Z" fill="#B4BDC5"/>
<path d="M261.126 145.507L254.728 143.797L255.473 143.597L261.126 145.107V145.507Z" fill="#E6E7E8"/>
<path d="M264.698 130.691C265.219 132.625 264.497 134.501 263.069 134.887C261.641 135.272 260.077 134.006 259.558 132.072C259.039 130.138 259.758 128.262 261.186 127.877C262.615 127.491 264.179 128.758 264.698 130.691Z" fill="#B4BDC5"/>
<path d="M264.259 130.811C264.688 132.409 264.085 133.958 262.913 134.271C261.741 134.585 260.441 133.544 260.013 131.946C259.584 130.348 260.187 128.799 261.359 128.486C262.531 128.172 263.823 129.213 264.259 130.811Z" fill="#B4BDC5"/>
<path d="M263.973 130.885C264.347 132.284 263.823 133.622 262.803 133.894C261.783 134.165 260.656 133.26 260.281 131.872C259.907 130.484 260.433 129.135 261.453 128.863C262.473 128.592 263.6 129.497 263.973 130.885Z" fill="#001230"/>
<path d="M254.225 153.132C254.225 156.241 253.709 161.323 252.491 165.362C250.876 170.716 247.178 177.079 251.249 179.602" stroke="#5D6E81" stroke-width="2" stroke-linecap="round" stroke-linejoin="round"/>
<path d="M269.984 128.777L254.706 124.694V107.489L269.984 111.571V128.777Z" fill="#43596D"/>
<path d="M254.706 107.489V124.694L256.489 124.218L261.146 109.209L254.706 107.489Z" fill="#B4BDC5"/>
<path d="M269.984 128.777L254.706 124.694L256.489 124.219L269.984 127.824V128.777Z" fill="#9FA8B6"/>
<path d="M269.984 122.924L258.965 119.979L261.423 111.886L269.996 114.178L269.984 122.924Z" fill="#00123E"/>
<path d="M259.293 121.348L258.725 121.196L258.895 120.663L259.466 120.814L259.293 121.348Z" fill="#001230"/>
<path d="M260.221 121.593L259.65 121.442L259.822 120.908L260.391 121.06L260.221 121.593Z" fill="#001230"/>
<path d="M261.148 121.839L260.577 121.687L260.748 121.154L261.319 121.306L261.148 121.839Z" fill="#001230"/>
<path d="M262.076 122.085L261.505 121.933L261.675 121.4L262.246 121.551L262.076 122.085Z" fill="#001230"/>
<path d="M263.003 122.331L262.432 122.181L262.603 121.647L263.174 121.797L263.003 122.331Z" fill="#001230"/>
<path d="M258.989 122.299L258.42 122.147L258.59 121.614L259.161 121.765L258.989 122.299Z" fill="#001230"/>
<path d="M259.916 122.545L259.347 122.393L259.518 121.859L260.087 122.011L259.916 122.545Z" fill="#001230"/>
<path d="M260.844 122.79L260.273 122.638L260.443 122.105L261.014 122.257L260.844 122.79Z" fill="#001230"/>
<path d="M261.771 123.036L261.2 122.884L261.371 122.353L261.942 122.503L261.771 123.036Z" fill="#001230"/>
<path d="M262.699 123.282L262.128 123.132L262.298 122.598L262.869 122.748L262.699 123.282Z" fill="#001230"/>
<path d="M258.686 123.25L258.115 123.098L258.286 122.564L258.857 122.716L258.686 123.25Z" fill="#001230"/>
<path d="M259.614 123.495L259.043 123.343L259.213 122.81L259.784 122.962L259.614 123.495Z" fill="#001230"/>
<path d="M260.539 123.741L259.97 123.589L260.141 123.056L260.71 123.208L260.539 123.741Z" fill="#001230"/>
<path d="M261.467 123.987L260.896 123.835L261.068 123.304L261.637 123.454L261.467 123.987Z" fill="#001230"/>
<path d="M262.394 124.233L261.823 124.083L261.994 123.549L262.564 123.699L262.394 124.233Z" fill="#001230"/>
<path d="M258.382 124.201L257.811 124.049L257.981 123.515L258.552 123.667L258.382 124.201Z" fill="#001230"/>
<path d="M259.309 124.446L258.739 124.295L258.909 123.761L259.48 123.913L259.309 124.446Z" fill="#001230"/>
<path d="M260.235 124.692L259.666 124.54L259.836 124.007L260.405 124.159L260.235 124.692Z" fill="#001230"/>
<path d="M261.162 124.938L260.592 124.786L260.764 124.255L261.333 124.404L261.162 124.938Z" fill="#001230"/>
<path d="M262.09 125.183L261.519 125.034L261.689 124.5L262.26 124.65L262.09 125.183Z" fill="#001230"/>
<path d="M265.862 122.571C265.894 122.664 265.895 122.765 265.864 122.859C265.833 122.952 265.773 123.034 265.691 123.09C265.66 123.12 265.621 123.142 265.58 123.154C265.538 123.166 265.494 123.169 265.451 123.161C265.408 123.153 265.368 123.135 265.333 123.109C265.298 123.083 265.27 123.049 265.251 123.01C265.219 122.917 265.218 122.816 265.249 122.722C265.28 122.628 265.34 122.547 265.421 122.491C265.453 122.461 265.491 122.44 265.533 122.428C265.575 122.416 265.619 122.413 265.661 122.421C265.704 122.429 265.744 122.446 265.779 122.472C265.814 122.498 265.842 122.532 265.862 122.571Z" fill="#FF2C5D"/>
<path d="M266.761 122.82C266.793 122.913 266.794 123.015 266.763 123.108C266.733 123.202 266.672 123.283 266.591 123.34C266.56 123.369 266.521 123.392 266.48 123.404C266.438 123.416 266.395 123.419 266.352 123.411C266.309 123.404 266.269 123.386 266.234 123.36C266.199 123.334 266.171 123.301 266.152 123.262C266.119 123.169 266.118 123.067 266.148 122.974C266.179 122.88 266.239 122.798 266.321 122.742C266.352 122.712 266.39 122.69 266.432 122.678C266.474 122.665 266.518 122.663 266.561 122.671C266.603 122.678 266.644 122.696 266.679 122.722C266.714 122.748 266.742 122.781 266.761 122.82Z" fill="#00A88A"/>
<path d="M277.45 123.204L287.76 120.449V108.836L277.45 111.593V123.204Z" fill="#001230"/>
<path d="M287.76 108.836V120.449L286.558 120.127V109.158L287.76 108.836Z" fill="#B4BDC5"/>
<path d="M277.45 123.204L287.76 120.449L286.558 120.127L277.45 122.56V123.204Z" fill="#E6E7E8"/>
<path d="M252.491 148.663L255.958 148.863L255.451 153.32C255.103 154.259 252.859 153.991 252.665 152.99L252.491 148.663Z" fill="#242B52"/>
<path d="M259.908 137.222C259.077 136.886 256.703 136.195 256.06 136.405C255.008 136.732 254.087 137.383 253.428 138.265C252.503 139.497 251.024 141.449 250.409 142.886C250.035 143.751 249.284 145.724 249.973 146.282C250.422 146.649 252.333 147.88 252.333 147.88C252.333 147.88 252.214 150.525 252.545 150.865C253.59 151.949 255.75 151.264 255.75 151.264L256.924 145.325C257.625 144.856 258.302 144.35 258.951 143.811C259.752 143.123 260.307 142.166 260.413 140.762C260.491 139.645 260.742 137.558 259.908 137.222ZM252.697 145.852C252.697 145.852 251.842 145.397 251.928 144.765C252.058 143.783 252.929 142.41 253.799 141.146C254.446 140.215 254.971 140.854 254.971 140.854L252.697 145.852Z" fill="#9FA8B6"/>
<g style="mix-blend-mode:multiply" opacity="0.1">
<path d="M260.87 139.098C260.87 139.098 256.98 143.02 256.675 143.455C256.371 143.891 255.746 144.969 255.746 145.962C255.746 146.793 255.107 152.173 255.107 152.173L256.066 151.997L258.422 144.676L260.87 141.879V139.098Z" fill="#001231"/>
</g>
<g style="mix-blend-mode:multiply" opacity="0.1">
<path d="M249.41 145.852C249.41 145.852 251.141 146.19 251.377 146.278C251.613 146.366 252.737 147.149 253.118 147.411C253.498 147.672 254.32 148.369 254.32 148.369L251.828 148.064L249.742 146.901L249.41 145.852Z" fill="#001231"/>
</g>
<path d="M215.799 68.5271C240.131 82.0519 236.76 104.635 226.388 143.797C212.252 197.163 245.818 203.39 265.551 181.38C278.171 167.304 286.51 140.936 281.935 116.02" stroke="#242B52" stroke-width="6" stroke-linecap="round" stroke-linejoin="round"/>
<path opacity="0.26" d="M64.3025 90.5443L116.933 19.1045L190.179 143.403L191.185 147.71L189.015 148.953L64.3025 90.5443Z" fill="#29FF73"/>
<path d="M87.5208 102.873C116.005 102.873 139.095 79.8438 139.095 51.4363C139.095 23.0288 116.005 0 87.5208 0C59.0369 0 35.9462 23.0288 35.9462 51.4363C35.9462 79.8438 59.0369 102.873 87.5208 102.873Z" fill="#E9E9EA"/>
<path d="M87.5208 102.873C116.005 102.873 139.095 79.8438 139.095 51.4363C139.095 23.0288 116.005 0 87.5208 0C59.0369 0 35.9462 23.0288 35.9462 51.4363C35.9462 79.8438 59.0369 102.873 87.5208 102.873Z" fill="#E9E9EA"/>
<path d="M224.874 26.0527L208.047 17.6761C207.5 17.4046 206.924 17.1949 206.331 17.0508L193.685 13.6726C192.263 13.2642 190.757 13.2497 189.328 13.6306L149.534 24.2647L194.718 46.7575C195.133 46.963 195.569 47.1211 196.019 47.2289H196.028L208.74 50.6251H208.726C212.671 51.7699 217.436 48.8511 219.804 43.621L226.146 29.6187C226.437 28.9756 226.467 28.245 226.23 27.58C225.993 26.9151 225.507 26.3677 224.874 26.0527ZM202.238 36.7987C202.174 36.9405 202.108 37.0763 202.038 37.2102L201.996 37.2901C201.928 37.418 201.856 37.5438 201.782 37.6657C201.767 37.6896 201.753 37.7096 201.741 37.7316C201.669 37.8495 201.595 37.9634 201.517 38.0732C201.511 38.0853 201.504 38.0966 201.495 38.1072C201.413 38.225 201.329 38.3369 201.243 38.4468L201.191 38.5127C201.102 38.6206 201.014 38.7265 200.924 38.8264L200.89 38.8623C200.802 38.9582 200.714 39.0501 200.622 39.14L200.584 39.178C200.487 39.2699 200.383 39.3578 200.291 39.4437L200.237 39.4876L200.141 39.5655L186.766 32.907C184.689 31.8722 185.612 27.7128 188.066 27.0556L193.208 25.6831L204.686 31.3947L202.238 36.7987Z" fill="#B4BDC5"/>
<g style="mix-blend-mode:multiply" opacity="0.2">
<path d="M197.122 24.6363L200.181 24.0969C202.863 23.6228 205.626 23.9936 208.087 25.1577L215.723 28.7677C216.663 29.212 217.409 29.9823 217.822 30.9348C218.234 31.8872 218.285 32.9567 217.965 33.9439L217.666 34.8628L197.122 24.6363Z" fill="#001231"/>
</g>
<path opacity="0.2" d="M205.977 20.952C206.284 20.1583 206.064 19.3343 205.485 19.1115C204.906 18.8887 204.187 19.3514 203.88 20.145C203.573 20.9387 203.794 21.7627 204.373 21.9855C204.952 22.2083 205.67 21.7456 205.977 20.952Z" fill="white"/>
<path opacity="0.2" d="M223.375 29.7798C223.682 28.9862 223.461 28.1622 222.882 27.9394C222.303 27.7166 221.585 28.1793 221.278 28.9729C220.971 29.7666 221.191 30.5905 221.77 30.8134C222.349 31.0362 223.068 30.5735 223.375 29.7798Z" fill="white"/>
<g style="mix-blend-mode:multiply" opacity="0.3">
<path d="M217.666 34.863L204.686 31.3949L193.208 25.6833L197.122 24.6365L217.666 34.863Z" fill="#001231"/>
</g>
<g style="mix-blend-mode:multiply" opacity="0.1">
<path d="M217.666 34.8629L204.686 31.3948L202.238 36.7987L215.218 40.2668L217.666 34.8629Z" fill="#001231"/>
</g>
<g opacity="0.2">
<path d="M162.514 27.727L202.308 17.0929C203.623 16.7417 205.006 16.7252 206.329 17.045L193.683 13.6667C192.261 13.2583 190.755 13.2438 189.326 13.6248L149.532 24.2589L162.514 27.727Z" fill="white"/>
</g>
<path opacity="0.2" d="M200.141 39.5657L208.7 43.8249C210.904 44.9257 213.83 43.3335 215.219 40.2669L202.238 36.7988C201.765 37.8713 201.046 38.8188 200.141 39.5657Z" fill="white"/>
<path d="M220.699 69.7263C221.956 67.6956 221.6 65.2027 219.904 64.1583C218.207 63.1138 215.813 63.9133 214.556 65.944C213.299 67.9747 213.655 70.4675 215.351 71.512C217.048 72.5564 219.442 71.757 220.699 69.7263Z" fill="#B4BDC5"/>
<path d="M220.699 69.7263C221.956 67.6956 221.6 65.2027 219.904 64.1583C218.207 63.1138 215.813 63.9133 214.556 65.944C213.299 67.9747 213.655 70.4675 215.351 71.512C217.048 72.5564 219.442 71.757 220.699 69.7263Z" fill="#9AE9FF"/>
<path d="M220.699 69.7263C221.956 67.6956 221.6 65.2027 219.904 64.1583C218.207 63.1138 215.813 63.9133 214.556 65.944C213.299 67.9747 213.655 70.4675 215.351 71.512C217.048 72.5564 219.442 71.757 220.699 69.7263Z" fill="#9AE9FF"/>
<path d="M220.699 69.7263C221.956 67.6956 221.6 65.2027 219.904 64.1583C218.207 63.1138 215.813 63.9133 214.556 65.944C213.299 67.9747 213.655 70.4675 215.351 71.512C217.048 72.5564 219.442 71.757 220.699 69.7263Z" fill="#242B52"/>
<path d="M198.548 64.184L216.042 71.8734L220.529 64.6654L207.012 51.5122L198.548 64.184Z" fill="#242B52"/>
<path d="M208.245 61.1937C210.461 57.6149 209.832 53.221 206.842 51.3796C203.851 49.5381 199.631 50.9465 197.415 54.5253C195.2 58.1042 195.828 62.4981 198.819 64.3395C201.81 66.1809 206.03 64.7725 208.245 61.1937Z" fill="#001230"/>
<path d="M201.255 69.38L201.17 69.3381L179.765 58.5502L188.813 40.3706L210.082 51.0806C210.167 51.1205 210.251 51.1625 210.335 51.2064L210.405 51.2424C210.735 51.4225 211.051 51.6283 211.348 51.8577C215.086 54.7385 215.599 60.8336 212.494 65.4704C209.73 69.5998 205.031 71.178 201.395 69.44L201.255 69.38Z" fill="#242B52"/>
<g style="mix-blend-mode:multiply" opacity="0.1">
<path d="M175.892 55.044L212.863 73.5808L216.532 66.3038L179.56 47.767L175.892 55.044Z" fill="#001231"/>
</g>
<path opacity="0.2" d="M181.108 44.5166L218.08 63.0535L220.679 57.8987L183.707 39.3619L181.108 44.5166Z" fill="white"/>
<path d="M192.247 53.0943C194.572 47.9882 192.999 42.2818 188.732 40.3489C184.465 38.4159 179.121 40.9883 176.796 46.0944C174.47 51.2005 176.043 56.9068 180.31 58.8398C184.577 60.7727 189.921 58.2004 192.247 53.0943Z" fill="#001230"/>
<path d="M198.627 68.563L198.536 68.5171L175.827 57.0799L185.428 37.7896L207.991 49.1508C208.079 49.1948 208.17 49.2387 208.258 49.2867L208.332 49.3246C208.682 49.5148 209.017 49.7326 209.333 49.9759C213.299 53.0324 213.842 59.4992 210.549 64.4177C207.617 68.7988 202.633 70.4729 198.775 68.6309L198.627 68.563Z" fill="#B4BDC5"/>
<g style="mix-blend-mode:multiply" opacity="0.1">
<path d="M171.715 53.3575L210.936 73.0222L214.827 65.3025L175.606 45.6378L171.715 53.3575Z" fill="#001231"/>
</g>
<path opacity="0.2" d="M177.25 42.1897L216.471 61.8545L219.228 56.3856L180.006 36.7208L177.25 42.1897Z" fill="white"/>
<path d="M189.064 51.2805C191.531 45.864 189.862 39.8107 185.335 37.76C180.808 35.7093 175.139 38.4378 172.672 43.8543C170.205 49.2708 171.874 55.3243 176.401 57.375C180.927 59.4257 186.597 56.697 189.064 51.2805Z" fill="#001230"/>
<path d="M144.199 21.8814L164.703 16.4016C166.837 15.8322 167.648 16.1399 168.82 16.4535L180.626 19.608C186.281 21.4879 190.804 29.1573 193.909 34.1916C196.002 37.5878 197.18 39.6974 197.18 40.964V55.26C197.18 59.3094 195.165 62.2401 192.303 62.9374L162.099 71.0163L144.199 21.8814Z" fill="#B4BDC5"/>
<path opacity="0.2" d="M189.417 9.17954L142.558 21.7017L144.739 29.8198L191.598 17.2977L189.417 9.17954Z" fill="white"/>
<path opacity="0.2" d="M186.126 7.16051L149.02 17.0798L150.622 23.0386L187.728 13.1193L186.126 7.16051Z" fill="white"/>
<g style="mix-blend-mode:multiply" opacity="0.1">
<path d="M198.082 29.1487L155.679 40.48L163.174 68.3775L205.577 57.0462L198.082 29.1487Z" fill="#001231"/>
</g>
<g style="mix-blend-mode:multiply" opacity="0.1">
<path d="M202.607 55.8208L160.025 67.2039L162.278 75.585L204.859 64.2019L202.607 55.8208Z" fill="#001231"/>
</g>
<path d="M141.299 22.6487L143.322 22.1073C144.395 21.8021 145.532 21.8021 146.605 22.1073L158.414 25.2638C162.781 26.4305 166.322 31.7285 166.322 37.0985V63.4989C166.322 67.5483 164.309 70.479 161.444 71.1763L159.423 71.7156L141.299 22.6487Z" fill="#242B52"/>
<path opacity="0.1" d="M158.558 17.4166L140.769 22.1704L142.95 30.2886L160.739 25.5348L158.558 17.4166Z" fill="white"/>
<path opacity="0.1" d="M158.661 14.512L142.451 18.8455L143.779 23.7889L159.99 19.4553L158.661 14.512Z" fill="white"/>
<g style="mix-blend-mode:multiply" opacity="0.2">
<path d="M177.938 34.2708L153.99 40.6726L161.519 68.6878L185.467 62.286L177.938 34.2708Z" fill="#001231"/>
</g>
<path d="M144.334 22.7186L156.14 25.873C160.509 27.0397 164.051 32.3398 164.051 37.7098V64.1101C164.051 69.4801 160.509 72.8863 156.14 71.7196L144.334 68.5632C139.965 67.3965 136.425 62.0964 136.425 56.7264V30.3241C136.425 24.9581 139.965 21.5499 144.334 22.7186Z" fill="#43596D"/>
<path d="M142.515 50.3015L142.605 50.2775C143.443 50.0904 144.314 50.1138 145.141 50.3454L155.325 53.0664C159.053 54.0653 162.085 58.6022 162.085 63.187C162.085 66.6711 160.333 69.1803 157.853 69.7617L143.288 73.6753L127.744 54.263L142.515 50.3015Z" fill="#242B52"/>
<g style="mix-blend-mode:multiply" opacity="0.2">
<path d="M158.296 48.0151L127.731 56.1831L129.315 62.0783L159.88 53.9103L158.296 48.0151Z" fill="#001231"/>
</g>
<path opacity="0.1" d="M139.982 49.3415L125.037 53.3352L125.598 55.425L140.543 51.4313L139.982 49.3415Z" fill="white"/>
<g style="mix-blend-mode:multiply" opacity="0.2">
<path d="M163.624 62.9011L138.492 69.6172L139.578 73.6579L164.71 66.9419L163.624 62.9011Z" fill="#001231"/>
</g>
<g style="mix-blend-mode:multiply" opacity="0.2">
<path d="M156.981 47.4365L126.056 55.7007L127.64 61.5959L158.565 53.3317L156.981 47.4365Z" fill="#001231"/>
</g>
<path d="M130.304 54.319L140.486 57.04C144.216 58.0389 147.248 62.5758 147.248 67.1586C147.248 71.7415 144.216 74.6602 140.486 73.6633L130.304 70.9424C126.576 69.9435 123.541 65.4066 123.541 60.8238C123.541 56.2409 126.576 53.3222 130.304 54.319Z" fill="#7D8091"/>
<path d="M140.121 73.3138C143.661 74.2587 146.531 71.4898 146.531 67.1387C146.531 62.7876 143.653 58.4804 140.121 57.5335L130.049 54.8405C126.51 53.8955 123.639 56.6644 123.639 61.0156C123.639 65.3667 126.518 69.6738 130.049 70.6188L140.121 73.3138Z" fill="#566576"/>
<path d="M130.049 56.029L140.129 58.724C143.134 59.5231 145.58 63.185 145.58 66.8808C145.58 70.5767 143.134 72.9261 140.129 72.123L130.049 69.43C127.045 68.6309 124.599 64.967 124.599 61.2732C124.599 57.5793 127.045 55.2259 130.049 56.029Z" fill="#242B52"/>
<path d="M149.075 62.7334C151.022 62.2131 152.022 59.6401 151.31 56.9864C150.597 54.3327 148.44 52.6033 146.493 53.1236C144.546 53.6439 143.546 56.2169 144.259 58.8706C144.972 61.5243 147.128 63.2537 149.075 62.7334Z" fill="#43596D"/>
<path d="M146.494 53.1335L129.844 57.5828L132.426 67.1907L149.075 62.7414L146.494 53.1335Z" fill="#001240"/>
<g style="mix-blend-mode:multiply" opacity="0.4">
<path d="M148.114 59.1628L131.464 63.6121L132.168 66.2326L148.818 61.7833L148.114 59.1628Z" fill="#242B52"/>
</g>
<path opacity="0.1" d="M146.695 53.8801L130.045 58.3293L130.633 60.5176L147.283 56.0684L146.695 53.8801Z" fill="white"/>
<g style="mix-blend-mode:multiply" opacity="0.1">
<path d="M150.93 61.2155L148.813 61.7768L148.115 59.1558L151.521 58.2468C151.615 59.2725 151.41 60.3034 150.93 61.2155Z" fill="#242B52"/>
</g>
<path opacity="0.2" d="M150.529 55.198L147.284 56.0671L146.693 53.8695L148.57 53.3601C149.379 53.7831 150.057 54.4187 150.529 55.198Z" fill="white"/>
<path d="M132.464 67.1712C134.411 66.6509 135.411 64.0779 134.698 61.4242C133.985 58.7705 131.829 57.0411 129.882 57.5614C127.935 58.0816 126.935 60.6547 127.648 63.3083C128.361 65.962 130.517 67.6915 132.464 67.1712Z" fill="#43596D"/>
<path opacity="0.2" d="M132.119 65.3314C133.262 64.8917 133.697 63.2652 133.09 61.6986C132.484 60.1319 131.067 59.2183 129.924 59.658C128.781 60.0977 128.347 61.7242 128.953 63.2908C129.559 64.8575 130.977 65.7711 132.119 65.3314Z" fill="white"/>
<path d="M129.547 61.9325C129.547 63.1152 130.326 64.2819 131.287 64.5296C132.249 64.7773 133.028 64.0362 133.028 62.8535C133.028 61.6708 132.249 60.5041 131.287 60.2564C130.326 60.0087 129.547 60.7499 129.547 61.9325Z" fill="#242B52"/>
<g style="mix-blend-mode:multiply" opacity="0.2">
<path d="M133.328 63.7586C133.964 63.1088 133.753 61.8748 132.857 61.0023C131.961 60.1299 130.719 59.9494 130.083 60.5991C129.446 61.2489 129.657 62.4829 130.553 63.3553C131.45 64.2278 132.692 64.4083 133.328 63.7586Z" fill="#242B52"/>
</g>
<g style="mix-blend-mode:multiply" opacity="0.4">
<path d="M130.272 62.6038C131.021 63.5208 132.363 63.9363 133.276 63.5308C134.19 63.1252 134.316 62.0524 133.567 61.1335C132.818 60.2145 131.478 59.801 130.562 60.2065C129.647 60.6121 129.524 61.6888 130.272 62.6038Z" fill="#242B52"/>
</g>
<path d="M159.154 65.4356C161.101 64.9153 162.101 62.3423 161.388 59.6886C160.675 57.0349 158.519 55.3054 156.572 55.8257C154.625 56.346 153.624 58.9191 154.337 61.5727C155.05 64.2264 157.207 65.9559 159.154 65.4356Z" fill="#43596D"/>
<path d="M156.572 55.8259L139.923 60.2751L142.504 69.883L159.154 65.4338L156.572 55.8259Z" fill="#001240"/>
<g style="mix-blend-mode:multiply" opacity="0.4">
<path d="M158.193 61.8571L141.543 66.3064L142.247 68.9269L158.897 64.4776L158.193 61.8571Z" fill="#242B52"/>
</g>
<path opacity="0.1" d="M156.774 56.5763L140.125 61.0256L140.712 63.2139L157.362 58.7646L156.774 56.5763Z" fill="white"/>
<g style="mix-blend-mode:multiply" opacity="0.1">
<path d="M161.01 63.9084L158.892 64.4697L158.195 61.8487L161.601 60.9397C161.695 61.9654 161.49 62.9964 161.01 63.9084Z" fill="#242B52"/>
</g>
<path opacity="0.2" d="M160.609 57.8931L157.364 58.7621L156.773 56.5645L158.65 56.0571C159.459 56.4796 160.136 57.1144 160.609 57.8931Z" fill="white"/>
<path d="M142.545 69.8694C144.492 69.3491 145.492 66.7761 144.779 64.1224C144.066 61.4687 141.91 59.7393 139.963 60.2596C138.016 60.7799 137.016 63.3529 137.729 66.0066C138.442 68.6603 140.598 70.3897 142.545 69.8694Z" fill="#43596D"/>
<path opacity="0.2" d="M142.201 68.0326C143.344 67.5929 143.779 65.9664 143.173 64.3997C142.567 62.833 141.149 61.9194 140.006 62.3591C138.864 62.7988 138.429 64.4253 139.035 65.992C139.641 67.5587 141.059 68.4723 142.201 68.0326Z" fill="white"/>
<path d="M139.626 64.6275C139.626 65.8081 140.406 66.9748 141.367 67.2246C142.329 67.4743 143.108 66.7311 143.108 65.5484C143.108 64.3658 142.329 63.2011 141.367 62.9513C140.406 62.7016 139.626 63.4448 139.626 64.6275Z" fill="#242B52"/>
<g style="mix-blend-mode:multiply" opacity="0.2">
<path d="M143.405 66.4492C144.041 65.7995 143.83 64.5655 142.934 63.693C142.038 62.8206 140.796 62.64 140.16 63.2898C139.524 63.9396 139.735 65.1736 140.631 66.046C141.527 66.9185 142.769 67.099 143.405 66.4492Z" fill="#242B52"/>
</g>
<g style="mix-blend-mode:multiply" opacity="0.4">
<path d="M140.352 65.2968C141.101 66.2157 142.443 66.6292 143.356 66.2237C144.27 65.8181 144.396 64.7473 143.647 63.8264C142.897 62.9054 141.557 62.4939 140.642 62.8994C139.726 63.305 139.604 64.3798 140.352 65.2968Z" fill="#242B52"/>
</g>
<path d="M142.365 25.4334C143.114 25.2027 143.915 25.193 144.67 25.4054L155.806 28.382C157.691 28.8855 159.457 30.5796 160.413 32.8211C161.578 35.4973 162.146 38.3946 162.075 41.3115C161.955 45.0294 160.673 48.1998 158.442 50.2355C157.36 51.2406 156.03 51.9416 154.588 52.2672L144.963 54.8383L132.231 28.1363L142.365 25.4334Z" fill="#242B52"/>
<path opacity="0.1" d="M155.394 21.3264L130.196 28.0601L132.082 35.0783L157.28 28.3447L155.394 21.3264Z" fill="white"/>
<path opacity="0.1" d="M151.094 19.5911L134.883 23.9246L136.212 28.868L152.422 24.5345L151.094 19.5911Z" fill="white"/>
<g style="mix-blend-mode:multiply" opacity="0.2">
<path d="M162.763 41.6951L138.916 48.0679L140.673 54.6076L164.52 48.2348L162.763 41.6951Z" fill="#001231"/>
</g>
<path d="M129.671 30.1842C130.634 28.4442 132.409 27.677 134.3 28.1865L145.435 31.1611C147.32 31.6645 149.087 33.3587 150.043 35.6001C151.209 38.2761 151.777 41.1736 151.705 44.0906C151.585 47.8104 150.303 50.9789 148.074 53.0146C145.844 55.0503 142.948 55.7256 139.897 54.9205H139.861C136.696 54.0754 133.719 51.764 131.48 48.4138C129.249 45.0877 128.042 41.1837 128.008 37.1824C128.014 34.5513 128.587 32.136 129.671 30.1842Z" fill="#7D8091"/>
<path d="M139.32 54.1194C142.176 54.8725 144.891 54.2392 146.968 52.3374C149.045 50.4355 150.251 47.4728 150.363 43.9987C150.43 41.272 149.9 38.5635 148.811 36.0616C147.987 34.1518 146.475 32.6954 144.861 32.2659L133.725 29.2912C132.107 28.8577 130.586 29.515 129.761 31.0053C128.749 32.8293 128.214 35.0867 128.214 37.534C128.245 41.2737 129.374 44.9225 131.46 48.0302C133.551 51.1627 136.333 53.3223 139.294 54.1134L139.32 54.1194Z" fill="#566576"/>
<path d="M130.592 31.8323C130.874 31.2771 131.341 30.8377 131.913 30.5903C132.485 30.3429 133.127 30.3031 133.725 30.4778L144.861 33.4544C146.137 33.7941 147.33 34.9428 147.979 36.4511C148.974 38.7343 149.458 41.2063 149.398 43.695C149.293 46.8634 148.196 49.5644 146.297 51.3024C144.398 53.0405 141.924 53.6158 139.32 52.9286H139.294C136.592 52.2054 134.054 50.2356 132.143 47.3768C130.239 44.5371 129.209 41.2037 129.182 37.7876C129.182 35.5581 129.669 33.4964 130.592 31.8323Z" fill="#242B52"/>
<path d="M141.537 28.9036C142.19 27.7249 143.39 27.2055 144.67 27.5491L155.806 30.5238C157.08 30.8654 158.275 32.0121 158.924 33.5204C159.918 35.8038 160.402 38.2757 160.341 40.7643C160.239 43.9327 159.139 46.6337 157.24 48.3717C155.341 50.1098 152.867 50.6871 150.265 49.9999H150.237C147.537 49.2787 144.997 47.3069 143.088 44.4501C141.182 41.611 140.152 38.2773 140.125 34.8609C140.125 32.6274 140.614 30.5677 141.537 28.9036Z" fill="black"/>
<path d="M153.792 36.7289C154.259 38.4709 153.602 40.157 152.326 40.4987C151.05 40.8403 149.634 39.6995 149.165 37.9655C148.696 36.2314 149.353 34.5373 150.631 34.1957C151.909 33.8541 153.324 34.9888 153.792 36.7289Z" fill="#43596D"/>
<path d="M150.631 34.2021L139.709 37.1208L141.403 43.4251L152.325 40.5064L150.631 34.2021Z" fill="#001240"/>
<g style="mix-blend-mode:multiply" opacity="0.4">
<path d="M151.694 38.1584L140.771 41.0771L141.233 42.7965L152.156 39.8777L151.694 38.1584Z" fill="#242B52"/>
</g>
<path opacity="0.1" d="M156.231 34.2942L145.263 37.2263L145.65 38.668L156.619 35.7359L156.231 34.2942Z" fill="white"/>
<g style="mix-blend-mode:multiply" opacity="0.1">
<path d="M153.544 39.5016L152.154 39.8692L151.695 38.1491L153.931 37.5498C153.992 38.2239 153.858 38.9016 153.544 39.5016Z" fill="#242B52"/>
</g>
<path opacity="0.2" d="M153.286 35.5542L151.156 36.1236L150.77 34.6852L152.002 34.3516C152.532 34.6281 152.976 35.044 153.286 35.5542Z" fill="white"/>
<path d="M142.895 39.6415C143.362 41.3815 142.705 43.0696 141.429 43.4113C140.153 43.7529 138.737 42.6121 138.268 40.8781C137.799 39.144 138.456 37.4499 139.734 37.1083C141.012 36.7667 142.427 37.9014 142.895 39.6415Z" fill="#43596D"/>
<path opacity="0.2" d="M141.201 42.1969C141.95 41.9085 142.235 40.8411 141.837 39.8128C141.439 38.7845 140.509 38.1846 139.76 38.473C139.011 38.7613 138.726 39.8287 139.124 40.8571C139.521 41.8854 140.451 42.4852 141.201 42.1969Z" fill="white"/>
<path d="M139.514 39.9731C139.514 40.7482 140.025 41.5133 140.656 41.6812C141.287 41.849 141.8 41.3575 141.8 40.5824C141.8 39.8073 141.287 39.0421 140.656 38.8723C140.025 38.7025 139.514 39.196 139.514 39.9731Z" fill="#242B52"/>
<g style="mix-blend-mode:multiply" opacity="0.2">
<path d="M139.746 40.3128C140.071 41.018 140.854 41.5115 141.499 41.3936C142.144 41.2757 142.403 40.6245 142.08 39.9193C141.758 39.2141 140.97 38.7206 140.327 38.8385C139.684 38.9563 139.424 39.5976 139.746 40.3128Z" fill="#242B52"/>
</g>
<g style="mix-blend-mode:multiply" opacity="0.4">
<path d="M139.991 40.4127C140.482 41.012 141.361 41.2857 141.958 41.012C142.555 40.7383 142.641 40.0431 142.158 39.4418C141.675 38.8404 140.786 38.5667 140.189 38.8424C139.592 39.1181 139.5 39.8113 139.991 40.4127Z" fill="#242B52"/>
</g>
<path d="M149.59 31.0533C149.88 32.1341 149.474 33.1829 148.678 33.3946C147.883 33.6064 147.006 32.9012 146.715 31.8204C146.425 30.7396 146.834 29.6908 147.627 29.479C148.42 29.2673 149.299 29.9705 149.59 31.0533Z" fill="#43596D"/>
<path d="M147.627 29.4795L137.086 32.2964L138.138 36.2117L148.679 33.3948L147.627 29.4795Z" fill="#001240"/>
<g style="mix-blend-mode:multiply" opacity="0.4">
<path d="M148.289 31.9389L137.748 34.7559L138.035 35.8249L148.576 33.008L148.289 31.9389Z" fill="#242B52"/>
</g>
<path opacity="0.1" d="M147.709 29.7866L137.168 32.6035L137.408 33.495L147.949 30.6781L147.709 29.7866Z" fill="white"/>
<g style="mix-blend-mode:multiply" opacity="0.1">
<path d="M149.436 32.7754L148.572 33.0031L148.288 31.9343L149.676 31.5647C149.715 31.9829 149.631 32.4035 149.436 32.7754Z" fill="#242B52"/>
</g>
<path opacity="0.2" d="M149.279 30.3239L147.957 30.6775L147.717 29.7845L148.482 29.5847C148.81 29.7544 149.086 30.0099 149.279 30.3239Z" fill="white"/>
<path d="M138.155 36.2074C138.949 35.9953 139.357 34.9463 139.067 33.8646C138.776 32.7829 137.897 32.078 137.103 32.2902C136.309 32.5023 135.901 33.5512 136.192 34.633C136.482 35.7147 137.361 36.4196 138.155 36.2074Z" fill="#43596D"/>
<path opacity="0.2" d="M136.66 34.0099C136.66 34.6452 137.078 35.2725 137.595 35.4083C138.112 35.5442 138.533 35.1446 138.533 34.5074C138.533 33.8701 138.114 33.2448 137.595 33.1089C137.076 32.9731 136.66 33.3746 136.66 34.0099Z" fill="white"/>
<path d="M138.01 35.0435C138.35 34.9128 138.479 34.4297 138.299 33.9644C138.119 33.4992 137.698 33.2279 137.358 33.3586C137.019 33.4893 136.889 33.9724 137.069 34.4377C137.249 34.9029 137.671 35.1742 138.01 35.0435Z" fill="#242B52"/>
<g style="mix-blend-mode:multiply" opacity="0.2">
<path d="M137.134 34.2375C137.335 34.667 137.809 34.9607 138.202 34.8948C138.595 34.8289 138.753 34.4273 138.555 33.9978C138.356 33.5683 137.88 33.2726 137.487 33.3385C137.094 33.4045 136.936 33.806 137.134 34.2375Z" fill="#242B52"/>
</g>
<g style="mix-blend-mode:multiply" opacity="0.4">
<path d="M137.283 34.3034C137.581 34.671 138.118 34.8368 138.484 34.673C138.851 34.5092 138.901 34.0737 138.603 33.7161C138.304 33.3585 137.765 33.1847 137.401 33.3465C137.036 33.5083 136.984 33.9358 137.283 34.3034Z" fill="#242B52"/>
</g>
<path d="M155.565 32.6494C155.856 33.7302 155.447 34.779 154.654 34.9908C153.86 35.2025 152.981 34.4993 152.691 33.4165C152.4 32.3337 152.807 31.2869 153.602 31.0752C154.397 30.8634 155.275 31.5686 155.565 32.6494Z" fill="#43596D"/>
<path d="M153.601 31.0754L143.059 33.8923L144.111 37.8077L154.653 34.9907L153.601 31.0754Z" fill="#001240"/>
<g style="mix-blend-mode:multiply" opacity="0.4">
<path d="M154.263 33.5351L143.721 36.3521L144.009 37.4211L154.55 34.6042L154.263 33.5351Z" fill="#242B52"/>
</g>
<path opacity="0.1" d="M153.685 31.3823L143.144 34.1992L143.383 35.0907L153.925 32.2738L153.685 31.3823Z" fill="white"/>
<g style="mix-blend-mode:multiply" opacity="0.1">
<path d="M155.411 34.3715L154.547 34.5993L154.263 33.5325L155.651 33.1609C155.689 33.5791 155.605 33.9992 155.411 34.3715Z" fill="#242B52"/>
</g>
<path opacity="0.2" d="M155.247 31.9223L153.925 32.2759L153.684 31.3829L154.447 31.1831C154.776 31.3528 155.052 31.6082 155.247 31.9223Z" fill="white"/>
<path d="M149.569 37.4131C150.366 37.2 150.776 36.1466 150.484 35.0603C150.192 33.974 149.309 33.2662 148.512 33.4793C147.714 33.6924 147.305 34.7458 147.597 35.8321C147.889 36.9184 148.772 37.6262 149.569 37.4131Z" fill="#43596D"/>
<path opacity="0.2" d="M142.625 35.606C142.625 36.2413 143.046 36.8686 143.562 37.0045C144.079 37.1403 144.498 36.7408 144.498 36.1055C144.498 35.4702 144.079 34.8409 143.562 34.7071C143.046 34.5732 142.625 34.9708 142.625 35.606Z" fill="white"/>
<path d="M142.965 35.6321C142.965 36.1036 143.278 36.5711 143.663 36.6729C144.047 36.7748 144.358 36.4732 144.358 36.0037C144.358 35.5342 144.047 35.0647 143.663 34.9628C143.278 34.861 142.965 35.1586 142.965 35.6321Z" fill="#242B52"/>
<g style="mix-blend-mode:multiply" opacity="0.2">
<path d="M143.108 35.8337C143.308 36.2632 143.783 36.5569 144.175 36.491C144.568 36.4251 144.726 36.0235 144.53 35.594C144.334 35.1645 143.855 34.8688 143.462 34.9347C143.07 35.0007 142.911 35.4042 143.108 35.8337Z" fill="#242B52"/>
</g>
<g style="mix-blend-mode:multiply" opacity="0.4">
<path d="M143.256 35.8997C143.556 36.2672 144.093 36.4331 144.458 36.2712C144.822 36.1094 144.872 35.6719 144.574 35.3123C144.275 34.9527 143.739 34.7809 143.372 34.9427C143.005 35.1045 142.957 35.5341 143.256 35.8997Z" fill="#242B52"/>
</g>
<path d="M141.716 29.3671L144.572 28.604L141.716 27.8408L138.861 28.604L141.716 29.3671Z" fill="#001230"/>
<path d="M152.759 45.5248L155.389 44.8216V42.3384L152.759 43.0416V45.5248Z" fill="#001230"/>
<path d="M152.759 66.797L155.389 66.0938V63.6106L152.759 64.3138V66.797Z" fill="#001230"/>
<path d="M153.79 23.3297L159.784 22.9002L155.395 21.7275L153.79 23.3297Z" fill="#00FF8B"/>
<g style="mix-blend-mode:multiply" opacity="0.1">
<path d="M170.392 50.9148L193.388 44.7697C194.438 44.4881 195.291 45.2991 195.291 46.5797L168.489 53.7417C168.489 52.4611 169.343 51.1945 170.392 50.9148Z" fill="#001231"/>
</g>
<path opacity="0.2" d="M193.388 49.4067L170.392 55.5518C169.343 55.8315 168.489 55.0224 168.489 53.7418L195.291 46.5798C195.291 47.8604 194.438 49.125 193.388 49.4067Z" fill="white"/>
<g style="mix-blend-mode:multiply" opacity="0.1">
<path d="M170.392 57.3517L193.388 51.2066C194.438 50.927 195.291 51.736 195.291 53.0166L168.489 60.1786C168.489 58.892 169.343 57.6334 170.392 57.3517Z" fill="#001231"/>
</g>
<path opacity="0.2" d="M193.388 55.8434L170.392 61.9885C169.343 62.2702 168.489 61.4591 168.489 60.1786L195.291 53.0166C195.291 54.2972 194.438 55.5637 193.388 55.8434Z" fill="white"/>
<path d="M57.0892 78.7137V40.4227C57.0892 32.0581 63.4331 23.5796 71.2593 21.49L103.782 12.7977C111.606 10.7061 117.952 15.7944 117.952 24.159V62.45C117.952 70.8166 111.606 79.2931 103.782 81.3848L71.2593 90.075C63.4331 92.1666 57.0892 87.0804 57.0892 78.7137Z" fill="#152141"/>
<path d="M48.1012 76.3063V38.0153C48.1012 29.6506 54.4452 21.1722 62.2714 19.0825L94.7942 10.3903C102.62 8.2986 108.964 13.3869 108.964 21.7515V60.0425C108.964 68.4092 102.62 76.8857 94.7942 78.9773L62.2714 87.6596C54.4452 89.7592 48.1012 84.6729 48.1012 76.3063Z" fill="#001231"/>
<path d="M90.187 18.0757L79.1457 21.0264C71.7602 23.0002 65.7507 31.9921 65.7507 41.0699V67.8399C65.7507 76.9177 71.7602 82.6972 79.1457 80.7254L90.187 77.7727C97.5725 75.8009 103.582 66.809 103.582 57.7292V30.9593C103.584 21.8835 97.5745 16.1019 90.187 18.0757Z" fill="#001240"/>
<path d="M90.2471 20.4811L79.2038 23.4318C72.8859 25.1199 67.746 32.8212 67.746 40.5785V67.3485C67.746 75.1158 72.8859 80.0602 79.2038 78.3721L90.2471 75.4214C96.5649 73.7333 101.705 66.032 101.705 58.2727V31.5027C101.705 23.7315 96.5649 18.791 90.2471 20.4811Z" fill="#566575"/>
<path d="M89.2575 24.858L79.8869 27.3632C74.5225 28.7956 70.1556 35.3183 70.1556 41.9109V64.6454C70.1556 71.238 74.5185 75.4333 79.8829 74.0009L89.2535 71.4977C94.6179 70.0633 98.9807 63.5346 98.9807 56.942V34.2155C98.9847 27.6229 94.6219 23.4256 89.2575 24.858Z" fill="#001231"/>
<path opacity="0.1" d="M83.8727 47.18L93.5529 49.7668L94.4005 46.6118L84.7204 44.025L83.8727 47.18Z" fill="white"/>
<g style="mix-blend-mode:multiply" opacity="0.2">
<path d="M82.929 48.7518L92.6091 51.3386L92.9399 50.1075L83.2598 47.5207L82.929 48.7518Z" fill="#242B52"/>
</g>
<path opacity="0.1" d="M70.6425 70.7905L82.2566 73.893L92.4325 69.0045L72.5494 63.6904L70.6425 70.7905Z" fill="white"/>
<path opacity="0.1" d="M72.235 30.0302L80.4498 32.2258L89.2636 29.8704L79.1538 27.1694L72.235 30.0302Z" fill="white"/>
<path d="M91.5892 54.437L81.7918 51.8199C79.8339 51.2958 77.7905 51.1688 75.7824 51.4463L70.0996 52.2295L69.6208 66.9849L77.2507 69.0226L91.5892 54.437Z" fill="#001240"/>
<path d="M89.7083 54.4809L79.6285 57.1738C76.9383 57.893 74.7589 61.1554 74.7589 64.4617C74.7589 67.7679 76.9383 69.8556 79.6285 69.1464L89.7083 66.4534C92.3985 65.7342 94.5779 62.4719 94.5779 59.1656C94.5779 55.8593 92.3905 53.7617 89.7083 54.4809Z" fill="#00FF8B"/>
<path d="M81.0222 41.977C81.6881 40.256 81.2105 38.4692 79.9554 37.9862C78.7003 37.5032 77.1431 38.5069 76.4772 40.228C75.8113 41.9491 76.2889 43.7358 77.544 44.2188C78.799 44.7018 80.3563 43.6981 81.0222 41.977Z" fill="#001231"/>
<path d="M87.2404 38.8305C87.2404 40.5765 86.0886 42.3006 84.6684 42.6801C83.2482 43.0597 82.0963 41.953 82.0963 40.2049C82.0963 38.4569 83.2482 36.7348 84.6684 36.3552C86.0886 35.9757 87.2404 37.0844 87.2404 38.8305Z" fill="#001231"/>
<path d="M83.8459 47.5473C84.5118 45.8262 84.0342 44.0394 82.7792 43.5564C81.5241 43.0734 79.9668 44.0771 79.3009 45.7982C78.635 47.5193 79.1126 49.3061 80.3677 49.7891C81.6228 50.2721 83.18 49.2684 83.8459 47.5473Z" fill="#001231"/>
<path d="M90.0364 45.885C90.7023 44.1639 90.2248 42.3771 88.9697 41.8941C87.7146 41.4112 86.1574 42.4149 85.4915 44.1359C84.8256 45.857 85.3032 47.6437 86.5583 48.1267C87.8133 48.6097 89.3705 47.6061 90.0364 45.885Z" fill="#001231"/>
<path d="M83.2781 34.6771C83.2781 35.7619 82.563 36.8327 81.6756 37.0744C80.7882 37.3161 80.0731 36.6209 80.0731 35.5381C80.0731 34.4553 80.7882 33.3825 81.6756 33.1408C82.563 32.8991 83.2781 33.5943 83.2781 34.6771Z" fill="#001231"/>
<path d="M89.0608 34.0478C89.4742 32.9794 89.1776 31.87 88.3984 31.5701C87.6191 31.2703 86.6523 31.8934 86.2389 32.9619C85.8255 34.0303 86.1221 35.1396 86.9013 35.4395C87.6806 35.7393 88.6474 35.1163 89.0608 34.0478Z" fill="#001231"/>
<path d="M93.4061 61.8902C94.4889 59.0914 93.7118 56.1856 91.6702 55.3999C89.6287 54.6143 87.0959 56.2463 86.013 59.0451C84.9301 61.8439 85.7073 64.7497 87.7488 65.5353C89.7903 66.321 92.3232 64.689 93.4061 61.8902Z" fill="#242B52"/>
<g style="mix-blend-mode:multiply" opacity="0.2">
<path d="M91.5134 62.6316C93.6659 60.536 94.1716 57.5712 92.643 56.0096C91.1145 54.4479 88.1304 54.8808 85.9779 56.9764C83.8255 59.0719 83.3197 62.0367 84.8483 63.5984C86.3769 65.16 89.361 64.7272 91.5134 62.6316Z" fill="#242B52"/>
</g>
<g style="mix-blend-mode:multiply" opacity="0.2">
<path d="M90.1674 62.6444C92.7777 61.1535 94.0121 58.4097 92.9246 56.5159C91.8371 54.6221 88.8395 54.2954 86.2292 55.7863C83.619 57.2772 82.3845 60.0211 83.472 61.9149C84.5595 63.8087 87.5572 64.1353 90.1674 62.6444Z" fill="#242B52"/>
</g>
<path d="M84.7509 60.5751L88.5336 61.5859L89.2687 58.8496L85.4861 57.8388L84.7509 60.5751Z" fill="#7D8191"/>
<g style="mix-blend-mode:multiply" opacity="0.1">
<path d="M84.8228 60.3033L88.6056 61.3142L88.8062 60.5674L85.0235 59.5566L84.8228 60.3033Z" fill="#242B52"/>
</g>
<path opacity="0.2" d="M85.2626 58.6713L89.0453 59.6821L89.2127 59.0588L85.4301 58.048L85.2626 58.6713Z" fill="white"/>
<path d="M87.8893 59.9387C87.689 60.6959 87.9715 61.4291 88.5263 61.5769C89.0812 61.7247 89.6942 61.2313 89.8985 60.4761C90.1028 59.721 89.8163 58.9878 89.2615 58.84C88.7066 58.6921 88.0916 59.1836 87.8893 59.9387Z" fill="#B4BDC5"/>
<g style="mix-blend-mode:multiply" opacity="0.2">
<path d="M88.4361 60.0907C88.3219 60.5142 88.4822 60.9257 88.7927 61.0076C89.1032 61.0895 89.4498 60.8079 89.564 60.3903C89.6781 59.9728 89.5178 59.5553 89.2073 59.4734C88.8969 59.3915 88.5503 59.6612 88.4361 60.0907Z" fill="#242B52"/>
</g>
<g style="mix-blend-mode:multiply" opacity="0.2">
<path d="M87.2543 59.5294C87.5047 59.1298 88.2318 58.5645 88.7867 58.7123L85.4895 57.8313L84.7544 60.5682L87.2543 61.2375C86.6994 61.0897 86.9098 60.0748 87.2543 59.5294Z" fill="#242B52"/>
</g>
<path d="M83.3284 64.5836C84.4113 61.7847 83.6342 58.879 81.5926 58.0933C79.5511 57.3076 77.0182 58.9396 75.9353 61.7384C74.8525 64.5373 75.6296 67.4431 77.6712 68.2287C79.7127 69.0144 82.2456 67.3824 83.3284 64.5836Z" fill="#242B52"/>
<g style="mix-blend-mode:multiply" opacity="0.2">
<path d="M81.4329 65.3233C83.5853 63.2277 84.0911 60.2629 82.5625 58.7012C81.0339 57.1396 78.0498 57.5724 75.8974 59.668C73.7449 61.7636 73.2392 64.7284 74.7678 66.29C76.2963 67.8517 79.2804 67.4189 81.4329 65.3233Z" fill="#242B52"/>
</g>
<g style="mix-blend-mode:multiply" opacity="0.2">
<path d="M80.0865 65.3326C82.6967 63.8417 83.9312 61.0978 82.8436 59.204C81.7561 57.3102 78.7585 56.9836 76.1482 58.4745C73.538 59.9654 72.3035 62.7093 73.391 64.6031C74.4785 66.4969 77.4762 66.8235 80.0865 65.3326Z" fill="#242B52"/>
</g>
<path d="M70.1614 60.6686L73.9601 61.6841L74.6986 58.9362L70.8999 57.9208L70.1614 60.6686Z" fill="#7D8191"/>
<g style="mix-blend-mode:multiply" opacity="0.1">
<path d="M74.7462 62.9931L78.5288 64.0039L78.7294 63.2571L74.9468 62.2463L74.7462 62.9931Z" fill="#242B52"/>
</g>
<path opacity="0.2" d="M75.1799 61.3708L78.9625 62.3816L79.13 61.7583L75.3473 60.7475L75.1799 61.3708Z" fill="white"/>
<path d="M77.8097 62.6339C77.6094 63.389 77.8919 64.1222 78.4467 64.27C79.0016 64.4179 79.6146 63.9264 79.8189 63.1693C80.0232 62.4121 79.7367 61.6809 79.1819 61.5331C78.627 61.3853 78.012 61.8767 77.8097 62.6339Z" fill="#B4BDC5"/>
<g style="mix-blend-mode:multiply" opacity="0.2">
<path d="M78.3565 62.7797C78.2424 63.2032 78.4027 63.6148 78.7131 63.6987C79.0236 63.7826 79.3701 63.4989 79.4843 63.0814C79.5984 62.6639 79.4382 62.2463 79.1257 62.1624C78.8132 62.0785 78.4707 62.3562 78.3565 62.7797Z" fill="#242B52"/>
</g>
<g style="mix-blend-mode:multiply" opacity="0.2">
<path d="M77.1668 62.2242C77.4172 61.8247 78.1443 61.2573 78.6992 61.4071L75.402 60.5261L74.6669 63.263L77.1668 63.9303C76.6199 63.7825 76.8302 62.7696 77.1668 62.2242Z" fill="#242B52"/>
</g>
<path d="M91.3408 30.0064L78.5769 26.5962L71.3015 33.6483L69.1702 47.9622L80.548 51.0028L91.3408 30.0064Z" fill="#001240"/>
<path d="M92.8692 31.1891C92.6341 30.721 92.2414 30.3502 91.7598 30.1417C91.2783 29.9331 90.7386 29.9001 90.2351 30.0484L79.0996 33.025C78.0279 33.3107 77.0304 34.2636 76.4795 35.5402C75.5423 37.6925 75.0871 40.0228 75.1455 42.3685C75.3458 48.5416 79.5723 52.4113 84.6423 51.0728C89.9185 49.6743 94.1992 43.2815 94.1992 36.8028C94.1932 34.6212 93.7145 32.7214 92.8692 31.1891Z" fill="#43596D"/>
<path d="M92.8633 38.8085C93.5292 37.0874 93.0516 35.3006 91.7965 34.8176C90.5414 34.3346 88.9842 35.3384 88.3183 37.0594C87.6524 38.7805 88.13 40.5673 89.3851 41.0503C90.6401 41.5333 92.1974 40.5296 92.8633 38.8085Z" fill="#242B52"/>
<g style="mix-blend-mode:multiply" opacity="0.2">
<path d="M91.688 39.2469C93.0116 37.9582 93.3229 36.1353 92.3832 35.1752C91.4434 34.2152 89.6086 34.4816 88.285 35.7703C86.9614 37.0589 86.6502 38.8818 87.5899 39.8418C88.5297 40.8019 90.3644 40.5355 91.688 39.2469Z" fill="#242B52"/>
</g>
<g style="mix-blend-mode:multiply" opacity="0.2">
<path d="M92.09 38.2391C90.9863 39.5956 89.0011 40.2069 87.659 39.6096C86.3169 39.0122 86.1227 37.426 87.2284 36.0695C88.3341 34.7131 90.3172 34.1018 91.6593 34.7011C93.0014 35.3004 93.1917 36.8846 92.09 38.2391Z" fill="#242B52"/>
</g>
<path d="M87.5405 38.0069L89.8661 38.6284L90.3182 36.9457L87.9925 36.3243L87.5405 38.0069Z" fill="#7D8191"/>
<g style="mix-blend-mode:multiply" opacity="0.1">
<path d="M87.5854 37.8409L89.9111 38.4624L90.0345 38.0031L87.7088 37.3816L87.5854 37.8409Z" fill="#242B52"/>
</g>
<path opacity="0.2" d="M87.8615 36.828L90.1873 37.4495L90.2904 37.0655L87.9647 36.444L87.8615 36.828Z" fill="white"/>
<path d="M89.4718 37.6119C89.3476 38.0753 89.5239 38.5268 89.8725 38.6107C90.221 38.6946 90.5916 38.399 90.7158 37.9335C90.84 37.468 90.6657 37.0185 90.3152 36.9346C89.9646 36.8507 89.598 37.1464 89.4718 37.6119Z" fill="#B4BDC5"/>
<g style="mix-blend-mode:multiply" opacity="0.2">
<path d="M89.8084 37.7016C89.7383 37.9613 89.8365 38.215 90.0288 38.265C90.2211 38.3149 90.4294 38.1471 90.5015 37.8874C90.5736 37.6277 90.4735 37.372 90.2832 37.322C90.0929 37.2721 89.8785 37.4399 89.8084 37.7016Z" fill="#242B52"/>
</g>
<g style="mix-blend-mode:multiply" opacity="0.2">
<path d="M89.0832 37.36C89.2375 37.1143 89.6841 36.7607 90.0247 36.8566L87.9975 36.3152L87.5448 37.9973L89.0832 38.4088C88.7407 38.3149 88.8709 37.6936 89.0832 37.36Z" fill="#242B52"/>
</g>
<path d="M89.0608 34.0478C89.4742 32.9794 89.1776 31.87 88.3984 31.5701C87.6191 31.2703 86.6523 31.8934 86.2389 32.9619C85.8255 34.0303 86.1221 35.1396 86.9013 35.4395C87.6806 35.7393 88.6474 35.1163 89.0608 34.0478Z" fill="#242B52"/>
<g style="mix-blend-mode:multiply" opacity="0.2">
<path d="M88.3262 34.3043C89.1479 33.5043 89.3411 32.3725 88.7577 31.7764C88.1742 31.1803 87.035 31.3457 86.2133 32.1457C85.3916 32.9457 85.1985 34.0775 85.7819 34.6735C86.3654 35.2696 87.5045 35.1043 88.3262 34.3043Z" fill="#242B52"/>
</g>
<g style="mix-blend-mode:multiply" opacity="0.2">
<path d="M88.5846 33.696C87.8996 34.5371 86.6676 34.9187 85.8343 34.5471C85.001 34.1755 84.8809 33.1906 85.566 32.3495C86.251 31.5085 87.4829 31.1289 88.3162 31.5005C89.1496 31.8721 89.2717 32.855 88.5846 33.696Z" fill="#242B52"/>
</g>
<path d="M85.7641 33.5486L87.2075 33.9343L87.488 32.8904L86.0446 32.5047L85.7641 33.5486Z" fill="#7D8191"/>
<g style="mix-blend-mode:multiply" opacity="0.1">
<path d="M85.789 33.4487L87.2324 33.8345L87.3092 33.5489L85.8657 33.1632L85.789 33.4487Z" fill="#242B52"/>
</g>
<path opacity="0.2" d="M85.9582 32.8245L87.4016 33.2102L87.4654 32.9729L86.022 32.5871L85.9582 32.8245Z" fill="white"/>
<path d="M86.9619 33.3066C86.8838 33.5963 86.9919 33.876 87.2043 33.9319C87.4166 33.9878 87.6511 33.8 87.7272 33.5124C87.8033 33.2247 87.697 32.943 87.4847 32.8871C87.2724 32.8311 87.038 33.0189 86.9619 33.3066Z" fill="#B4BDC5"/>
<g style="mix-blend-mode:multiply" opacity="0.2">
<path d="M87.1702 33.3625C87.1434 33.4274 87.1426 33.5 87.168 33.5654C87.1933 33.6309 87.2429 33.6841 87.3065 33.7141C87.4247 33.7441 87.5568 33.6402 87.6009 33.4784C87.6272 33.4135 87.6277 33.341 87.6024 33.2757C87.5772 33.2104 87.528 33.1572 87.4647 33.1268C87.3445 33.0948 87.2143 33.2007 87.1702 33.3625Z" fill="#242B52"/>
</g>
<g style="mix-blend-mode:multiply" opacity="0.2">
<path d="M86.7196 33.1507C86.8157 32.9989 87.0921 32.7811 87.3045 32.8391L86.0465 32.5015L85.7661 33.5463L86.7196 33.802C86.5072 33.7461 86.5813 33.3585 86.7196 33.1507Z" fill="#242B52"/>
</g>
<path d="M86.9448 40.3964C87.6107 38.6753 87.1331 36.8886 85.878 36.4056C84.623 35.9226 83.0657 36.9262 82.3998 38.6473C81.7339 40.3684 82.2115 42.1552 83.4666 42.6382C84.7217 43.1212 86.2789 42.1175 86.9448 40.3964Z" fill="#242B52"/>
<g style="mix-blend-mode:multiply" opacity="0.2">
<path d="M85.7694 40.8357C87.093 39.547 87.4042 37.7241 86.4644 36.7641C85.5247 35.804 83.69 36.0704 82.3664 37.3591C81.0428 38.6477 80.7315 40.4706 81.6712 41.4307C82.6109 42.3907 84.4458 42.1243 85.7694 40.8357Z" fill="#242B52"/>
</g>
<g style="mix-blend-mode:multiply" opacity="0.2">
<path d="M86.1687 39.8213C85.063 41.1777 83.0798 41.791 81.7377 41.1917C80.3956 40.5924 80.2014 39.0082 81.3051 37.6537C82.4089 36.2992 84.3939 35.6839 85.736 36.2832C87.0781 36.8825 87.2724 38.4668 86.1687 39.8213Z" fill="#242B52"/>
</g>
<path d="M81.6197 39.588L83.9454 40.2095L84.3975 38.5268L82.0718 37.9053L81.6197 39.588Z" fill="#7D8191"/>
<g style="mix-blend-mode:multiply" opacity="0.1">
<path d="M81.6672 39.4093L83.9929 40.0308L84.1163 39.5715L81.7906 38.95L81.6672 39.4093Z" fill="#242B52"/>
</g>
<path opacity="0.2" d="M81.9327 38.4202L84.2584 39.0417L84.3616 38.6577L82.0359 38.0362L81.9327 38.4202Z" fill="white"/>
<path d="M83.5506 39.1939C83.4244 39.6594 83.6006 40.1089 83.9412 40.1928C84.2817 40.2767 84.6603 39.981 84.7845 39.5155C84.9087 39.0501 84.7345 38.6006 84.3939 38.5166C84.0534 38.4327 83.6748 38.7284 83.5506 39.1939Z" fill="#B4BDC5"/>
<g style="mix-blend-mode:multiply" opacity="0.2">
<path d="M83.887 39.2839C83.8169 39.5456 83.9151 39.7974 84.1054 39.8493C84.2957 39.9013 84.506 39.7295 84.5801 39.4697C84.6542 39.21 84.5521 38.9563 84.3598 38.9044C84.1675 38.8524 83.9571 39.0222 83.887 39.2839Z" fill="#242B52"/>
</g>
<g style="mix-blend-mode:multiply" opacity="0.2">
<path d="M83.1599 38.9423C83.3142 38.6986 83.7609 38.343 84.1014 38.4388L82.0762 37.8975L81.6235 39.5816L83.1599 39.9911C82.8194 39.9012 82.9476 39.2779 83.1599 38.9423Z" fill="#242B52"/>
</g>
<path d="M80.2132 45.4913C80.8791 43.7757 80.4048 41.9933 79.1537 41.5103C77.9026 41.0273 76.3485 42.0266 75.6826 43.7422C75.0167 45.4579 75.4911 47.2402 76.7422 47.7232C77.9933 48.2062 79.5473 47.207 80.2132 45.4913Z" fill="#242B52"/>
<g style="mix-blend-mode:multiply" opacity="0.2">
<path d="M80.7943 41.1578C80.0652 42.756 78.2985 43.8348 76.8482 43.5911C75.3979 43.3473 74.813 41.861 75.5422 40.2728C76.2713 38.6846 78.0361 37.5958 79.4863 37.8395C80.9366 38.0832 81.5215 39.5696 80.7943 41.1578Z" fill="#242B52"/>
</g>
<g style="mix-blend-mode:multiply" opacity="0.2">
<path d="M80.2455 41.4055C79.1398 42.76 77.1567 43.3733 75.8146 42.774C74.4725 42.1746 74.2782 40.5904 75.3819 39.2359C76.4856 37.8815 78.4707 37.2662 79.8128 37.8655C81.1549 38.4648 81.3493 40.049 80.2455 41.4055Z" fill="#242B52"/>
</g>
<path d="M75.6969 41.1727L78.0226 41.7942L78.4747 40.1115L76.1489 39.49L75.6969 41.1727Z" fill="#7D8191"/>
<g style="mix-blend-mode:multiply" opacity="0.1">
<path d="M75.7465 40.9942L78.0723 41.6157L78.1957 41.1565L75.8699 40.535L75.7465 40.9942Z" fill="#242B52"/>
</g>
<path opacity="0.2" d="M76.0081 40.005L78.3339 40.6265L78.437 40.2425L76.1113 39.621L76.0081 40.005Z" fill="white"/>
<path d="M77.6274 40.7763C77.5032 41.2418 77.6776 41.6913 78.0181 41.7752C78.3586 41.8591 78.7373 41.5635 78.8635 41.098C78.9896 40.6325 78.8114 40.183 78.4628 40.0991C78.1143 40.0152 77.7516 40.3128 77.6274 40.7763Z" fill="#B4BDC5"/>
<g style="mix-blend-mode:multiply" opacity="0.2">
<path d="M77.9679 40.8661C77.8978 41.1278 77.996 41.3796 78.1883 41.4315C78.3806 41.4834 78.5889 41.3136 78.661 41.0519C78.7331 40.7902 78.633 40.5385 78.4407 40.4866C78.2484 40.4346 78.034 40.6064 77.9679 40.8661Z" fill="#242B52"/>
</g>
<g style="mix-blend-mode:multiply" opacity="0.2">
<path d="M77.2368 40.5245C77.3911 40.2808 77.8378 39.9252 78.1803 40.0231L76.1531 39.4817L75.7004 41.1638L77.2368 41.5634C76.8963 41.4835 77.0265 40.8602 77.2368 40.5245Z" fill="#242B52"/>
</g>
<path d="M83.2781 34.6771C83.2781 35.7619 82.563 36.8327 81.6756 37.0744C80.7882 37.3161 80.0731 36.6209 80.0731 35.5381C80.0731 34.4553 80.7882 33.3825 81.6756 33.1408C82.563 32.8991 83.2781 33.5943 83.2781 34.6771Z" fill="#242B52"/>
<g style="mix-blend-mode:multiply" opacity="0.2">
<path d="M82.9516 35.1408C82.4989 36.1257 81.4032 36.8029 80.5038 36.6511C79.6044 36.4993 79.2398 35.5763 79.6925 34.5914C80.1452 33.6065 81.2409 32.9293 82.1403 33.0811C83.0397 33.2329 83.4043 34.1539 82.9516 35.1408Z" fill="#242B52"/>
</g>
<g style="mix-blend-mode:multiply" opacity="0.2">
<path d="M82.6112 35.2925C81.9261 36.1356 80.6942 36.5152 79.8609 36.1436C79.0276 35.772 78.9074 34.7891 79.5944 33.946C80.2815 33.103 81.5114 32.7254 82.3447 33.097C83.178 33.4686 83.2982 34.4515 82.6112 35.2925Z" fill="#242B52"/>
</g>
<path d="M79.791 35.1455L81.2344 35.5312L81.5149 34.4873L80.0714 34.1016L79.791 35.1455Z" fill="#7D8191"/>
<g style="mix-blend-mode:multiply" opacity="0.1">
<path d="M79.8179 35.0418L81.2614 35.4275L81.3381 35.1419L79.8947 34.7562L79.8179 35.0418Z" fill="#242B52"/>
</g>
<path opacity="0.2" d="M79.9811 34.4248L81.4246 34.8105L81.4883 34.5732L80.0449 34.1875L79.9811 34.4248Z" fill="white"/>
<path d="M80.9866 34.903C80.9085 35.1927 81.0186 35.4724 81.229 35.5283C81.4393 35.5843 81.6757 35.3965 81.7538 35.1088C81.8319 34.8211 81.7218 34.5394 81.5114 34.4835C81.3011 34.4276 81.0647 34.6154 80.9866 34.903Z" fill="#B4BDC5"/>
<g style="mix-blend-mode:multiply" opacity="0.2">
<path d="M81.1948 34.9589C81.1685 35.0238 81.168 35.0963 81.1933 35.1616C81.2186 35.2269 81.2678 35.2801 81.3311 35.3106C81.4513 35.3425 81.5814 35.2366 81.6255 35.0748C81.6523 35.01 81.6532 34.9373 81.6278 34.8719C81.6025 34.8065 81.5529 34.7533 81.4893 34.7232C81.3731 34.6913 81.2389 34.7971 81.1948 34.9589Z" fill="#242B52"/>
</g>
<g style="mix-blend-mode:multiply" opacity="0.2">
<path d="M80.7442 34.7471C80.8404 34.5953 81.1188 34.3795 81.3291 34.4355L80.0712 34.0999L79.7908 35.1447L80.7442 35.3984C80.5339 35.3425 80.614 34.9549 80.7442 34.7471Z" fill="#242B52"/>
</g>
<path d="M90.0405 45.8892C90.7064 44.1681 90.2288 42.3813 88.9737 41.8983C87.7187 41.4153 86.1614 42.419 85.4955 44.1401C84.8296 45.8612 85.3072 47.6479 86.5623 48.1309C87.8174 48.6139 89.3746 47.6102 90.0405 45.8892Z" fill="#242B52"/>
<g style="mix-blend-mode:multiply" opacity="0.2">
<path d="M88.865 46.3267C90.1887 45.0381 90.4999 43.2151 89.5602 42.2551C88.6205 41.295 86.7856 41.5614 85.462 42.8501C84.1384 44.1387 83.8272 45.9616 84.7669 46.9217C85.7067 47.8817 87.5414 47.6154 88.865 46.3267Z" fill="#242B52"/>
</g>
<g style="mix-blend-mode:multiply" opacity="0.2">
<path d="M89.2656 45.319C88.1619 46.6735 86.1787 47.2868 84.8346 46.6874C83.4905 46.0881 83.3003 44.5039 84.404 43.1494C85.5077 41.7949 87.4928 41.1816 88.8349 41.7789C90.177 42.3763 90.3713 43.9625 89.2656 45.319Z" fill="#242B52"/>
</g>
<path d="M84.716 45.0863L87.0417 45.7078L87.4938 44.0251L85.1681 43.4036L84.716 45.0863Z" fill="#7D8191"/>
<g style="mix-blend-mode:multiply" opacity="0.1">
<path d="M80.2038 42.3705L82.5393 42.9949L82.6633 42.5337L80.3277 41.9093L80.2038 42.3705Z" fill="#242B52"/>
</g>
<path opacity="0.2" d="M85.0296 43.9146L87.3553 44.5361L87.4585 44.1521L85.1328 43.5306L85.0296 43.9146Z" fill="white"/>
<path d="M86.6475 44.6897C86.5233 45.1552 86.6996 45.6067 87.0481 45.6886C87.3967 45.7705 87.7672 45.4768 87.8914 45.0133C88.0156 44.5499 87.8413 44.0984 87.5008 44.0145C87.1603 43.9305 86.7817 44.2262 86.6475 44.6897Z" fill="#B4BDC5"/>
<g style="mix-blend-mode:multiply" opacity="0.2">
<path d="M86.982 44.7797C86.9119 45.0414 87.0121 45.2951 87.2024 45.3451C87.3927 45.395 87.603 45.2272 87.6751 44.9655C87.7472 44.7038 87.6471 44.4521 87.4568 44.4001C87.2665 44.3482 87.0541 44.52 86.982 44.7797Z" fill="#242B52"/>
</g>
<g style="mix-blend-mode:multiply" opacity="0.2">
<path d="M86.2589 44.4381C86.4132 44.1944 86.8598 43.8388 87.2003 43.9366L85.1732 43.3953L84.7225 45.0774L86.2589 45.4889C85.9164 45.397 86.0466 44.7737 86.2589 44.4381Z" fill="#242B52"/>
</g>
<path d="M83.8459 47.5492C84.5118 45.8281 84.0342 44.0413 82.7792 43.5583C81.5241 43.0754 79.9668 44.0791 79.3009 45.8002C78.635 47.5212 79.1126 49.308 80.3677 49.791C81.6228 50.274 83.18 49.2703 83.8459 47.5492Z" fill="#242B52"/>
<g style="mix-blend-mode:multiply" opacity="0.2">
<path d="M83.6167 46.7274C82.8896 48.3256 81.1228 49.4044 79.6725 49.1607C78.2222 48.9169 77.6374 47.4306 78.3645 45.8424C79.0916 44.2542 80.8604 43.1654 82.3107 43.4091C83.761 43.6528 84.3459 45.1392 83.6167 46.7274Z" fill="#242B52"/>
</g>
<g style="mix-blend-mode:multiply" opacity="0.2">
<path d="M81.8537 48.014C83.4588 47.0972 84.218 45.4103 83.5495 44.246C82.8809 43.0818 81.0378 42.8812 79.4326 43.798C77.8275 44.7148 77.0682 46.4018 77.7368 47.5661C78.4053 48.7303 80.2486 48.9308 81.8537 48.014Z" fill="#242B52"/>
</g>
<path d="M78.5264 46.7325L80.8522 47.354L81.3043 45.6713L78.9785 45.0498L78.5264 46.7325Z" fill="#7D8191"/>
<g style="mix-blend-mode:multiply" opacity="0.1">
<path d="M78.5661 46.5721L80.8918 47.1936L81.0152 46.7343L78.6895 46.1128L78.5661 46.5721Z" fill="#242B52"/>
</g>
<path opacity="0.2" d="M78.8342 45.5728L81.1599 46.1943L81.2631 45.8103L78.9374 45.1888L78.8342 45.5728Z" fill="white"/>
<path d="M80.4518 46.3459C80.3276 46.8114 80.5019 47.2629 80.8524 47.3448C81.203 47.4267 81.5715 47.133 81.6957 46.6695C81.8199 46.2061 81.6457 45.7526 81.2951 45.6707C80.9446 45.5888 80.572 45.8824 80.4518 46.3459Z" fill="#B4BDC5"/>
<g style="mix-blend-mode:multiply" opacity="0.2">
<path d="M80.7884 46.4357C80.7183 46.6974 80.8164 46.9491 81.0087 47.0011C81.201 47.053 81.4093 46.8832 81.4815 46.6215C81.5536 46.3598 81.4534 46.1081 81.2611 46.0561C81.0688 46.0042 80.8585 46.176 80.7884 46.4357Z" fill="#242B52"/>
</g>
<g style="mix-blend-mode:multiply" opacity="0.2">
<path d="M80.0611 46.0941C80.2154 45.8504 80.6621 45.4948 81.0046 45.5927L78.9774 45.0513L78.5247 46.7334L80.0611 47.1449C79.7206 47.053 79.8488 46.4297 80.0611 46.0941Z" fill="#242B52"/>
</g>
<path opacity="0.1" d="M71.7422 54.5148L79.955 56.7103L88.7688 54.355L81.0047 52.2793L71.7422 54.5148Z" fill="white"/>
<path d="M90.187 21.6438L79.1457 24.5944C73.3506 26.1427 68.6533 33.1728 68.6533 40.2948V67.0648C68.6533 74.1888 73.3506 78.7077 79.1457 77.1595L90.187 74.2148C95.982 72.6665 100.679 65.6364 100.679 58.5144V31.7444C100.681 24.6144 95.9841 20.0955 90.187 21.6438ZM92.6228 51.3764C95.2549 52.0456 97.0998 54.7566 97.0998 58.4904C97.0998 63.4848 93.8126 68.3953 89.7583 69.4781L79.5704 72.199C75.5161 73.2838 72.2289 70.1214 72.2289 65.137C72.2289 61.3951 74.0798 57.6913 76.7199 55.6176C77.4491 55.0423 77.5612 53.8196 76.9423 53.3682C76.6291 53.1466 76.3307 52.905 76.0489 52.645C73.7172 50.5114 72.3651 47.1851 72.2429 43.2835C72.1677 40.2237 72.7624 37.1845 73.9857 34.3775C75.0513 31.9003 77.0104 30.0144 79.0977 29.457L90.2331 26.4823C92.3023 25.929 94.2393 26.7161 95.309 28.6039C96.4808 30.6696 97.0998 33.2388 97.0998 36.0276C97.0652 40.2268 95.7993 44.3241 93.4581 47.8144C93.1196 48.3218 92.763 48.8133 92.3944 49.2667C91.7895 50.0259 91.9017 51.1926 92.6248 51.3764H92.6228Z" fill="#43596D"/>
</svg>
