<svg width="331" height="162" viewBox="0 0 331 162" fill="none" xmlns="http://www.w3.org/2000/svg">
<g style="mix-blend-mode:multiply" opacity="0.1">
<path d="M208.327 99.2743C200.66 97.2237 188.114 97.2237 180.447 99.2743L20.796 138.498C13.1289 140.546 19.1848 145.985 26.8432 148.034L71.569 160.992C79.236 163.043 94.8682 161.591 102.632 159.949C173.627 149.925 243.41 125.983 251.33 119.321C259.364 112.56 253.798 111.25 246.131 109.198L208.327 99.2743Z" fill="#001230"/>
</g>
<g style="mix-blend-mode:multiply" opacity="0.9">
<path d="M188.432 104.808C180.765 102.759 168.219 102.759 160.552 104.808L20.796 138.498C13.129 140.546 23.297 144.841 30.964 146.899L64.8351 155.945C72.5021 157.994 80.6723 158.467 85.1257 158.166C89.579 157.864 95.1079 156.932 105.336 153.395C121.143 147.928 148.963 140.051 160.271 136.859C173.387 133.156 184.121 132.064 195.164 129.208C213.064 124.579 221.152 120.954 223.61 119.3C226.067 117.645 226.998 115.134 219.331 113.085L188.432 104.808Z" fill="#001230"/>
</g>
<path d="M52.7577 80.1449L46.0281 85.3855C46.0281 85.3855 46.7235 81.5686 48.0949 80.1449C50.1553 77.9952 52.7577 80.1449 52.7577 80.1449Z" fill="#E9E9EA"/>
<path d="M175.709 105.646C173.223 114.908 176.713 123.87 183.503 125.678C190.294 127.485 197.816 121.462 200.302 112.209C202.788 102.955 199.298 93.9841 192.507 92.1769C185.717 90.3697 178.195 96.3944 175.709 105.646Z" fill="#001230"/>
<path d="M183.495 125.697L193.519 128.376L202.521 94.8683L192.498 92.1896L183.495 125.697Z" fill="#001230"/>
<path d="M70.2712 133.873C67.7854 143.135 71.2754 152.096 78.0656 153.905C84.8558 155.715 92.3759 149.69 94.8639 140.439C97.352 131.187 93.8598 122.214 87.0674 120.407C80.2751 118.6 72.757 124.62 70.2712 133.873Z" fill="#001230"/>
<path d="M78.0579 153.921L88.0818 156.6L97.0841 123.092L87.0603 120.414L78.0579 153.921Z" fill="#001230"/>
<path d="M211.651 111.087L194.008 105.527L117.578 128.758L106.043 143.288L81.0093 139.23L83.4778 118.037L199.98 86.0037L217.601 97.6696L211.651 111.087Z" fill="#001230"/>
<path d="M203.928 58.168C180.704 50.6959 134.294 40.3503 104.591 48.9231C74.2967 57.6661 44.3543 86.8739 44.3543 86.8739C44.3543 86.8739 26.625 96.0046 17.85 103.029C8.45089 110.568 8.56318 125.187 10.7013 133.154C12.36 139.319 54.438 148.956 64.0639 148.878C66.8262 149.449 71.0809 149.432 75.2081 149.38L77.1173 148.878C76.806 144.501 77.0871 140.103 77.9531 135.801C80.0934 125.092 89.0844 117.923 96.5074 119.132C103.578 120.288 108.386 128.034 106.04 143.282L116.727 138.283C134.357 132.394 153.468 127.188 174.469 122.854L182.29 121.928C182.29 117.169 182.624 112.98 183.927 107.737C186.559 97.1613 195.434 90.6627 202.649 92.5927C209.453 94.4106 212.813 102.006 211.649 111.078C214.699 109.514 216.411 107.681 217.359 104.913C219.063 99.9399 220.126 92.8512 219.875 90.316C219.711 88.6596 219.42 86.9924 218.215 86.4C215.612 78.8827 210.707 66.4586 203.928 58.168Z" fill="#E9E9EA"/>
<path d="M149.356 62.1744C166.165 56.6366 178.573 55.6134 201.593 57.7738L203.93 58.1616C180.668 50.6851 134.255 40.3547 104.594 48.9167C96.9719 51.1159 89.3739 54.6118 82.2684 58.6096C81.884 58.8573 81.4974 59.105 81.113 59.357C74.9995 62.9032 69.084 66.7781 63.3924 70.9648C58.8462 74.3379 54.9047 77.543 51.8076 80.1816C49.3023 82.3356 46.8964 84.4895 44.5639 86.6672L44.3479 86.8654C49.1943 94.876 67.0639 101.222 101.008 102.003C101.017 102.023 119.411 72.0482 149.356 62.1744Z" fill="#00123E"/>
<path d="M106.043 103.655C136.134 94.6259 166.323 85.9735 193.447 74.7728C194.085 74.5441 194.703 74.2616 195.294 73.9285C196.995 72.8299 202.22 61.8102 202.22 61.8102C189.261 59.0338 167.193 58.8615 153.548 63.695C119.498 75.7443 106.043 103.655 106.043 103.655Z" fill="#001230"/>
<path d="M156.066 60.0569C154.241 60.5803 152.803 61.0692 150.498 61.7994C135.838 56.4727 120.146 52.322 103.496 49.2483L109.49 47.7405C124.882 50.2175 140.309 54.4329 156.066 60.0569Z" fill="#303A66"/>
<path d="M88.7928 55.1697L83.9097 57.7092C93.0453 62.8787 110.945 66.9993 132.139 70.5964C133.367 69.7693 134.834 68.912 136.531 67.9276C116.941 64.1431 100.164 60.001 88.7928 55.1697Z" fill="#303A66"/>
<path d="M47.0798 87.0721C53.3819 94.4258 72.2472 98.4429 99.4792 100.235C99.4792 100.235 102.449 92.7586 81.1215 87.895C58.3623 82.7082 47.0798 87.0721 47.0798 87.0721Z" fill="#303A66"/>
<path d="M151.462 65.2868L153.684 88.1512L159.103 86.3807L156.382 63.6821C154.783 64.1474 153.153 64.6643 151.462 65.2868Z" fill="#303A66"/>
<path d="M188.942 75.8326L192.628 74.3356L188.415 60.7398L185.052 60.4985L188.942 75.8326Z" fill="#303A66"/>
<path d="M153.878 63.6433C154.893 71.5118 156.6 88.1749 156.6 88.1749C158.156 90.3938 158.847 93.1026 158.543 95.7935C157.759 103.203 156.755 116.484 157.438 121.555" stroke="#231F32" stroke-width="1.31" stroke-miterlimit="10"/>
<path d="M106.138 103.571C109.58 107.233 110.241 121.068 112.457 133.634L172.498 117.51C175.033 116.831 177.394 114.606 178.761 111.61L191.585 86.5789C193.017 83.4233 193.183 79.0098 191.069 75.7444L186.713 60.197" stroke="#231F32" stroke-width="1.31" stroke-miterlimit="10"/>
<path d="M100.909 101.975C100.909 101.975 100.654 103.457 98.4124 104.679C95.9223 106.031 74.2235 115.087 68.8004 117.62C61.9822 120.801 52.8617 122.987 46.8598 122.117C37.5319 120.767 23.5973 117.182 20.2951 115.537C16.6927 113.74 14.06 109.407 14.5632 107.3" stroke="#231F32" stroke-width="1.31" stroke-miterlimit="10"/>
<path d="M217.981 86.3484C217.981 86.3484 213.398 89.364 212.569 90.1243C210.323 92.2029 207.537 95.3929 207.537 95.3929" stroke="#231F32" stroke-width="1.31" stroke-miterlimit="10"/>
<path d="M73.6338 115.47C73.6338 115.47 81.8883 117.777 83.9098 124.275" stroke="#231F32" stroke-width="1.31" stroke-miterlimit="10"/>
<path opacity="0.1" d="M55.9283 148.023C57.7144 147.831 48.3844 134.839 47.5054 133.893C45.4428 131.649 39.0825 129.411 28.0571 126.804C18.5802 124.566 16.5932 125.533 15.5889 126.432C14.941 127.018 10.6388 133.777 11.8094 134.679C14.5328 136.779 20.8025 139.5 29.8755 142.108C39.7045 144.934 53.855 148.247 55.9283 148.023Z" fill="black"/>
<path opacity="0.1" d="M49.868 145.651C51.3194 145.925 44.2182 142.218 43.5465 141.916C41.9569 141.201 36.8924 139.762 28.0548 137.462C20.4676 135.489 18.8241 135.308 17.9818 135.286C17.431 135.271 14.3664 135.071 15.1871 135.605C16.9257 136.734 20.9687 138.511 28.2211 140.475C36.0674 142.604 48.1813 145.337 49.868 145.651Z" fill="black"/>
<path opacity="0.1" d="M109.267 107.276C152.293 94.6734 195.676 77.2263 197.434 76.4961C202.974 74.1978 202.807 67.6088 206.984 70.2819C209.576 71.9383 215.502 83.9704 207.537 87.197C204.455 88.4463 191.87 86.7296 187.069 95.3821C179.327 109.357 178.832 113.387 175.532 115.608C172.66 117.546 161.546 120.691 144.719 124.971C135.504 127.313 112.457 133.624 112.457 133.624C111.088 126.012 109.261 119.127 106.505 113.717C106.199 113.122 106.029 112.467 106.006 111.798C105.982 111.13 106.107 110.465 106.371 109.85C106.635 109.235 107.031 108.686 107.531 108.241C108.032 107.796 108.625 107.467 109.267 107.276Z" fill="black"/>
<path opacity="0.1" d="M75.4092 127.291C73.3289 131.133 72.1023 135.377 71.8131 139.735C71.7866 140.123 71.6779 140.501 71.4941 140.845C71.3104 141.188 71.0558 141.489 70.7471 141.727C70.4384 141.966 70.0826 142.136 69.7032 142.227C69.3237 142.318 68.9291 142.329 68.5455 142.257C64.6148 141.54 61.2434 140.26 58.8267 138.037C58.4942 137.734 58.2308 137.363 58.0542 136.95C57.8777 136.536 57.7922 136.09 57.8035 135.641C57.8147 135.192 57.9225 134.75 58.1195 134.346C58.3165 133.942 58.5983 133.585 58.9456 133.298C63.3298 129.691 68.2323 127.069 73.4459 125.07C73.7474 124.957 74.0763 124.938 74.3889 125.016C74.7015 125.093 74.983 125.264 75.196 125.505C75.4091 125.746 75.5435 126.046 75.5816 126.365C75.6196 126.684 75.5596 127.007 75.4092 127.291Z" fill="black"/>
<path opacity="0.1" d="M212.478 98.4945C210.82 95.9098 210.628 93.8054 213.187 92.2588C215.746 90.7123 217.102 88.9891 217.187 91.8969C217.268 95.9023 216.357 99.8658 214.534 103.436C214.493 103.519 214.426 103.587 214.344 103.629C214.261 103.671 214.166 103.686 214.075 103.67C213.983 103.655 213.899 103.61 213.834 103.543C213.77 103.476 213.729 103.39 213.718 103.298C213.573 102.251 213.392 99.9226 212.478 98.4945Z" fill="black"/>
<path d="M212.312 77.7044C213.854 80.9097 215.069 84.2617 215.938 87.7096L218.217 86.4172C216.99 81.2865 214.329 74.5704 213.23 73.8639C212.31 73.2608 212.312 77.7044 212.312 77.7044Z" fill="#303A66"/>
<path d="M21.7852 134.61L37.5253 138.817V132.211L21.7852 128.004V134.61Z" fill="#001230"/>
<path d="M20.7961 134.83L36.5341 139.037V132.43L20.7961 128.224V134.83Z" fill="white"/>
<path d="M89.8555 67.3029L101.734 70.4757L106.243 66.3681L94.365 63.1931L89.8555 67.3029Z" fill="#303A66"/>
<path d="M147.883 97.4973L156.017 94.5205L155.712 96.4655L147.44 99.5522L147.883 97.4973Z" fill="#001230"/>
<path d="M148.242 97.0837L156.373 94.1069L156.071 96.052L147.799 99.1386L148.242 97.0837Z" fill="#303A66"/>
<path d="M182.704 84.5434L190.743 81.321L190.499 83.2725L182.326 86.6112L182.704 84.5434Z" fill="#001230"/>
<path d="M183.05 84.1169L191.086 80.8967L190.842 82.8482L182.67 86.1847L183.05 84.1169Z" fill="#303A66"/>
<path opacity="0.1" d="M108.917 102.705C154.01 69.5861 198.978 66.0062 198.978 66.0062L200.509 62.674C186.039 60.8345 170.631 59.2276 154.496 64.8947C121.241 76.5649 108.917 102.705 108.917 102.705Z" fill="white"/>
<path opacity="0.1" d="M110.729 104.073C110.729 104.073 110.904 103.643 112.74 104.885C114.742 106.238 121.996 107.729 123.834 106.996C126.411 105.973 126.607 103.274 125.653 102.258C122.694 99.1322 120.435 99.1882 119.325 99.2528C118.215 99.3174 110.729 104.073 110.729 104.073Z" fill="black"/>
<path d="M107.82 103.179C107.82 103.179 113.401 97.3011 116.016 97.2516C118.051 97.2128 122.8 97.4024 123.899 100.088C124.999 102.774 121.679 104.222 117.459 105.086C113.239 105.949 110.353 105.301 109.33 104.743C108.688 104.375 108.164 103.833 107.82 103.179Z" fill="#E9E9EA"/>
<path opacity="0.1" d="M121.448 97.4758C121.448 97.4758 121.813 100.39 117.088 101.521C114.634 102.107 106.855 103.298 106.855 103.298L108.747 106.723L124.383 107.018L126.409 100.306L123.55 96.4548L121.448 97.4758Z" fill="black"/>
<path d="M14.2217 106.955C13.4075 108.679 15.632 113.527 19.2754 115.242C24.5689 117.732 37.6137 120.816 47.015 122.328C53.8527 123.427 68.2689 119.155 73.9446 115.47C73.0311 114.645 70.2083 114.645 67.96 115.302C63.4052 116.866 53.5676 119.675 47.8249 118.847C37.9139 117.417 25.1348 114.432 20.7722 112.444C18.5606 111.436 15.3729 107.106 16.6687 104.056C15.8696 104.683 14.6601 106.023 14.2217 106.955Z" fill="#303A66"/>
<path opacity="0.1" d="M9.23927 127.547C8.41426 102.703 38.1408 96.233 57.5611 95.8474C70.7009 81.8595 103.496 41.5782 150.127 46.1575L174.048 42.9782L147.354 39.9885L92.3241 47.7428L0 112.577L9.23927 127.547Z" fill="white"/>
<path d="M47.825 118.847C37.4821 117.219 28.6532 115.25 20.7723 112.444L19.6665 115.42C23.0486 117.144 36.169 120.805 46.7905 122.313L47.825 118.847Z" fill="#303A66"/>
<path opacity="0.1" d="M47.5421 119.78C37.413 118.303 28.6769 116.205 20.7961 113.398L20.2712 114.886C25.0637 116.935 36.3872 120.026 47.0087 121.525L47.5421 119.78Z" fill="black"/>
<path d="M80.031 136.51C77.5473 145.748 81.0331 154.709 87.8061 156.52C94.579 158.332 102.097 152.312 104.579 143.071C107.06 133.831 103.576 124.874 96.8035 123.061C90.0306 121.247 82.5126 127.27 80.031 136.51Z" fill="#303A66"/>
<path d="M83.141 137.348C81.288 144.241 83.8905 150.933 88.9529 152.288C94.0153 153.643 99.622 149.145 101.479 142.246C103.337 135.347 100.732 128.661 95.6697 127.308C90.6073 125.956 84.9941 130.442 83.141 137.348Z" fill="#E9E9EA"/>
<path d="M97.8142 139.228L100.134 142.879C100.771 143.881 99.8768 145.63 98.7753 145.541L94.7539 145.225C94.2744 145.188 93.7604 145.531 93.458 146.086L90.8664 150.81C90.158 152.102 88.7066 151.913 88.6677 150.519L88.5014 145.432C88.482 144.826 88.1645 144.374 87.6958 144.286L83.7782 143.553C82.6983 143.353 82.6983 141.486 83.7782 140.71L87.6958 137.884C87.9381 137.696 88.1359 137.458 88.2751 137.185C88.4143 136.913 88.4916 136.613 88.5014 136.307L88.6677 131.138C88.7131 129.718 90.158 128.756 90.8664 129.671L93.458 133.01C93.7669 133.408 94.2809 133.477 94.7539 133.182L98.7753 130.716C99.8768 130.039 100.771 131.312 100.134 132.654L97.8142 137.546C97.5377 138.13 97.5377 138.793 97.8142 139.228Z" fill="#242B52"/>
<path d="M90.3027 139.254C89.8988 140.762 90.4667 142.227 91.5747 142.522C92.6826 142.817 93.9072 141.835 94.3132 140.327C94.7193 138.819 94.1491 137.354 93.0433 137.059C91.9376 136.764 90.7087 137.746 90.3027 139.254Z" fill="#E9E9EA"/>
<path d="M210.06 114.79C212.543 105.55 209.058 96.5908 202.276 94.7786C195.495 92.9663 187.985 98.9874 185.502 108.227C183.02 117.467 186.505 126.426 193.287 128.238C200.068 130.051 207.578 124.03 210.06 114.79Z" fill="#303A66"/>
<path d="M188.622 109.064C186.769 115.957 189.371 122.649 194.434 124.002C199.496 125.354 205.103 120.861 206.96 113.962C208.818 107.063 206.211 100.377 201.148 99.0243C196.086 97.6716 190.475 102.165 188.622 109.064Z" fill="#E9E9EA"/>
<path d="M203.295 110.951L205.615 114.613C206.252 115.612 205.358 117.363 204.256 117.275L200.235 116.958C199.755 116.922 199.241 117.264 198.939 117.82L196.347 122.544C195.639 123.836 194.188 123.646 194.149 122.251L193.982 117.165C193.963 116.558 193.646 116.105 193.177 116.019L189.259 115.287C188.179 115.086 188.179 113.219 189.259 112.444L193.177 109.618C193.419 109.43 193.616 109.191 193.756 108.919C193.895 108.646 193.972 108.346 193.982 108.041L194.149 102.871C194.194 101.454 195.639 100.491 196.347 101.407L198.939 104.745C199.248 105.144 199.762 105.211 200.235 104.918L204.256 102.451C205.358 101.775 206.252 103.048 205.615 104.39L203.295 109.282C203.019 109.85 203.019 110.516 203.295 110.951Z" fill="#242B52"/>
<path d="M195.784 110.977C195.38 112.485 195.948 113.949 197.056 114.244C198.164 114.539 199.388 113.557 199.794 112.049C200.2 110.542 199.63 109.077 198.525 108.782C197.419 108.487 196.19 109.469 195.784 110.977Z" fill="#E9E9EA"/>
<path d="M47.2744 120.652C37.0611 119.145 26.662 116.67 20.2778 113.938" stroke="#231F32" stroke-width="1.31" stroke-miterlimit="10"/>
<path d="M200.941 78.9128L205.004 76.8644C205.161 76.7953 205.332 76.7611 205.504 76.7644C205.676 76.7676 205.845 76.8081 206 76.8831C206.154 76.9581 206.291 77.0658 206.4 77.1987C206.509 77.3316 206.587 77.4866 206.63 77.6528L207.636 82.7146C207.705 82.9819 207.678 83.2647 207.559 83.5141C207.441 83.7635 207.239 83.9637 206.988 84.0802L203.06 86.1674C202.905 86.2387 202.737 86.276 202.567 86.2766C202.396 86.2773 202.228 86.2413 202.073 86.1712C201.918 86.1011 201.779 85.9985 201.668 85.8703C201.556 85.7422 201.473 85.5915 201.425 85.4286L200.287 80.328C200.206 80.0531 200.228 79.7584 200.348 79.4983C200.469 79.2382 200.679 79.0303 200.941 78.9128Z" fill="#001230"/>
<path d="M200.256 79.3693L201.336 76.5175C201.488 76.1212 201.807 76.4378 202.008 77.1788L202.98 81.9175C203.135 82.4969 203.168 83.1496 203.053 83.4683L202.015 86.346C201.87 86.7488 201.554 86.4602 201.349 85.7386L200.328 80.9719C200.174 80.3774 200.14 79.6903 200.256 79.3693Z" fill="#E5E7EB"/>
<path d="M274.1 88.8254C274.1 92.177 273.543 97.6567 272.23 102.012C270.489 107.785 266.502 114.645 270.891 117.366C274.869 119.832 279.916 116.192 282.337 108.775" stroke="#5D6E81" stroke-width="13" stroke-linecap="round" stroke-linejoin="round"/>
<path opacity="0.1" d="M293.952 125.49H309.142L331 119.649L316.612 115.808H293.952V125.49Z" fill="black"/>
<path d="M273.556 116.183L293.777 110.779L313.999 116.183L293.777 121.587L273.556 116.183Z" fill="#43596D"/>
<path d="M282.855 113.338C276.823 114.949 271.934 111.029 271.934 104.582V89.4049L293.777 83.5676V98.7445C293.773 105.191 288.888 111.716 282.855 113.338Z" fill="#B4BDC5"/>
<path d="M278.074 113.445V98.2683L299.915 104.106V119.282L278.074 113.445Z" fill="#B4BDC5"/>
<path d="M271.934 104.582V89.4048L293.777 95.242V110.419L271.934 104.582Z" fill="#D0D2D3"/>
<path d="M271.934 89.4049L293.777 83.5676L315.618 89.4049L293.777 95.2421L271.934 89.4049Z" fill="#F1F2F2"/>
<path d="M293.777 125.49L273.556 120.086V116.183L293.777 121.587V125.49Z" fill="#444051"/>
<path d="M293.777 125.49L313.999 120.086V116.183L293.777 121.587V125.49Z" fill="#001230"/>
<path d="M304.699 119.175C298.669 120.786 293.779 116.866 293.779 110.419V95.242L315.621 89.4048V104.582C315.619 111.028 310.729 117.561 304.699 119.175Z" fill="#D0D2D3"/>
<path d="M293.777 108.982L271.934 103.145V42.3687L293.777 48.2059V108.982Z" fill="#EFF0F1"/>
<path d="M293.777 108.982L315.618 103.145V42.3687L293.777 48.2059V108.982Z" fill="#D0D2D3"/>
<path d="M315.618 42.3685L293.777 36.5312L271.934 42.3685L293.777 48.2058L315.618 42.3685Z" fill="#7D8191"/>
<path d="M293.777 48.7981L271.934 42.9609V16.7708L293.777 22.608V48.7981Z" fill="#EFF0F1"/>
<path d="M293.777 48.7981L315.618 42.9609V16.7708L293.777 22.608V48.7981Z" fill="#D0D2D3"/>
<path d="M315.618 16.7708L293.777 10.9336L271.934 16.7708L293.777 22.6081L315.618 16.7708Z" fill="#F1F2F2"/>
<path d="M293.773 24.2946L271.929 30.1318V14.955C271.929 8.50601 276.819 1.97302 282.851 0.361853C288.883 -1.24932 293.773 2.67091 293.773 9.11774V24.2946Z" fill="#E9E9EA"/>
<path d="M293.777 20.7923L271.934 14.955L286.304 0L308.148 5.83726L293.777 20.7923Z" fill="#E9E9EA"/>
<path d="M315.618 30.1319L293.773 35.9691V20.7923C293.773 14.3433 298.662 7.81031 304.694 6.19914C310.724 4.58797 315.614 8.50604 315.614 14.955L315.618 30.1319Z" fill="#D0D2D3"/>
<path d="M271.934 30.1319V14.9551L293.777 20.7923V35.9692L271.934 30.1319Z" fill="#EFF0F1"/>
<path d="M285.81 28.6606L282.575 27.7969V20.8977L277.644 29.5437L280.881 30.4075V37.3045L285.81 28.6606Z" fill="#00C48B"/>
<path d="M308.908 29.5633L305.507 30.4722V23.2241L300.328 35.0753L303.729 34.1663V41.4144L308.908 29.5633Z" fill="#D0D2D3"/>
<path d="M291.103 83.1561L284.205 81.3123V70.7471L291.103 72.5909V83.1561Z" fill="#001230"/>
<path d="M284.205 70.7471V81.3123L285.011 81.0969V70.9625L284.205 70.7471Z" fill="#B4BDC5"/>
<path d="M291.103 83.1561L284.205 81.3123L285.011 81.0969L291.103 82.7253V83.1561Z" fill="#E6E7E8"/>
<path d="M281.54 80.6036L274.642 78.7598V68.1946L281.54 70.0384V80.6036Z" fill="#001230"/>
<path d="M274.642 68.1946V78.7598L275.445 78.5444V68.41L274.642 68.1946Z" fill="#B4BDC5"/>
<path d="M281.54 80.6036L274.642 78.7598L275.445 78.5444L281.54 80.1728V80.6036Z" fill="#E6E7E8"/>
<path d="M285.391 64.6297C285.952 66.7148 285.175 68.7374 283.635 69.1531C282.095 69.5688 280.408 68.2032 279.849 66.1181C279.29 64.0331 280.065 62.0105 281.605 61.5948C283.145 61.1791 284.831 62.5447 285.391 64.6297Z" fill="#B4BDC5"/>
<path d="M284.918 64.759C285.38 66.4822 284.73 68.1515 283.467 68.4897C282.203 68.8278 280.801 67.7057 280.339 65.9825C279.877 64.2593 280.527 62.59 281.791 62.2518C283.054 61.9136 284.447 63.0358 284.918 64.759Z" fill="#B4BDC5"/>
<path d="M284.609 64.8387C285.013 66.3465 284.447 67.7896 283.348 68.0826C282.248 68.3755 281.033 67.3998 280.629 65.9028C280.225 64.4058 280.793 62.9518 281.892 62.6589C282.991 62.3659 284.207 63.3417 284.609 64.8387Z" fill="#001230"/>
<path d="M274.1 88.8254C274.1 92.177 273.543 97.6567 272.23 102.012C270.489 107.785 266.502 114.645 270.891 117.366" stroke="#5D6E81" stroke-width="2" stroke-linecap="round" stroke-linejoin="round"/>
<path d="M291.09 62.5665L274.618 58.1637V39.6138L291.09 44.0165V62.5665Z" fill="#43596D"/>
<path d="M274.618 39.6138V58.1637L276.54 57.6511L281.562 41.4683L274.618 39.6138Z" fill="#B4BDC5"/>
<path d="M291.09 62.5662L274.618 58.1635L276.54 57.6509L291.09 61.5388V62.5662Z" fill="#9FA8B6"/>
<path d="M291.09 56.2552L279.21 53.0802L281.86 44.3545L291.103 46.8251L291.09 56.2552Z" fill="#00123E"/>
<path d="M279.564 54.5557L278.95 54.392L279.134 53.8169L279.75 53.9806L279.564 54.5557Z" fill="#001230"/>
<path d="M280.564 54.8206L279.948 54.6569L280.134 54.084L280.747 54.2455L280.564 54.8206Z" fill="#001230"/>
<path d="M281.564 55.0855L280.948 54.924L281.132 54.3489L281.747 54.5104L281.564 55.0855Z" fill="#001230"/>
<path d="M282.564 55.3526L281.948 55.1889L282.132 54.6138L282.747 54.7775L282.564 55.3526Z" fill="#001230"/>
<path d="M283.564 55.6177L282.948 55.454L283.132 54.8789L283.747 55.0426L283.564 55.6177Z" fill="#001230"/>
<path d="M279.236 55.5809L278.622 55.4172L278.806 54.8442L279.421 55.0058L279.236 55.5809Z" fill="#001230"/>
<path d="M280.236 55.846L279.622 55.6823L279.806 55.1094L280.419 55.2709L280.236 55.846Z" fill="#001230"/>
<path d="M281.236 56.1109L280.62 55.9494L280.804 55.3743L281.419 55.5358L281.236 56.1109Z" fill="#001230"/>
<path d="M282.235 56.378L281.62 56.2143L281.803 55.6392L282.419 55.8029L282.235 56.378Z" fill="#001230"/>
<path d="M283.235 56.6429L282.62 56.4792L282.803 55.9041L283.419 56.0677L283.235 56.6429Z" fill="#001230"/>
<path d="M278.909 56.6063L278.294 56.4426L278.478 55.8696L279.093 56.0312L278.909 56.6063Z" fill="#001230"/>
<path d="M279.909 56.8712L279.294 56.7075L279.478 56.1345L280.093 56.2961L279.909 56.8712Z" fill="#001230"/>
<path d="M280.907 57.1361L280.294 56.9745L280.478 56.3994L281.091 56.5631L280.907 57.1361Z" fill="#001230"/>
<path d="M281.907 57.4034L281.292 57.2397L281.478 56.6646L282.091 56.8282L281.907 57.4034Z" fill="#001230"/>
<path d="M282.907 57.6683L282.292 57.5046L282.475 56.9294L283.091 57.0931L282.907 57.6683Z" fill="#001230"/>
<path d="M278.581 57.6317L277.966 57.4701L278.149 56.895L278.765 57.0566L278.581 57.6317Z" fill="#001230"/>
<path d="M279.581 57.8966L278.966 57.735L279.149 57.1599L279.765 57.3215L279.581 57.8966Z" fill="#001230"/>
<path d="M280.579 58.1615L279.966 57.9999L280.149 57.4248L280.763 57.5885L280.579 58.1615Z" fill="#001230"/>
<path d="M281.579 58.4264L280.963 58.2648L281.149 57.6897L281.762 57.8534L281.579 58.4264Z" fill="#001230"/>
<path d="M282.579 58.6934L281.963 58.5297L282.147 57.9546L282.762 58.1183L282.579 58.6934Z" fill="#001230"/>
<path d="M286.646 55.8738C286.68 55.9744 286.681 56.0835 286.648 56.1845C286.615 56.2856 286.55 56.3731 286.462 56.4339C286.428 56.466 286.387 56.4896 286.342 56.5029C286.297 56.5162 286.249 56.5187 286.203 56.5103C286.157 56.5019 286.113 56.4829 286.076 56.4546C286.038 56.4264 286.008 56.3898 285.987 56.3477C285.953 56.2471 285.952 56.1382 285.985 56.0372C286.018 55.9362 286.083 55.8487 286.171 55.7877C286.205 55.756 286.246 55.7327 286.291 55.7197C286.336 55.7067 286.384 55.7043 286.43 55.7126C286.476 55.721 286.519 55.7399 286.557 55.7679C286.594 55.7958 286.625 55.8321 286.646 55.8738Z" fill="#FF2C5D"/>
<path d="M287.616 56.1433C287.65 56.2438 287.651 56.3529 287.618 56.454C287.585 56.555 287.519 56.6426 287.432 56.7033C287.398 56.7355 287.357 56.7592 287.312 56.7727C287.267 56.7861 287.22 56.7889 287.174 56.7807C287.128 56.7725 287.085 56.7537 287.047 56.7256C287.01 56.6976 286.98 56.6612 286.959 56.6193C286.923 56.519 286.922 56.4099 286.955 56.3087C286.987 56.2075 287.053 56.1198 287.14 56.0593C287.174 56.0271 287.216 56.0033 287.26 55.9899C287.305 55.9765 287.353 55.9737 287.399 55.9819C287.445 55.9901 287.489 56.0089 287.527 56.0369C287.564 56.065 287.595 56.1014 287.616 56.1433Z" fill="#00A88A"/>
<path d="M299.14 56.5568L310.256 53.5865V41.0676L299.14 44.0379V56.5568Z" fill="#001230"/>
<path d="M310.256 41.0676V53.5865L308.96 53.2397V41.4144L310.256 41.0676Z" fill="#B4BDC5"/>
<path d="M299.14 56.5569L310.256 53.5865L308.96 53.2397L299.14 55.8633V56.5569Z" fill="#E6E7E8"/>
<path d="M272.229 84.0068L275.968 84.2222L275.422 89.0278C275.046 90.0401 272.627 89.7515 272.417 88.6723L272.229 84.0068Z" fill="#242B52"/>
<path d="M280.227 71.6712C279.331 71.3093 276.771 70.5641 276.078 70.7902C274.944 71.1434 273.951 71.8453 273.24 72.7956C272.243 74.1246 270.649 76.229 269.986 77.7777C269.582 78.7104 268.772 80.8385 269.515 81.4394C269.999 81.8358 272.059 83.1626 272.059 83.1626C272.059 83.1626 271.932 86.0145 272.288 86.3807C273.415 87.5503 275.743 86.8115 275.743 86.8115L277.009 80.4077C277.766 79.9019 278.495 79.3569 279.195 78.775C280.059 78.034 280.657 77.0023 280.771 75.4881C280.855 74.284 281.125 72.0331 280.227 71.6712ZM272.452 80.9764C272.452 80.9764 271.53 80.4852 271.623 79.8046C271.763 78.7448 272.702 77.2651 273.64 75.9016C274.337 74.8978 274.903 75.5871 274.903 75.5871L272.452 80.9764Z" fill="#9FA8B6"/>
<g style="mix-blend-mode:multiply" opacity="0.1">
<path d="M281.264 73.6938C281.264 73.6938 277.069 77.9221 276.741 78.3917C276.413 78.8612 275.739 80.0244 275.739 81.0949C275.739 81.9909 275.05 87.7916 275.05 87.7916L276.085 87.602L278.624 79.7077L281.264 76.6922V73.6938Z" fill="#001231"/>
</g>
<g style="mix-blend-mode:multiply" opacity="0.1">
<path d="M268.908 80.9763C268.908 80.9763 270.774 81.3403 271.029 81.4351C271.283 81.5299 272.495 82.3742 272.905 82.6564C273.316 82.9386 274.201 83.6903 274.201 83.6903L271.514 83.3608L269.266 82.1072L268.908 80.9763Z" fill="#001231"/>
</g>
<path d="M205.77 81.4373C208.604 67.7144 225.577 69.0735 227.657 83.1605C236.348 142.037 265.04 143.017 286.311 119.287C299.917 104.11 308.908 75.6797 303.975 48.8154" stroke="#242B52" stroke-width="4" stroke-linecap="round" stroke-linejoin="round"/>
</svg>
