<svg width="360" height="430" viewBox="0 0 360 430" fill="none" xmlns="http://www.w3.org/2000/svg">
<g style="mix-blend-mode:overlay">
<path opacity="0.03" d="M-284.16 292.175C-284.16 292.175 -152.04 208.655 -20.8202 343.936C70.8898 438.922 197.27 140.969 421.17 -59.1032C598.93 -217.935 756.55 252.808 899.42 340.878" stroke="#BDFFE0" stroke-miterlimit="10"/>
<path opacity="0.06" d="M-277.33 278.996C-277.33 278.996 -144.46 199.898 -14.4101 337.035C76.8899 434.151 201.91 155.418 426.63 -50.6063C601.36 -210.784 757.34 236.753 906.11 325.897" stroke="#BFFFE1" stroke-miterlimit="10"/>
<path opacity="0.09" d="M-270.5 265.839C-270.5 265.839 -136.67 190.509 -8 330.158C83.03 428.965 206.54 169.961 432.09 -42.1051C603.8 -203.539 758.14 220.685 912.81 310.938" stroke="#C1FFE2" stroke-miterlimit="10"/>
<path opacity="0.12" d="M-263.66 252.659C-263.66 252.659 -129.01 181.57 -1.58014 323.257C89.0899 424.067 211.18 184.555 437.55 -33.6088C606.26 -196.189 758.93 204.629 919.5 295.975" stroke="#C3FFE3" stroke-miterlimit="10"/>
<path opacity="0.15" d="M-256.83 239.505C-256.83 239.505 -121.37 172.656 4.82993 316.399C95.1299 419.229 215.82 199.264 443.01 -25.0871C608.73 -188.723 759.72 188.599 926.19 281.019" stroke="#C5FFE4" stroke-miterlimit="10"/>
<path opacity="0.18" d="M-250 226.326C-250 226.326 -113.74 163.755 11.24 309.5C101.17 414.369 220.46 214.023 448.47 -16.5891C611.23 -181.19 760.52 172.527 932.89 266.057" stroke="#C7FFE5" stroke-miterlimit="10"/>
<path opacity="0.21" d="M-243.16 213.166C-243.16 213.166 -106.09 154.871 17.6599 302.619C107.21 409.526 225.12 228.873 453.94 -8.09147C613.74 -173.566 761.32 156.473 939.59 251.095" stroke="#C9FFE6" stroke-miterlimit="10"/>
<path opacity="0.24" d="M-236.33 199.99C-236.33 199.99 -98.4601 146.008 24.0699 295.722C113.25 404.685 229.78 243.779 459.4 0.408399C616.27 -165.867 762.11 140.421 946.29 236.117" stroke="#CBFFE7" stroke-miterlimit="10"/>
<path opacity="0.26" d="M-229.5 186.811C-229.5 186.811 -90.83 137.143 30.48 288.84C119.28 399.878 234.45 258.81 464.86 8.90573C618.81 -158.061 762.91 124.348 952.98 221.154" stroke="#CDFFE7" stroke-miterlimit="10"/>
<path opacity="0.29" d="M-222.66 173.654C-222.66 173.654 -83.2002 128.318 36.8998 281.962C125.32 395.075 239.14 273.918 470.32 17.4254C621.38 -150.178 763.7 108.316 959.68 206.214" stroke="#CFFFE8" stroke-miterlimit="10"/>
<path opacity="0.32" d="M-215.83 160.475C-215.83 160.475 -75.5801 119.489 43.3099 275.062C131.35 390.25 243.85 289.094 475.78 25.9225C623.96 -142.227 764.49 92.2433 966.37 191.251" stroke="#D1FFE9" stroke-miterlimit="10"/>
<path opacity="0.35" d="M-209 147.319C-209 147.319 -67.97 110.7 49.72 268.185C137.37 385.466 248.57 304.385 481.24 34.424C626.56 -134.181 765.29 76.193 973.07 176.275" stroke="#D3FFEA" stroke-miterlimit="10"/>
<path opacity="0.38" d="M-202.16 134.14C-202.16 134.14 -60.3502 101.908 56.1398 261.303C143.4 380.695 253.33 319.762 486.71 42.9398C629.2 -126.065 766.09 60.157 979.77 161.331" stroke="#D5FFEB" stroke-miterlimit="10"/>
<path opacity="0.41" d="M-195.33 120.983C-195.33 120.983 -52.7501 93.1365 62.5499 254.425C149.42 375.928 258.1 335.233 492.17 51.4403C631.84 -117.892 766.88 44.0875 986.47 146.372" stroke="#D7FFEC" stroke-miterlimit="10"/>
<path opacity="0.44" d="M-188.5 107.806C-188.5 107.806 -45.15 84.3829 68.96 247.528C155.43 371.16 262.9 350.776 497.63 59.9403C634.51 -109.666 767.68 28.0357 993.16 131.393" stroke="#D9FFED" stroke-miterlimit="10"/>
<path opacity="0.47" d="M-181.66 94.6503C-181.66 94.6503 -37.5502 75.6313 75.3798 240.651C161.45 366.431 267.74 366.449 503.09 68.4423C637.2 -101.364 768.47 11.9677 999.86 116.436" stroke="#DBFFEE" stroke-miterlimit="10"/>
<path opacity="0.5" d="M-174.83 81.4704C-174.83 81.4704 -29.9601 66.8922 81.7899 233.768C167.46 361.696 272.61 382.207 508.55 76.9568C639.9 -92.9948 769.26 -4.06959 1006.55 101.49" stroke="#DDFFEF" stroke-miterlimit="10"/>
<path opacity="0.53" d="M-168 68.313C-168 68.313 -22.38 58.1756 88.2 226.89C173.46 356.965 277.52 398.079 514.01 85.4574C642.64 -84.5671 770.06 -20.1209 1013.24 86.513" stroke="#DFFFF0" stroke-miterlimit="10"/>
<path opacity="0.56" d="M-161.16 55.1353C-161.16 55.1353 -14.7902 49.4569 94.6198 219.991C179.46 352.232 282.48 414.021 519.48 93.9559C645.4 -76.1049 770.86 -36.1923 1019.95 71.5517" stroke="#E1FFF1" stroke-miterlimit="10"/>
<path opacity="0.59" d="M-154.33 41.9609C-154.33 41.9609 -7.22006 40.7597 101.03 213.096C185.46 347.521 287.47 430.076 524.94 102.439C648.17 -67.5849 771.65 -52.2605 1026.64 56.5755" stroke="#E3FFF2" stroke-miterlimit="10"/>
<path opacity="0.62" d="M-147.5 28.8014C-147.5 28.8014 0.340004 32.0774 107.44 206.233C191.44 342.824 292.51 446.273 530.39 110.974C650.96 -58.9772 772.44 -68.2774 1033.33 41.6324" stroke="#E5FFF3" stroke-miterlimit="10"/>
<path opacity="0.65" d="M-140.66 15.6218C-140.66 15.6218 7.90981 23.3932 113.86 199.333C197.44 338.126 297.62 462.541 535.86 119.453C653.8 -50.3714 773.24 -84.369 1040.03 26.651" stroke="#E7FFF4" stroke-miterlimit="10"/>
<path opacity="0.68" d="M-133.83 2.46374C-133.83 2.46374 15.4699 14.7305 120.27 192.454C203.41 333.449 302.77 478.94 541.32 127.971C656.64 -41.6895 774.03 -100.403 1046.73 11.7093" stroke="#E9FFF5" stroke-miterlimit="10"/>
<path opacity="0.71" d="M-127 -10.7128C-127 -10.7128 23.01 6.06761 126.68 185.556C209.38 328.754 307.98 495.429 546.78 136.452C659.51 -33.0078 774.83 -116.491 1053.42 -3.28719" stroke="#EBFFF6" stroke-miterlimit="10"/>
<path opacity="0.74" d="M-120.16 -23.8721C-120.16 -23.8721 30.5599 -2.57809 133.1 178.694C215.36 324.112 313.27 512.081 552.25 144.988C662.41 -24.2361 775.63 -132.508 1060.13 -18.2119" stroke="#EDFFF7" stroke-miterlimit="10"/>
<path opacity="0.76" d="M-113.33 -37.0446C-113.33 -37.0446 38.0899 -11.2187 139.51 171.8C221.32 319.439 318.62 528.793 557.71 153.473C665.33 -15.4594 776.42 -148.574 1066.82 -33.1862" stroke="#EFFFF7" stroke-miterlimit="10"/>
<path opacity="0.79" d="M-106.49 -50.2048C-106.49 -50.2048 45.6297 -19.8472 145.93 164.919C227.28 314.796 324.04 545.663 563.17 161.989C668.27 -6.63403 777.22 -164.628 1073.52 -48.13" stroke="#F1FFF8" stroke-miterlimit="10"/>
<path opacity="0.82" d="M-99.6602 -63.3835C-99.6602 -63.3835 53.1498 -28.4941 152.34 158.019C233.23 310.135 329.54 562.624 568.63 170.486C671.24 2.19108 778.01 -180.683 1080.21 -63.1105" stroke="#F3FFF9" stroke-miterlimit="10"/>
<path opacity="0.85" d="M-92.8301 -76.5427C-92.8301 -76.5427 60.6599 -37.1033 158.75 151.157C239.18 305.512 335.12 579.731 574.09 179.003C674.23 11.0721 778.8 -196.717 1086.91 -78.0533" stroke="#F5FFFA" stroke-miterlimit="10"/>
<path opacity="0.88" d="M-85.9902 -89.7164C-85.9902 -89.7164 68.1798 -45.727 165.17 144.263C245.12 300.874 340.8 596.951 579.56 187.506C677.26 19.9568 779.61 -212.785 1093.61 -93.0106" stroke="#F7FFFB" stroke-miterlimit="10"/>
<path opacity="0.91" d="M-79.1602 -102.875C-79.1602 -102.875 75.6798 -54.3174 171.58 137.383C251.05 296.251 346.55 614.296 585.02 196.005C680.3 28.8748 780.4 -228.837 1100.31 -107.989" stroke="#F9FFFC" stroke-miterlimit="10"/>
<path opacity="0.94" d="M-72.3301 -116.054C-72.3301 -116.054 82.9799 -62.6192 177.99 130.483C256.82 291.862 352.41 631.747 590.48 204.502C683.37 37.7902 781.19 -244.91 1107 -122.952" stroke="#FBFFFD" stroke-miterlimit="10"/>
<path opacity="0.97" d="M-65.4902 -129.23C-65.4902 -129.23 90.5698 -71.3724 184.41 123.604C262.82 287.131 358.38 649.348 595.94 213.003C686.46 46.7274 781.99 -260.962 1113.69 -137.912" stroke="#FDFFFE" stroke-miterlimit="10"/>
<path d="M-58.6602 -142.389C-58.6602 -142.389 98.1498 -80.1266 190.82 116.725C268.82 282.381 364.44 667.074 601.4 221.52C689.58 55.7 782.78 -276.996 1120.39 -152.872" stroke="white" stroke-miterlimit="10"/>
</g>
</svg>
