<svg width="360" height="538" viewBox="0 0 360 538" fill="none" xmlns="http://www.w3.org/2000/svg">
<g style="mix-blend-mode:overlay">
<path opacity="0.03" d="M-751.81 1138.23C-751.81 1138.23 -614.748 1011.66 -481.025 1097.09C-387.567 1157.23 -254.062 825.18 -21.1356 554.063C163.785 338.822 321.022 739.687 467.262 775.412" stroke="#BDFFE0" stroke-miterlimit="10"/>
<path opacity="0.06" d="M-744.623 1123.13C-744.623 1123.13 -606.838 1000.58 -474.336 1088.22C-381.329 1150.57 -249.43 837.567 -15.6043 560.417C166.203 344.924 322.014 723.898 474.327 758.641" stroke="#BFFFE1" stroke-miterlimit="10"/>
<path opacity="0.09" d="M-737.445 1108.02C-737.445 1108.02 -598.71 988.779 -467.667 1079.34C-374.952 1143.41 -244.834 850.038 -10.0794 566.749C168.632 351.081 322.999 708.087 481.385 741.848" stroke="#C1FFE2" stroke-miterlimit="10"/>
<path opacity="0.12" d="M-730.256 1092.91C-730.256 1092.91 -590.73 977.489 -460.973 1070.45C-368.654 1136.6 -240.203 862.552 -4.54302 573.084C171.092 357.354 323.996 692.278 488.447 725.037" stroke="#C3FFE3" stroke-miterlimit="10"/>
<path opacity="0.15" d="M-723.069 1077.8C-723.069 1077.8 -582.756 966.213 -454.293 1061.57C-362.379 1129.79 -235.588 875.151 0.992095 579.414C173.558 363.699 324.992 676.465 495.515 708.242" stroke="#C5FFE4" stroke-miterlimit="10"/>
<path opacity="0.18" d="M-715.88 1062.7C-715.88 1062.7 -574.783 954.962 -447.603 1052.7C-356.088 1123.01 -230.96 887.853 6.52478 585.77C176.039 370.146 325.985 660.678 502.581 691.472" stroke="#C7FFE5" stroke-miterlimit="10"/>
<path opacity="0.21" d="M-708.69 1047.59C-708.69 1047.59 -566.803 943.723 -440.918 1043.8C-349.815 1116.22 -226.326 900.585 12.0651 592.083C178.554 376.628 326.986 644.847 509.644 674.658" stroke="#C9FFE6" stroke-miterlimit="10"/>
<path opacity="0.24" d="M-701.503 1032.48C-701.503 1032.48 -558.848 932.503 -434.228 1034.92C-343.54 1109.47 -221.684 913.433 17.6094 598.419C181.077 383.227 328.001 629.041 516.725 657.85" stroke="#CBFFE7" stroke-miterlimit="10"/>
<path opacity="0.26" d="M-694.325 1017.37C-694.325 1017.37 -550.895 921.3 -427.559 1026.04C-337.276 1102.72 -217.055 926.353 23.1216 604.768C183.598 389.898 328.974 613.246 523.77 641.073" stroke="#CDFFE7" stroke-miterlimit="10"/>
<path opacity="0.29" d="M-687.136 1002.26C-687.136 1002.26 -542.932 910.098 -420.864 1017.15C-330.996 1095.95 -212.371 939.318 28.6713 611.085C186.173 396.616 329.984 597.42 530.842 624.262" stroke="#CFFFE8" stroke-miterlimit="10"/>
<path opacity="0.32" d="M-679.949 987.154C-679.949 987.154 -534.986 898.932 -414.185 1008.27C-324.739 1089.24 -207.699 952.394 34.1926 617.436C188.74 403.426 330.97 581.609 537.9 607.47" stroke="#D1FFE9" stroke-miterlimit="10"/>
<path opacity="0.35" d="M-672.759 972.047C-672.759 972.047 -527.032 887.784 -407.491 999.381C-318.466 1082.51 -202.984 965.532 39.7421 623.753C191.352 410.28 331.98 565.783 544.982 590.662" stroke="#D3FFEA" stroke-miterlimit="10"/>
<path opacity="0.38" d="M-665.57 956.938C-665.57 956.938 -519.087 876.634 -400.81 990.504C-312.205 1075.79 -198.266 978.761 45.2758 630.104C193.968 417.226 332.974 549.991 552.049 573.887" stroke="#D5FFEB" stroke-miterlimit="10"/>
<path opacity="0.41" d="M-658.395 941.847C-658.395 941.847 -511.164 865.537 -394.133 981.645C-305.956 1069.13 -193.519 992.108 50.7976 636.454C196.593 424.23 333.957 534.197 559.094 557.109" stroke="#D7FFEC" stroke-miterlimit="10"/>
<path opacity="0.44" d="M-651.208 926.739C-651.208 926.739 -503.238 854.422 -387.451 972.75C-299.711 1062.43 -188.746 1005.48 56.3323 642.788C199.25 431.277 334.952 518.388 566.164 540.3" stroke="#D9FFED" stroke-miterlimit="10"/>
<path opacity="0.47" d="M-644.019 911.633C-644.019 911.633 -495.313 843.325 -380.76 963.876C-293.448 1055.75 -183.931 1018.97 61.8686 649.123C201.93 438.384 335.949 502.579 573.234 523.509" stroke="#DBFFEE" stroke-miterlimit="10"/>
<path opacity="0.5" d="M-636.832 896.526C-636.832 896.526 -487.393 832.247 -374.081 954.999C-287.209 1049.09 -179.091 1032.53 67.4 655.475C204.627 445.55 336.941 486.788 580.288 506.734" stroke="#DDFFEF" stroke-miterlimit="10"/>
<path opacity="0.53" d="M-629.642 881.416C-629.642 881.416 -479.474 821.183 -367.386 946.104C-280.968 1042.43 -174.189 1046.16 72.9499 661.791C207.363 452.737 337.951 470.96 587.374 489.906" stroke="#DFFFF0" stroke-miterlimit="10"/>
<path opacity="0.56" d="M-622.464 866.305C-622.464 866.305 -471.576 810.117 -360.716 937.224C-274.745 1035.8 -169.275 1059.89 78.4621 668.137C210.085 459.997 338.924 455.163 594.419 473.127" stroke="#E1FFF1" stroke-miterlimit="10"/>
<path opacity="0.59" d="M-615.275 851.198C-615.275 851.198 -463.674 799.09 -354.025 928.35C-268.511 1029.17 -164.297 1073.72 84.0086 674.474C212.864 467.288 339.941 439.358 601.489 456.336" stroke="#E3FFF2" stroke-miterlimit="10"/>
<path opacity="0.62" d="M-608.088 836.091C-608.088 836.091 -455.783 788.061 -347.343 919.455C-262.285 1022.52 -159.278 1087.6 89.5332 680.806C215.644 474.615 340.93 423.529 608.546 439.542" stroke="#E5FFF3" stroke-miterlimit="10"/>
<path opacity="0.65" d="M-600.899 820.984C-600.899 820.984 -447.89 777.033 -340.652 910.58C-256.064 1015.91 -154.197 1101.59 95.0795 687.142C218.47 481.988 341.937 407.722 615.629 422.735" stroke="#E7FFF4" stroke-miterlimit="10"/>
<path opacity="0.68" d="M-593.711 805.877C-593.711 805.877 -440.006 766.04 -333.969 901.686C-249.845 1009.3 -149.069 1115.66 100.614 693.476C221.31 489.381 342.932 391.912 622.686 405.941" stroke="#E9FFF5" stroke-miterlimit="10"/>
<path opacity="0.71" d="M-586.522 790.768C-586.522 790.768 -432.129 755.044 -327.278 892.809C-243.636 1002.71 -143.868 1129.84 106.151 699.809C224.175 496.814 343.929 376.101 629.756 389.148" stroke="#EBFFF6" stroke-miterlimit="10"/>
<path opacity="0.74" d="M-579.344 775.659C-579.344 775.659 -424.267 744.066 -320.608 883.931C-237.442 996.129 -138.62 1144.09 111.673 706.159C227.052 504.289 344.912 360.308 636.811 372.373" stroke="#EDFFF7" stroke-miterlimit="10"/>
<path opacity="0.76" d="M-572.155 760.552C-572.155 760.552 -416.404 733.087 -313.914 875.038C-231.237 989.552 -133.284 1158.42 117.212 712.475C229.973 511.751 345.912 344.481 643.877 355.544" stroke="#EFFFF7" stroke-miterlimit="10"/>
<path opacity="0.79" d="M-564.968 745.445C-564.968 745.445 -408.555 722.125 -307.235 866.162C-225.057 982.99 -127.894 1172.85 122.744 718.828C232.903 519.272 346.904 328.69 650.941 338.771" stroke="#F1FFF8" stroke-miterlimit="10"/>
<path opacity="0.82" d="M-557.778 730.338C-557.778 730.338 -400.698 711.183 -300.544 857.288C-218.864 976.43 -122.399 1187.38 128.28 725.162C235.864 526.798 347.901 312.881 658.011 321.98" stroke="#F3FFF9" stroke-miterlimit="10"/>
<path opacity="0.85" d="M-550.591 715.23C-550.591 715.23 -392.862 700.237 -293.861 848.393C-212.687 969.886 -116.837 1201.98 133.815 731.496C238.849 534.346 348.896 297.071 665.071 305.168" stroke="#F5FFFA" stroke-miterlimit="10"/>
<path opacity="0.88" d="M-543.412 700.122C-543.412 700.122 -385.034 689.289 -287.18 839.517C-206.518 963.341 -111.191 1216.68 139.352 737.831C241.866 541.9 349.894 281.262 672.141 288.377" stroke="#F7FFFB" stroke-miterlimit="10"/>
<path opacity="0.91" d="M-536.224 685.01C-536.224 685.01 -377.205 678.375 -280.5 830.636C-200.353 956.808 -105.446 1231.46 144.877 744.159C244.901 549.453 350.88 265.447 679.199 271.579" stroke="#F9FFFC" stroke-miterlimit="10"/>
<path opacity="0.94" d="M-529.034 669.903C-529.034 669.903 -369.587 667.815 -273.806 821.743C-194.352 950.584 -99.5957 1246.33 150.423 750.495C247.974 557.035 351.89 249.622 686.269 254.788" stroke="#FBFFFD" stroke-miterlimit="10"/>
<path opacity="0.97" d="M-521.847 654.796C-521.847 654.796 -361.674 656.716 -267.126 812.867C-188.123 943.92 -93.6507 1261.29 155.948 756.827C251.058 564.601 352.875 233.811 693.33 237.977" stroke="#FDFFFE" stroke-miterlimit="10"/>
<path d="M-514.658 639.689C-514.658 639.689 -353.762 645.636 -260.432 803.974C-181.889 937.238 -87.5856 1276.33 161.494 763.163C254.19 572.194 353.892 218.005 700.409 221.187" stroke="white" stroke-miterlimit="10"/>
</g>
</svg>
