<svg width="25" height="24" viewBox="0 0 25 24" fill="none" xmlns="http://www.w3.org/2000/svg">
<path d="M24 4H10" stroke="#0AB051" stroke-linecap="round" stroke-linejoin="round"/>
<path d="M5 4H1" stroke="#0AB051" stroke-linecap="round" stroke-linejoin="round"/>
<path d="M24 12H21" stroke="#0AB051" stroke-linecap="round" stroke-linejoin="round"/>
<path d="M16 12H1" stroke="#0AB051" stroke-linecap="round" stroke-linejoin="round"/>
<path d="M24 20H7" stroke="#0AB051" stroke-linecap="round" stroke-linejoin="round"/>
<path d="M2 20H1" stroke="#0AB051" stroke-linecap="round" stroke-linejoin="round"/>
<path d="M6.5 7C6.10218 7 5.72064 6.84197 5.43933 6.56067C5.15803 6.27936 5 5.89782 5 5.5V2.5C5 2.10218 5.15803 1.72064 5.43933 1.43933C5.72064 1.15803 6.10218 1 6.5 1C6.89782 1 7.27936 1.15803 7.56067 1.43933C7.84197 1.72064 8 2.10218 8 2.5V5.5C8 5.89782 7.84197 6.27936 7.56067 6.56067C7.27936 6.84197 6.89782 7 6.5 7Z" stroke="#0AB051" stroke-linecap="round" stroke-linejoin="round"/>
<path d="M17.5 15C17.1022 15 16.7206 14.842 16.4393 14.5607C16.158 14.2794 16 13.8978 16 13.5V10.5C16 10.1022 16.158 9.72064 16.4393 9.43933C16.7206 9.15803 17.1022 9 17.5 9V9C17.8978 9 18.2794 9.15803 18.5607 9.43933C18.842 9.72064 19 10.1022 19 10.5V13.5C19 13.8978 18.842 14.2794 18.5607 14.5607C18.2794 14.842 17.8978 15 17.5 15V15Z" stroke="#0AB051" stroke-linecap="round" stroke-linejoin="round"/>
<path d="M3.5 23C3.10218 23 2.72064 22.842 2.43933 22.5607C2.15803 22.2794 2 21.8978 2 21.5V18.5C2 18.1022 2.15803 17.7206 2.43933 17.4393C2.72064 17.158 3.10218 17 3.5 17C3.89782 17 4.27936 17.158 4.56067 17.4393C4.84197 17.7206 5 18.1022 5 18.5V21.5C5 21.8978 4.84197 22.2794 4.56067 22.5607C4.27936 22.842 3.89782 23 3.5 23Z" stroke="#0AB051" stroke-linecap="round" stroke-linejoin="round"/>
</svg>
