<svg width="125" height="137" viewBox="0 0 125 137" fill="none" xmlns="http://www.w3.org/2000/svg">
<g clip-path="url(#clip0_162_8677)">
<path d="M107.13 52.8V37.58H87.6599L65.7699 20.46L43.8799 37.58H24.4099V52.8L12.8999 61.81V136.28H118.64V61.81L107.13 52.8Z" fill="#4FA061"/>
<path d="M7.22998 56.14L60.1 14.79L112.97 56.14H7.22998Z" fill="#58A765"/>
<path d="M112.98 56.1401H7.22998V130.61H112.98V56.1401Z" fill="#58A765"/>
<path d="M7.22998 130.61L60.1 93.3801L7.22998 56.1401V130.61Z" fill="#0AB051"/>
<path d="M112.97 130.61L60.1001 93.3801L112.97 56.1401V130.61Z" fill="#0AB051"/>
<path d="M60.1 93.38L47.19 84.28L7.22998 130.61H112.97L73.01 84.28L60.1 93.38Z" fill="#3ACE7A"/>
<path d="M7.22998 56.1401L60.1 83.6401L112.97 56.1401L60.1 93.3801L7.22998 56.1401Z" fill="#BCC0BC"/>
<path d="M101.46 31.9102V64.9602L60.0997 93.3802V93.3502V93.3802L18.7397 64.9602V31.9102H101.46Z" fill="white"/>
<path d="M91.3399 47.4701C91.3399 48.2301 90.7199 48.8501 89.9599 48.8501H30.2399C29.4799 48.8501 28.8599 48.2301 28.8599 47.4701C28.8599 46.7101 29.4799 46.0901 30.2399 46.0901H89.9599C90.7199 46.0901 91.3399 46.7001 91.3399 47.4701Z" fill="#ACF3A1"/>
<path d="M91.3399 56.14C91.3399 56.9 90.7199 57.52 89.9599 57.52H30.2399C29.4799 57.52 28.8599 56.9 28.8599 56.14C28.8599 55.38 29.4799 54.76 30.2399 54.76H89.9599C90.7199 54.76 91.3399 55.38 91.3399 56.14Z" fill="#ACF3A1"/>
<path d="M91.3399 64.8102C91.3399 65.5702 90.7199 66.1902 89.9599 66.1902H30.2399C29.4799 66.1902 28.8599 65.5702 28.8599 64.8102C28.8599 64.0502 29.4799 63.4302 30.2399 63.4302H89.9599C90.7199 63.4302 91.3399 64.0502 91.3399 64.8102Z" fill="#ACF3A1"/>
<path d="M97.1797 7.19995C106.21 7.19995 115.23 7.19995 124.26 7.19995" stroke="#0AB051" stroke-width="3" stroke-miterlimit="10"/>
<path d="M75.5498 7.19995C79.9798 7.19995 84.3998 7.19995 88.8298 7.19995" stroke="#0AB051" stroke-width="3" stroke-miterlimit="10"/>
<path d="M12.9 7.2C12.9 10.35 10.35 12.9 7.2 12.9C4.05 12.9 1.5 10.35 1.5 7.2C1.5 4.05 4.05 1.5 7.2 1.5C10.34 1.5 12.9 4.05 12.9 7.2Z" stroke="#0AB051" stroke-width="3" stroke-miterlimit="10"/>
</g>
<defs>
<clipPath id="clip0_162_8677">
<rect width="124.26" height="136.28" fill="white"/>
</clipPath>
</defs>
</svg>
