<svg width="50" height="50" viewBox="0 0 50 50" fill="none" xmlns="http://www.w3.org/2000/svg">
<circle cx="24.8074" cy="24.8445" r="23.8074" fill="white" stroke="#3ACE7A" stroke-width="2"/>
<path d="M33.2019 21.7692C33.0963 21.6121 32.9091 21.5337 32.7235 21.57L26.933 22.6857L28.1087 11.3403C28.1312 11.1247 28.0037 10.9229 27.7991 10.8502C27.5942 10.7778 27.3684 10.8537 27.2495 11.0352L16.2558 27.8193C16.1521 27.9774 16.1531 28.1811 16.2584 28.3376C16.3627 28.4935 16.5499 28.5723 16.7368 28.5375L22.5276 27.4215L21.3519 38.7665C21.3294 38.9828 21.4569 39.1846 21.6615 39.257C21.7117 39.2747 21.7645 39.2839 21.8183 39.2839C21.977 39.2839 22.1235 39.2045 22.2107 39.072L33.2044 22.2879C33.3082 22.1297 33.3069 21.9261 33.2019 21.7692Z" fill="#3ACE7A"/>
</svg>
