<svg width="29" height="22" viewBox="0 0 29 22" fill="none" xmlns="http://www.w3.org/2000/svg">
<path d="M24.3274 7.66797C17.7344 8.32761 11.092 8.32761 4.49902 7.66797" stroke="#828282" stroke-linejoin="round"/>
<path d="M24.3277 18.0839V19.8334C24.3277 20.1428 24.2048 20.4395 23.9861 20.6582C23.7674 20.877 23.4707 20.9998 23.1614 20.9998H21.995C21.6856 20.9998 21.389 20.877 21.1703 20.6582C20.9515 20.4395 20.8286 20.1428 20.8286 19.8334V16.9175" stroke="#828282" stroke-linejoin="round"/>
<path d="M4.49902 18.0839V19.8334C4.49902 20.1428 4.62193 20.4395 4.84066 20.6582C5.0594 20.877 5.35606 20.9998 5.6654 20.9998H6.83178C7.14112 20.9998 7.43777 20.877 7.65651 20.6582C7.87525 20.4395 7.99815 20.1428 7.99815 19.8334V16.9175" stroke="#828282" stroke-linejoin="round"/>
<path d="M10.3311 14.0015H18.4957" stroke="#828282" stroke-linecap="round" stroke-linejoin="round"/>
<path d="M7.99825 14.0013H5.47891C5.20291 13.9566 4.95211 13.8142 4.77228 13.6001C4.59244 13.386 4.49552 13.1145 4.49912 12.835" stroke="#828282" stroke-linecap="round" stroke-linejoin="round"/>
<path d="M20.8286 14.0013H23.348C23.6239 13.9566 23.8748 13.8142 24.0546 13.6001C24.2344 13.386 24.3313 13.1145 24.3277 12.835" stroke="#828282" stroke-linecap="round" stroke-linejoin="round"/>
<path d="M3.91594 8.16967H2.16638C1.88681 8.17326 1.61524 8.07627 1.40116 7.89644C1.18707 7.71661 1.04471 7.46594 1 7.18995V7.18995C1 6.52512 1 5.83691 2.16638 5.83691H5.08232" stroke="#828282" stroke-linejoin="round"/>
<path d="M24.9105 8.16967H26.7534C27.033 8.17326 27.3045 8.07627 27.5186 7.89644C27.7327 7.71661 27.8751 7.46594 27.9198 7.18995V7.18995C27.9198 6.52512 27.9198 5.83691 26.7534 5.83691H23.7441" stroke="#828282" stroke-linejoin="round"/>
<path d="M26.6605 11.8321C26.6534 11.0251 26.3739 10.2442 25.8673 9.61594C24.2754 7.76835 23.1938 5.53679 22.7298 3.14249C22.4149 1.33461 19.9888 1.17139 18.0643 1.17139H10.6694C8.79156 1.17139 6.3655 1.33461 6.00392 3.14249C5.52477 5.53749 4.44069 7.77008 2.85477 9.62761C2.34914 10.251 2.07317 11.0294 2.07324 11.8321V16.2527C2.07324 16.9409 3.23962 17.5007 3.97444 17.5007H24.6659C25.3774 17.5007 26.5671 16.9409 26.5671 16.2527L26.6605 11.8321Z" stroke="#828282" stroke-linecap="round" stroke-linejoin="round"/>
</svg>
