<svg width="23" height="24" viewBox="0 0 23 24" fill="none" xmlns="http://www.w3.org/2000/svg">
<path d="M21.9199 23H0.919922L1.05992 22C1.30043 20.3337 2.13344 18.8099 3.40623 17.7079C4.67903 16.6059 6.30636 15.9996 7.98993 16L11.4199 15L14.8499 16C16.5335 15.9996 18.1608 16.6059 19.4336 17.7079C20.7064 18.8099 21.5394 20.3337 21.7799 22L21.9199 23Z" stroke="#828282" stroke-linecap="round" stroke-linejoin="round"/>
<path d="M10.8247 11.5C9.81705 11.5012 8.84442 11.1304 8.09333 10.4586C7.34224 9.78688 6.86556 8.86152 6.75469 7.85999L6.44469 5.04999C6.38148 4.47752 6.43958 3.89818 6.61522 3.34967C6.79087 2.80116 7.0801 2.29578 7.46409 1.86652C7.84807 1.43725 8.31818 1.09373 8.8438 0.858276C9.36942 0.622824 9.93875 0.500735 10.5147 0.5H11.1347C11.7106 0.500735 12.28 0.622824 12.8056 0.858276C13.3312 1.09373 13.8013 1.43725 14.1853 1.86652C14.5693 2.29578 14.8585 2.80116 15.0342 3.34967C15.2098 3.89818 15.2679 4.47752 15.2047 5.04999L14.8947 7.85999C14.7838 8.86152 14.3072 9.78688 13.5561 10.4586C12.805 11.1304 11.8323 11.5012 10.8247 11.5Z" stroke="#828282" stroke-linecap="round" stroke-linejoin="round"/>
</svg>
