<svg width="19" height="25" viewBox="0 0 19 25" fill="none" xmlns="http://www.w3.org/2000/svg">
<path d="M18 9.87354C18 14.8735 12.28 21.4735 10.23 23.6835C10.1365 23.7834 10.0234 23.8631 9.89784 23.9175C9.77227 23.972 9.63688 24.0001 9.50001 24.0001C9.36315 24.0001 9.22775 23.972 9.10219 23.9175C8.97662 23.8631 8.86357 23.7834 8.77003 23.6835C6.71003 21.4735 0.990013 14.8935 1.00001 9.87354C1.00001 7.61919 1.89555 5.45719 3.48961 3.86313C5.08367 2.26907 7.24567 1.37354 9.50001 1.37354C11.7544 1.37354 13.9164 2.26907 15.5105 3.86313C17.1045 5.45719 18 7.61919 18 9.87354Z" stroke="#0AB051" stroke-linecap="round" stroke-linejoin="round"/>
<path d="M9.5 14.0137C11.7091 14.0137 13.5 12.2228 13.5 10.0137C13.5 7.80453 11.7091 6.01367 9.5 6.01367C7.29086 6.01367 5.5 7.80453 5.5 10.0137C5.5 12.2228 7.29086 14.0137 9.5 14.0137Z" stroke="#0AB051" stroke-linecap="round" stroke-linejoin="round"/>
</svg>
