<svg width="18" height="22" viewBox="0 0 18 22" fill="none" xmlns="http://www.w3.org/2000/svg">
<path d="M10.0001 7.99994L11.0001 1.99994C11.0001 1.79006 10.9339 1.58549 10.8112 1.41522C10.6884 1.24496 10.5154 1.1177 10.3163 1.05133C10.1172 0.984961 9.90213 0.982892 9.70179 1.04547C9.50146 1.10805 9.32601 1.23206 9.20008 1.39996L1.20008 11.4C1.08866 11.5485 1.02072 11.7253 1.00404 11.9102C0.987361 12.0952 1.02255 12.2811 1.1056 12.4472C1.18865 12.6133 1.31628 12.753 1.47425 12.8506C1.63223 12.9483 1.81442 12.9999 2.00013 12.9999H7.00013C7.26535 12.9999 7.51963 13.1054 7.70716 13.2929C7.8947 13.4804 8.00013 13.7347 8.00013 13.9999L7.00013 19.9999C7.00013 20.2098 7.06613 20.4144 7.18885 20.5847C7.31157 20.7549 7.48461 20.8823 7.68373 20.9487C7.88284 21.015 8.09789 21.0171 8.29823 20.9545C8.49856 20.892 8.67401 20.7678 8.79994 20.5999L16.7999 10.5999C16.9114 10.4513 16.9793 10.2747 16.996 10.0898C17.0127 9.90482 16.9775 9.7189 16.8944 9.5528C16.8114 9.38669 16.6837 9.24699 16.5258 9.14935C16.3678 9.05172 16.1858 8.99994 16.0001 8.99994H11.0001C10.7349 8.99994 10.4804 8.89463 10.2929 8.70709C10.1053 8.51956 10.0001 8.26516 10.0001 7.99994Z" stroke="#828282" stroke-linejoin="round"/>
</svg>
